<svg class="svg-icon icon-file" xmlns="http://www.w3.org/2000/svg" width="20" height="20" viewBox="0 0 20 20">
    <path class="file-icon"
          d="M1311.57,11225.1l-6.26-8.8a4.285,4.285,0,0,0-6.71-1.2l-3.39,2.5a4.688,4.688,0,0,0-2.18,3.3,4.64,4.64,0,0,0,1.01,3.4l6.1,8.6a0.836,0.836,0,0,0,1.21.2,0.867,0.867,0,0,0,.25-1.2l-6.15-8.7a3.119,3.119,0,0,1-.63-2.1,3.492,3.492,0,0,1,1.43-2.1l3.49-2.5a3.158,3.158,0,0,1,2.05-.7,3.125,3.125,0,0,1,2.05,1.5l6.27,8.9a5.432,5.432,0,0,1,1.03,3.5,2.758,2.758,0,0,1-1.17,1.8c-2.24,1.6-3.8,0-5.15-1.9-0.96-1.3-3.81-5.2-3.94-5.3,0,0-1.85-2.4-.61-3.3,0.79-.6,1.76,0,3.01,1.8l3.71,5.2a0.8,0.8,0,0,0,1.19.1,0.775,0.775,0,0,0,.27-1.1l-3.71-5.3c-1.09-1.5-2.91-4.1-5.59-2.1a2.509,2.509,0,0,0-1.19,2,6.4,6.4,0,0,0,1.44,3.7c0.27,0.4,2.96,4.2,3.87,5.5,2.41,3.4,5.08,4.1,7.75,2.1a4.155,4.155,0,0,0,1.9-2.9A7.441,7.441,0,0,0,1311.57,11225.1Z"
          transform="translate(-1293 -11214)"/>
</svg>
