<svg version="1.1" class="calendar" id="Capa_1" xmlns="http://www.w3.org/2000/svg" xmlns:xlink="http://www.w3.org/1999/xlink" x="0px" y="0px"
	 viewBox="0 0 488.3 488.3" style="enable-background:new 0 0 488.3 488.3;" xml:space="preserve">
<g>
	<g>
		<path class="calendar" d="M279.6,52.2H150.1c-4.4,0-8,3.6-8,8s3.6,8,8,8h129.5c4.4,0,8-3.6,8-8S284,52.2,279.6,52.2z"/>
	</g>
</g>
<g>
	<g>
		<path class="calendar" d="M319,20.7c-4.4,0-8,3.6-8,8V91c0,4.4,3.6,8,8,8s8-3.6,8-8V28.7C327,24.3,323.4,20.7,319,20.7z"/>
	</g>
</g>
<g>
	<g>
		<path class="calendar" d="M112,20.7c-4.4,0-8,3.6-8,8V91c0,4.4,3.6,8,8,8s8-3.6,8-8V28.7C120,24.3,116.4,20.7,112,20.7z"/>
	</g>
</g>
<g>
	<g>
		<path class="calendar" d="M371.3,150.2H59.6c-4.4,0-8,3.6-8,8s3.6,8,8,8h311.6c4.5,0,8.1-3.6,8.1-8
			C379.3,153.8,375.7,150.2,371.3,150.2z"/>
	</g>
</g>
<g>
	<g>
		<path class="calendar" d="M298.5,213.2H59.6c-4.4,0-8,3.6-8,8s3.6,8,8,8h238.9c4.5,0,8-3.6,8-8S302.9,213.2,298.5,213.2z"/>
	</g>
</g>
<g>
	<g>
		<path class="calendar" d="M194.6,275.2h-135c-4.4,0-8,3.6-8,8s3.6,8,8,8h135c4.4,0,8-3.6,8-8S199,275.2,194.6,275.2z"/>
	</g>
</g>
<g>
	<g>
		<path class="calendar" d="M476.3,311.9c-10.2-19.4-25.9-35.2-45.3-45.3V59.8c0.1-4.1-3.3-7.6-7.4-7.6c-0.1,0-0.3,0-0.4,0h-72.7
			c-4.4,0-8,3.6-8,8s3.6,8,8,8H415v191.6c-10.8-3.6-22.1-5.5-33.5-5.4c-58.8,0-106.6,47.6-106.6,106.5c0,11.3,1.8,22.6,5.5,33.3H16
			v-326h54c4.4,0,8-3.6,8-8s-3.6-8-8-8H7.7c-4.1-0.1-7.5,3-7.7,7.1c0,0.2,0,0.3,0,0.5v342.8c-0.1,4.1,3.1,7.5,7.2,7.6
			c0.2,0,0.3,0,0.5,0h279.5c27.1,52.2,91.5,72.5,143.7,45.4C483.1,428.5,503.4,364.1,476.3,311.9z M381.6,451.8
			c-50.1,0-90.7-40.6-90.7-90.7s40.6-90.7,90.7-90.7s90.7,40.6,90.7,90.7C472.3,411.1,431.7,451.7,381.6,451.8z"/>
	</g>
</g>
<g>
	<g>
		<path class="calendar" d="M429.7,358.2H390v-54.3c0-4.4-3.6-8-8-8s-8,3.6-8,8v62.3c-0.2,4.2,3.1,7.8,7.4,7.9c0.1,0,0.2,0,0.3,0h48
			c4.4,0,8-3.6,8-8C437.7,361.7,434.1,358.2,429.7,358.2z"/>
	</g>
</g>
</svg>
