
<svg version="1.1" class="card-icon" id="Capa_1" xmlns="http://www.w3.org/2000/svg" xmlns:xlink="http://www.w3.org/1999/xlink"
	 viewBox="0 0 512 512" style="enable-background:new 0 0 512 512;" xml:space="preserve">

<g>
	<g>
		<path class="st0" d="M290.1,0H119.5C95.9,0,76.8,19.1,76.8,42.7v307.2c0,23.5,19.1,42.7,42.7,42.7h153.6v-17.1H119.5
			c-14.1,0-25.6-11.5-25.6-25.6V42.7c0-14.1,11.5-25.6,25.6-25.6h170.7c14.1,0,25.6,11.5,25.6,25.6v247.5h17.1V42.7
			C332.8,19.1,313.7,0,290.1,0z"/>
	</g>
</g>
<g>
	<g>
		<path class="st0" d="M414.6,227.3l-83.7-104.6l-13.3,10.7L401.3,238c10.9,13.6,16.8,30.6,16.8,48v209H293.3c-44.1,0-80-35.9-80-80
			v-31h-17.1v31c0,53.5,43.5,97,97,97h133.4c4.7,0,8.5-3.8,8.5-8.5V286C435.2,264.7,427.9,243.9,414.6,227.3z"/>
	</g>
</g>
<g>
	<g>
		<path class="st0" d="M221.8,201.2c6,0.2,11.6,2.7,15.7,7l114.7,121.9l12.4-11.7L249.9,196.5c-7.2-7.7-17.1-12.1-27.6-12.4
			c-10.7-0.4-20.6,3.5-28.2,10.7c-0.1,0.1-0.8,0.7-0.9,0.8c-14.6,14.6-15.6,37.6-2.3,53.4l73.5,86.8v26.4
			c0,47.2,29.6,89.9,73.8,106.5l6-16c-37.5-14.1-62.7-50.4-62.7-90.5v-29.5c0-2-0.7-4-2-5.5l-75.5-89.1c-7.6-9-7-22.1,1.7-30.8
			C210.1,203.2,215.8,201.2,221.8,201.2z"/>
	</g>
</g>
<g>
	<g>
		<rect x="264.5" y="17.1" class="st0" width="17.1" height="213.3"/>
	</g>
</g>
<g>
	<g>
		<rect x="221.9" y="281.6" class="st0" width="17.1" height="102.4"/>
	</g>
</g>
<g>
	<g>
		<rect x="221.9" y="8.5" class="st0" width="17.1" height="187.7"/>
	</g>
</g>
<g>
	<g>
		<rect x="119.5" y="42.7" class="st0" width="17.1" height="110.9"/>
	</g>
</g>
<g>
	<g>
		<rect x="162.1" y="42.7" class="st0" width="17.1" height="68.3"/>
	</g>
</g>
<g>
	<g>
		<path class="st0" d="M179.2,281.6H128c-4.7,0-8.5,3.8-8.5,8.5v51.2c0,4.7,3.8,8.5,8.5,8.5h51.2c4.7,0,8.5-3.8,8.5-8.5v-51.2
			C187.7,285.4,183.9,281.6,179.2,281.6z M170.7,332.8h-34.1v-34.1h34.1V332.8z"/>
	</g>
</g>
</svg>
