<svg version="1.1" class="carving" id="Слой_1" xmlns="http://www.w3.org/2000/svg" xmlns:xlink="http://www.w3.org/1999/xlink" x="0px" y="0px"
	 viewBox="0 0 480 480" style="enable-background:new 0 0 480 480;" xml:space="preserve">
<path class="carving" d="M8,456h464c4.4,0,8-3.6,8-8v-32c0-4.4-3.6-8-8-8H8c-4.4,0-8,3.6-8,8v32C0,452.4,3.6,456,8,456z M16,424h448v16
	H16V424z"/>
<path class="carving" d="M186.3,293.7c3.1,3.1,8.2,3.1,11.3,0l18.3-18.3V288c0,2.1,0.8,4.2,2.3,5.7l34.3,34.3H232c-4.4,0-8,3.6-8,8
	s3.6,8,8,8h36.7l16,16H248c-4.4,0-8,3.6-8,8s3.6,8,8,8h52.7l13.7,13.7c1.5,1.5,3.5,2.3,5.7,2.3h80c3.2,0,6.2-1.9,7.4-4.9
	s0.6-6.4-1.7-8.7l-136-136c-1.5-1.5-3.5-2.3-5.7-2.3h-12.7l18.3-18.3c3.1-3.1,3.1-8.2,0-11.3l-184-184c-3.1-3.1-8.2-3.1-11.3,0
	l-72,72c-3.1,3.1-3.1,8.2,0,11.3L186.3,293.7z M260.7,256l120,120h-57.4L232,284.7v-25.4l3.3-3.3H260.7z M252.7,216L192,276.7
	L179.3,264l60.7-60.7L252.7,216z M80,43.3L228.7,192L168,252.7L19.3,104L80,43.3z"/>
<path class="carving" d="M414.4,224.5c-3.1-3.2-8.2-3.2-11.3-0.1c-6.9,6.7-10.7,15.8-10.7,25.4c0,9.6,3.9,18.7,10.7,25.4
	c17.2,16.6,44.4,16.6,61.5,0c9.9-9.6,15.4-22.7,15.4-36.5s-5.6-26.9-15.4-36.5c-25-24.2-64.8-24.2-89.8,0
	C360.2,216.3,352,235.7,352,256c0,20.3,8.2,39.7,22.8,53.8c2,2,5,2.8,7.8,2s4.9-3,5.6-5.7c0.7-2.8-0.1-5.7-2.2-7.7
	C374.5,287.2,368,271.9,368,256s6.5-31.2,17.9-42.3c18.8-18.2,48.6-18.2,67.4,0c6.8,6.6,10.6,15.6,10.6,25c0,9.4-3.8,18.5-10.6,25
	c-10.9,10.6-28.2,10.6-39.1,0c-3.8-3.7-5.9-8.7-5.9-14c0-5.3,2.1-10.3,5.9-14C417.4,232.7,417.5,227.6,414.4,224.5z"/>
<path class="carving" d="M200,376h16c4.4,0,8-3.6,8-8s-3.6-8-8-8h-16c-4.4,0-8,3.6-8,8S195.6,376,200,376z"/>
<path class="carving" d="M208,336c0-4.4-3.6-8-8-8h-16c-4.4,0-8,3.6-8,8s3.6,8,8,8h16C204.4,344,208,340.4,208,336z"/>
<path class="carving" d="M104,104c0-13.3-10.7-24-24-24s-24,10.7-24,24s10.7,24,24,24C93.3,128,104,117.3,104,104z M80,112
	c-4.4,0-8-3.6-8-8s3.6-8,8-8s8,3.6,8,8C88,108.4,84.4,112,80,112z"/>
<path class="carving" d="M168,224c3.2,0,6.2-1.9,7.4-4.9s0.6-6.4-1.7-8.7l-64-64c-3.1-3.1-8.2-3.1-11.3,0.1c-3.1,3.1-3.1,8.1-0.1,11.3
	l64,64C163.8,223.2,165.9,224,168,224z"/>
</svg>
