<svg version="1.1" class="door-icon" id="Layer_1" xmlns="http://www.w3.org/2000/svg" xmlns:xlink="http://www.w3.org/1999/xlink" x="0px" y="0px"
	 viewBox="0 0 512 512" style="enable-background:new 0 0 512 512;" xml:space="preserve">
<g transform="translate(1 1)">
	<g>
		<g>
			<path class="door-icon" d="M485.4,493.9h-51.2V7.5c0-5.1-3.4-8.5-8.5-8.5H84.3c-5.1,0-8.5,3.4-8.5,8.5v486.4H24.6
				c-5.1,0-8.5,3.4-8.5,8.5s3.4,8.5,8.5,8.5h59.7h34.1h273.1h34.1h59.7c5.1,0,8.5-3.4,8.5-8.5S490.5,493.9,485.4,493.9z M127,493.9
				V50.2h256v443.7H127z M400.1,493.9V41.7c0-5.1-3.4-8.5-8.5-8.5H118.5c-5.1,0-8.5,3.4-8.5,8.5v452.3H92.9V16.1h324.3v477.9
				L400.1,493.9L400.1,493.9z"/>
			<path class="door-icon" d="M357.4,246.5h-34.1c-5.1,0-8.5,3.4-8.5,8.5v8.5h-17.1c-5.1,0-8.5,3.4-8.5,8.5s3.4,8.5,8.5,8.5h17.1v8.5
				c0,5.1,3.4,8.5,8.5,8.5h34.1c5.1,0,8.5-3.4,8.5-8.5V255C365.9,249.9,362.5,246.5,357.4,246.5z M348.9,280.6h-17.1v-17.1h17.1
				L348.9,280.6L348.9,280.6z"/>
			<path class="door-icon" d="M357.4,75.8H152.6c-5.1,0-8.5,3.4-8.5,8.5v68.3c0,5.1,3.4,8.5,8.5,8.5h204.8c5.1,0,8.5-3.4,8.5-8.5V84.3
				C365.9,79.2,362.5,75.8,357.4,75.8z M348.9,144.1H161.1V92.9h187.7L348.9,144.1L348.9,144.1z"/>
			<path class="door-icon" d="M357.4,178.2H152.6c-5.1,0-8.5,3.4-8.5,8.5V255c0,5.1,3.4,8.5,8.5,8.5h119.5c5.1,0,8.5-3.4,8.5-8.5v-25.6
				h76.8c5.1,0,8.5-3.4,8.5-8.5v-34.1C365.9,181.6,362.5,178.2,357.4,178.2z M348.9,212.3h-76.8c-5.1,0-8.5,3.4-8.5,8.5v25.6H161.1
				v-51.2h187.7L348.9,212.3L348.9,212.3z"/>
			<path class="door-icon" d="M357.4,314.7h-76.8v-25.6c0-5.1-3.4-8.5-8.5-8.5H152.6c-5.1,0-8.5,3.4-8.5,8.5v68.3c0,5.1,3.4,8.5,8.5,8.5
				h204.8c5.1,0,8.5-3.4,8.5-8.5v-34.1C365.9,318.1,362.5,314.7,357.4,314.7z M348.9,348.9H161.1v-51.2h102.4v25.6
				c0,5.1,3.4,8.5,8.5,8.5h76.8L348.9,348.9L348.9,348.9z"/>
			<path class="door-icon" d="M357.4,383H152.6c-5.1,0-8.5,3.4-8.5,8.5v68.3c0,5.1,3.4,8.5,8.5,8.5h204.8c5.1,0,8.5-3.4,8.5-8.5v-68.3
				C365.9,386.4,362.5,383,357.4,383z M348.9,451.3H161.1v-51.2h187.7L348.9,451.3L348.9,451.3z"/>
		</g>
	</g>
</g>
</svg>
