<svg version="1.1" class="eye" id="Capa_1" xmlns="http://www.w3.org/2000/svg" xmlns:xlink="http://www.w3.org/1999/xlink" x="0px" y="0px"
	 viewBox="0 0 512 512" style="enable-background:new 0 0 512 512;" xml:space="preserve">
<g>
	<g>
		<path class="eye" d="M203.1,258.9c-3.9-3.9-10.2-3.9-14.1,0c-3.9,3.9-3.9,10.2,0,14.1c3.9,3.9,10.2,3.9,14.1,0
			C207,269.2,207,262.8,203.1,258.9z"/>
	</g>
</g>
<g>
	<g>
		<path class="eye" d="M256,276c-16.5,0-30,13.5-30,30s13.5,30,30,30s30-13.5,30-30S272.5,276,256,276z M256,316
			c-5.5,0-10-4.5-10-10s4.5-10,10-10s10,4.5,10,10S261.5,316,256,316z"/>
	</g>
</g>
<g>
	<g>
		<path class="eye" d="M256,226c-11.2,0-22,2.3-32.1,6.7c-5.1,2.2-7.4,8.1-5.1,13.2s8.1,7.4,13.2,5.1c7.6-3.3,15.7-5,24.1-5
			c33.1,0,60,26.9,60,60s-26.9,60-60,60s-60-26.9-60-60c0-0.3,0-0.7,0-1c0.1-5.5-4.2-10.1-9.8-10.2c-5.5-0.1-10.1,4.2-10.2,9.8
			c0,0.5,0,1,0,1.5c0,44.1,35.9,80,80,80s80-35.9,80-80S300.1,226,256,226z"/>
	</g>
</g>
<g>
	<g>
		<path class="eye" d="M256,76c-5.5,0-10,4.5-10,10v60c0,5.5,4.5,10,10,10c5.5,0,10-4.5,10-10V86C266,80.5,261.5,76,256,76z"/>
	</g>
</g>
<g>
	<g>
		<path class="eye" d="M144.3,150.1l-42.4-42.4c-3.9-3.9-10.2-3.9-14.1,0c-3.9,3.9-3.9,10.2,0,14.1l42.4,42.4
			c3.9,3.9,10.2,3.9,14.1,0C148.2,160.4,148.2,154,144.3,150.1z"/>
	</g>
</g>
<g>
	<g>
		<path class="eye" d="M424.3,107.7c-3.9-3.9-10.2-3.9-14.1,0l-42.4,42.4c-3.9,3.9-3.9,10.2,0,14.1c3.9,3.9,10.2,3.9,14.1,0
			l42.4-42.4C428.2,118,428.2,111.6,424.3,107.7z"/>
	</g>
</g>
<g>
	<g>
		<path class="eye" d="M509.5,307.7C446,235.8,351.6,176,256,176c-95.7,0-190,59.8-253.5,131.7c-3.7,4.1-3.3,10.5,0.9,14.1
			c4.1,3.7,10.5,3.3,14.1-0.9c2.1-2.4,4.3-4.8,6.5-7.2C73.4,388.4,163,436,256,436s182.6-47.6,232-122.3c2.2,2.4,4.4,4.8,6.5,7.2
			c3.6,4.1,10,4.5,14.1,0.9C512.8,318.2,513.2,311.8,509.5,307.7z M256,416c-87.9,0-172.5-45.7-217.7-117
			C73.9,264.1,156.3,196,256,196c99.7,0,182.1,68.1,217.7,103C428.5,370.3,343.9,416,256,416z"/>
	</g>
</g>
</svg>
