<svg version="1.1" class="forest" id="Capa_1" xmlns="http://www.w3.org/2000/svg" xmlns:xlink="http://www.w3.org/1999/xlink" x="0px" y="0px"
	 viewBox="0 0 448 448" style="enable-background:new 0 0 448 448;" xml:space="preserve">
<path class="forest" d="M448,249c0-57.3-46.7-104-104-104c-20.3,0-40.2,6-57.1,17.1c-4.4-19.2-10.2-37.7-17.2-54.2
	C250.8,63.5,226,39,200,39c-26.1,0-50.8,24.4-69.7,68.6c-6.6,15.6-12.2,32.9-16.5,51L87.7,62.9C86.8,59.4,83.6,57,80,57
	s-6.8,2.4-7.7,5.9l-72,264c-0.7,2.4-0.2,5,1.4,7c1.5,2,3.9,3.1,6.4,3.1h64v64c0,4.4,3.6,8,8,8s8-3.6,8-8v-64h64
	c2.5,0,4.8-1.2,6.4-3.1c1.2-1.6,1.8-3.6,1.6-5.6c9.9,4.6,20.7,7.5,32,8.4V401c0,4.4,3.6,8,8,8s8-3.6,8-8v-64.3
	c20.8-1.7,39.7-10.1,54.6-22.9c18,22.6,44.6,36.7,73.4,38.9V401c0,4.4,3.6,8,8,8s8-3.6,8-8v-48.3C405.6,348.6,448,303.7,448,249z
	 M141.5,321H88v-12.7l14.2-14.2c3.1-3.1,3.1-8.2,0-11.3c-3.1-3.1-8.2-3.1-11.3,0l-2.8,2.8V233c0-4.4-3.6-8-8-8s-8,3.6-8,8v36.7
	l-10.3-10.3c-3.1-3.1-8.2-3.1-11.3,0c-3.1,3.1-3.1,8.2,0,11.3L72,292.3V305c0,0,0,0,0,0v16H18.5L80,95.4l27.1,99.4
	c-2.1,15.5-3.2,31.1-3.2,46.1c0,30.4,14.2,57.6,36.3,75.2L141.5,321z M208,308.3l29.7-29.7c3.1-3.1,3.1-8.2,0-11.3
	c-3.1-3.1-8.2-3.1-11.3,0L208,285.7v-33.4l21.7-21.7c3.1-3.1,3.1-8.2,0-11.3c-3.1-3.1-8.2-3.1-11.3,0L208,229.7V209c0-4.4-3.6-8-8-8
	s-8,3.6-8,8v40c0,0,0,0,0,0v20.7l-18.3-18.3c-3.1-3.1-8.2-3.1-11.3,0c-3.1,3.1-3.1,8.2,0,11.3l29.7,29.7V305c0,0,0,0,0,0v15.6
	c-40.4-4-72.1-38.2-72.1-79.7c0-42.5,9.4-90,25.2-127C161,76.5,181,55,200,55c18.9,0,39,21.6,55,59.2
	c15.8,37.1,25.2,84.4,25.2,126.7c0,41.5-31.7,75.7-72.1,79.7V308.3z M352,336.6v-12.3l29.7-29.7c3.1-3.1,3.1-8.2,0-11.3
	c-3.1-3.1-8.2-3.1-11.3,0L352,301.7V249c0-4.4-3.6-8-8-8s-8,3.6-8,8v36.7l-18.3-18.3c-3.1-3.1-8.2-3.1-11.3,0
	c-3.1,3.1-3.1,8.2,0,11.3l29.7,29.7V321c0,0,0,0,0,0v15.6c-24.5-2.2-47.1-14.7-62.1-34.4c13.9-16.7,22.2-38.1,22.2-61.4
	c0-20-2-41-5.7-61.7c15.3-11.8,34.2-18.2,53.6-18.2c48.5,0,88,39.5,88,88C432,294.8,396.8,332.6,352,336.6z"/>
</svg>
