<?xml version="1.0" encoding="utf-8"?>
<!-- Generator: Adobe Illustrator 22.1.0, SVG Export Plug-In . SVG Version: 6.00 Build 0)  -->
<svg version="1.1" id="Capa_1" xmlns="http://www.w3.org/2000/svg" xmlns:xlink="http://www.w3.org/1999/xlink" x="0px" y="0px"
	 viewBox="0 0 415.5 415.5" style="enable-background:new 0 0 415.5 415.5;" xml:space="preserve">
<style type="text/css">
	.st0{fill:#FFFFFF;}
</style>
<g>
	<path class="st0" d="M190.9,113.4c0-52.6-42.8-95.5-95.5-95.5S0,60.7,0,113.4s42.8,95.5,95.5,95.5S190.9,166,190.9,113.4z
		 M95.5,193.8c-44.4,0-80.5-36.1-80.5-80.5s36.1-80.5,80.5-80.5s80.5,36.1,80.5,80.5S139.8,193.8,95.5,193.8z"/>
	<path class="st0" d="M95.5,52.9C62.1,52.9,35,80,35,113.4s27.1,60.5,60.5,60.5s60.5-27.1,60.5-60.5S128.8,52.9,95.5,52.9z
		 M95.5,158.8c-25.1,0-45.5-20.4-45.5-45.5s20.4-45.5,45.5-45.5s45.5,20.4,45.5,45.5S120.5,158.8,95.5,158.8z"/>
	<path class="st0" d="M320,241.7c-33.3,0-60.5,27.1-60.5,60.5s27.1,60.5,60.5,60.5s60.5-27.1,60.5-60.5
		C380.5,268.8,353.4,241.7,320,241.7z M320,347.6c-25.1,0-45.5-20.4-45.5-45.5c0-25.1,20.4-45.5,45.5-45.5s45.5,20.4,45.5,45.5
		C365.5,327.2,345.1,347.6,320,347.6z"/>
	<path class="st0" d="M320,206.7c-52.6,0-95.5,42.8-95.5,95.5c0,52.6,42.8,95.5,95.5,95.5s95.5-42.8,95.5-95.5
		C415.5,249.5,372.7,206.7,320,206.7z M320,382.6c-44.4,0-80.5-36.1-80.5-80.5c0-44.4,36.1-80.5,80.5-80.5s80.5,36.1,80.5,80.5
		C400.5,346.5,364.4,382.6,320,382.6z"/>
	<path class="st0" d="M279.6,29.3c-3.2-5.9-8.4-10.2-14.8-12.1c-13.2-4-27.2,3.6-31.1,16.8l-99.8,333.1c-1.9,6.4-1.2,13.2,1.9,19
		c3.2,5.9,8.4,10.2,14.8,12.1c2.3,0.7,4.8,1.1,7.2,1.1c11,0,20.8-7.3,23.9-17.8l99.8-333.1C283.5,41.9,282.8,35.2,279.6,29.3z
		 M267.2,44l-99.8,333.1c-1.3,4.2-5.2,7.1-9.6,7.1c-1,0-1.9-0.1-2.9-0.4c-2.6-0.8-4.7-2.5-5.9-4.8c-1.3-2.4-1.5-5.1-0.8-7.6
		L248,38.3c1.3-4.3,5.3-7.1,9.6-7.1c0.9,0,1.9,0.1,2.9,0.4c2.6,0.8,4.7,2.5,5.9,4.8C267.7,38.8,268,41.5,267.2,44z"/>
</g>
</svg>
