<svg version="1.1" class="measuring-tape" id="Слой_1" xmlns="http://www.w3.org/2000/svg" xmlns:xlink="http://www.w3.org/1999/xlink" x="0px" y="0px"
	 viewBox="0 0 511 511" style="enable-background:new 0 0 511 511;" xml:space="preserve">
<path class="measuring-tape" d="M249.4,214.2c-4.7,2.8-6.3,9-3.4,13.7c8.1,13.6,12.4,29.2,12.4,45.1c0,48.5-39.5,88.1-88.1,88.1
	c-48.6,0-88.1-39.5-88.1-88.1s39.5-88.1,88.1-88.1c5.5,0,11,0.5,16.3,1.5c5.4,1,10.6-2.6,11.6-8c1-5.4-2.6-10.6-8-11.6
	c-6.5-1.2-13.2-1.8-19.9-1.8c-59.6,0-108,48.5-108,108s48.5,108,108,108c59.6,0,108-48.5,108-108c0-19.5-5.3-38.7-15.3-55.4
	C260.2,212.9,254.1,211.4,249.4,214.2z"/>
<path class="measuring-tape" d="M500,287.1h-21.9c-19.9,0-36,16.2-36,36.1v38.5h-84l-3.1-21.7c-0.7-4.9-4.9-8.6-9.9-8.6h-13.6
	c6.8-18.7,10.2-38.2,10.2-58.4c-0.1-93.8-76.4-170.6-170.2-171.2c-13.8-0.1-27.4,1.5-40.7,4.6l-16.3-28.1
	c-5.7-9.9-18.5-13.3-28.3-7.5L54.1,89.2c-4.8,2.8-8.2,7.3-9.6,12.6c-1.4,5.4-0.7,10.9,2.1,15.7l13.9,24
	c-17.7,14.8-32.4,33.2-42.8,53.7C5.3,219.5-1,245.7-1,273.1c0,94.5,76.9,171.3,171.3,171.3c2.1,0,4.3,0,6.8-0.1
	c4.7-0.2,9.8-0.4,14.7-0.4h166.5c2.9,0,5.6-1.3,7.5-3.4c1.9-2.2,2.7-5.1,2.3-7.9L367,424h85.1c0.1,0,0.2,0,0.3,0h17.7
	c22,0,39.9-17.9,39.9-39.9v-87C510,291.5,505.5,287.1,500,287.1z M63.7,107c0.1-0.3,0.3-0.4,0.4-0.5l32.1-18.6
	c0.1-0.1,0.3-0.1,0.4-0.1c0.3,0,0.5,0.1,0.7,0.4l13.9,24c0,0,0,0,0,0c-0.3,0.1-0.7,0.2-1,0.4c-0.1,0.1-0.3,0.1-0.4,0.1
	c-0.2,0.1-0.4,0.2-0.7,0.2c-0.1,0.1-0.3,0.1-0.4,0.2c-0.2,0.1-0.4,0.2-0.6,0.3c-0.1,0.1-0.3,0.1-0.4,0.2c-0.3,0.1-0.5,0.2-0.8,0.3
	c-0.1,0-0.2,0.1-0.3,0.1c-0.3,0.1-0.7,0.3-1,0.4c-0.1,0-0.2,0.1-0.3,0.1c-0.2,0.1-0.5,0.2-0.7,0.3c-0.1,0-0.2,0.1-0.4,0.1
	c-0.2,0.1-0.5,0.2-0.7,0.3c-0.1,0-0.2,0.1-0.3,0.1c-0.3,0.1-0.6,0.2-0.8,0.4c-0.1,0-0.1,0.1-0.2,0.1c-0.3,0.2-0.7,0.3-1,0.5
	c-0.1,0-0.1,0-0.1,0.1c-0.3,0.1-0.6,0.3-0.9,0.4c-0.1,0-0.2,0.1-0.3,0.1c-0.3,0.1-0.5,0.2-0.8,0.3c-0.1,0-0.2,0.1-0.3,0.1
	c-0.3,0.1-0.6,0.3-0.8,0.4c-0.1,0-0.1,0.1-0.2,0.1c-0.7,0.3-1.4,0.7-2.1,1c-0.1,0-0.2,0.1-0.2,0.1c-0.3,0.1-0.5,0.3-0.8,0.4
	c-0.1,0-0.2,0.1-0.3,0.1c-0.3,0.1-0.6,0.3-0.9,0.4c0,0-0.1,0-0.1,0.1c-0.7,0.4-1.4,0.7-2.1,1.1c-0.1,0-0.1,0.1-0.2,0.1
	c-0.3,0.2-0.6,0.3-0.9,0.5c-0.1,0-0.1,0.1-0.2,0.1c-0.3,0.2-0.6,0.3-0.9,0.5c0,0-0.1,0.1-0.1,0.1c-0.7,0.4-1.4,0.7-2.1,1.1
	c0,0-0.1,0-0.1,0c-0.3,0.2-0.6,0.3-0.9,0.5c-0.1,0-0.1,0.1-0.2,0.1c-0.3,0.2-0.6,0.3-0.9,0.5c0,0-0.1,0-0.1,0.1c-1,0.6-2,1.2-3,1.8
	c0,0-0.1,0.1-0.1,0.1c-0.3,0.2-0.6,0.4-0.9,0.5c0,0-0.1,0.1-0.1,0.1c-1,0.6-2,1.2-3,1.9c0,0-0.1,0-0.1,0.1c-0.3,0.2-0.6,0.4-0.9,0.6
	c0,0,0,0-0.1,0l-12.8-22.1C63.7,107.5,63.6,107.3,63.7,107z M191.8,423.9c-5.3,0-10.6,0.2-15.5,0.4c-2.2,0.1-4.2,0.1-6,0.1
	C86.9,424.4,19,356.5,19,273.1c0-24.2,5.5-47.3,16.4-68.7C45.8,184,61,165.9,79.4,152c5.5-4.2,11.3-7.9,17.3-11.3
	c0.4-0.2,0.7-0.4,1.1-0.6c0.3-0.2,0.6-0.3,0.9-0.5c9.5-5.1,19.6-9.2,30-12.2h0c13.5-3.8,27.5-5.8,41.6-5.8c0.3,0,0.7,0,1,0
	c82.9,0.5,150.4,68.4,150.4,151.3c0,22.4-4.7,44-14.2,64.1c-1.4,3.1-1.2,6.7,0.6,9.6c1.8,2.9,5,4.6,8.4,4.6h19.9l4,28.3l5.1,35.8
	c0,0.1,0,0.1,0,0.2l1.2,8.3L191.8,423.9L191.8,423.9z M360.9,381.6h81.1V404h-78L360.9,381.6z M490,384.1c0,11-9,20-20,20h-8v-32.4
	c0-0.1,0-0.1,0-0.2v-48.3c0-8.9,7.2-16.1,16.1-16.1H490V384.1z"/>
<path class="measuring-tape" d="M227.5,203.4L227.5,203.4c5.5,0,10-4.5,10-10c0-5.5-4.5-10-10-10c-5.5,0-10,4.5-10,10
	C217.5,198.9,222,203.4,227.5,203.4z"/>
</svg>
