<svg version="1.1" class="painting" id="Layer_1" xmlns="http://www.w3.org/2000/svg" xmlns:xlink="http://www.w3.org/1999/xlink" x="0px" y="0px"
	 viewBox="0 0 295.2 295.2" style="enable-background:new 0 0 295.2 295.2;" xml:space="preserve">
<g>
	<g>
		<g>
			<path class="painting" d="M271.4,157.1L271.4,157.1h23.8V119h-23.8v-14.3H157.1v-5c24-2.4,42.9-22.7,42.9-47.4V0h-95.2v52.4
				c0,16.8,8.7,31.5,21.9,40l-18.6,12.4h-3.3c-7.9,0-14.3,6.4-14.3,14.3v4.8H61.9v38.1h28.6c0,7.9,6.4,14.3,14.3,14.3h42.9v28.6
				c0,0.2-0.2,23.8-14.3,23.8v9.5c18.8,0,23.8-21.8,23.8-33.3v-28.6h11.3l38.4,76.9l5-1.1l20,20l19.1-4.8
				c-3.1,7-13.3,18.6-46.2,18.6H0v9.5h204.8c47.8,0,55.6-22.9,56.9-30.7l14.5-3.6v-22.7l6.8-1.4l-29.4-65.3h17.9L271.4,157.1
				L271.4,157.1z M271.4,128.6h14.3v19h-14.3V128.6z M90.5,152.4h-19v-19h19C90.5,133.3,90.5,152.4,90.5,152.4z M147.6,166.7h-42.9
				c-2.6,0-4.8-2.1-4.8-4.8v-38.1V119c0-2.6,2.1-4.8,4.8-4.8h42.9V166.7z M147.6,104.8h-22.4l11.3-7.5c3.5,1.3,7.2,2.1,11.1,2.5
				V104.8z M152.4,90.5c-21,0-38.1-17.1-38.1-38.1V9.5h76.2v42.9C190.5,73.4,173.4,90.5,152.4,90.5z M266.7,253.4l-31.9,8L223,249.6
				l43.7-9.4V253.4z M249.3,161.9l-11.6-25.8L229,140l40.4,89.9l-57.3,12.3l-37.8-75.5h-17.2v-52.4h104.8v4.8v38.1v4.8H249.3z"/>
			<rect x="19" y="138.1" class="painting" width="33.3" height="9.5"/>
			<rect y="138.1" class="painting" width="9.5" height="9.5"/>
			<rect x="25" y="74" transform="matrix(0.7071 -0.7071 0.7071 0.7071 -66.2012 52.0757)" class="painting" width="9.5" height="64"/>
			
				<rect x="-5.1" y="176.2" transform="matrix(0.7071 -0.7071 0.7071 0.7071 -119.5843 73.2037)" class="painting" width="67.3" height="9.5"/>
			<rect x="166.7" y="123.8" class="painting" width="9.5" height="9.5"/>
			<rect x="185.7" y="123.8" class="painting" width="9.5" height="9.5"/>
			<rect x="9.5" y="114.3" class="painting" width="9.5" height="9.5"/>
			<rect x="9.5" y="161.9" class="painting" width="9.5" height="9.5"/>
			<path class="painting" d="M181,28.6h-57.1v23.8c0,15.8,12.8,28.6,28.6,28.6S181,68.1,181,52.4V28.6z M171.4,52.4c0,10.5-8.5,19-19,19
				c-10.5,0-19-8.5-19-19V38.1h38.1V52.4z"/>
		</g>
	</g>
</g>
</svg>
