<svg version="1.1" class="pay" id="Capa_1" xmlns="http://www.w3.org/2000/svg" xmlns:xlink="http://www.w3.org/1999/xlink" x="0px" y="0px"
	 viewBox="0 0 480 480" style="enable-background:new 0 0 480 480;" xml:space="preserve">
<g>
	<g>
		<path class="pay" d="M472,48H320c-4.4,0-8,3.6-8,8v24h-24c-4.4,0-8,3.6-8,8v91.1L222.1,208H8c-4.4,0-8,3.6-8,8v208
			c0,4.4,3.6,8,8,8h160c4.4,0,8-3.6,8-8v-22.6l86.7,14.4c0.4,0.1,0.9,0.1,1.3,0.1h120c11.4,0,21.9-6.1,27.6-16H440c4.4,0,8-3.6,8-8
			v-24h24c4.4,0,8-3.6,8-8V56C480,51.6,476.4,48,472,48z M160,416H16V224h144V416z M328,64h136v175.1c-0.1-5-1.5-10.1-4.2-14.8
			c-2.8-4.9-6.9-9-11.8-11.8V88c0-4.4-3.6-8-8-8H328V64z M296,96h136v112h-16v-72c0-4.4-3.6-8-8-8s-8-3.6-8-8s-3.6-8-8-8h-56
			c-4.4,0-8,3.6-8,8s-3.6,8-8,8s-8,3.6-8,8v72h-16V96z M400,142.6V208h-72v-65.4c6.8-2.4,12.2-7.8,14.6-14.6h42.7
			C387.8,134.8,393.2,140.2,400,142.6z M432,384h-16c0-6.3-1.9-12.5-5.4-17.8c16.7-5.8,25.5-24.1,19.6-40.8c-0.9-2.5-2.1-5-3.6-7.2
			c1.9-0.7,3.7-1.5,5.4-2.6V384z M432,256h-32c-4.4,0-8,3.6-8,8s3.6,8,8,8h16c8.8,0,16,7.2,16,16s-7.2,16-16,16h-32
			c-4.4,0-8,3.6-8,8s3.6,8,8,8h16c8.8,0,16,7.2,16,16s-7.2,16-16,16h-32c-4.4,0-8,3.6-8,8s3.6,8,8,8h16c8.8,0,16,7.2,16,16
			s-7.2,16-16,16H264.7L176,385.2V224h48c1.2,0,2.5-0.3,3.6-0.8l52.4-26.2V216c0,4.4,3.6,8,8,8h144c8.8,0,16,7.2,16,16
			S440.8,256,432,256z M448,352v-84.4c10-5.7,15.7-16,16-26.6v111H448z"/>
	</g>
</g>
<g>
	<g>
		<path class="pay" d="M112,336c-17.7,0-32,14.3-32,32s14.3,32,32,32s32-14.3,32-32S129.7,336,112,336z M112,384
			c-8.8,0-16-7.2-16-16s7.2-16,16-16s16,7.2,16,16S120.8,384,112,384z"/>
	</g>
</g>
</svg>
