<svg version="1.1" class="right-hover" id="Capa_1" xmlns="http://www.w3.org/2000/svg" xmlns:xlink="http://www.w3.org/1999/xlink" x="0px" y="0px"
	 viewBox="0 0 495 223.5" style="enable-background:new 0 0 495 223.5;" xml:space="preserve">
<g>
	<g>
		<path class="right-hover" d="M392.4,219.7l98.9-98.9c5-5,5-13.1,0-18.1L392.4,3.8c-2.5-2.5-5.8-3.8-9.1-3.8c-3.3,0-6.6,1.3-9.1,3.8
			c-5,5-5,13.1,0,18.1l77,77H12.9C5.8,98.9,0,104.7,0,111.8c0,7.1,5.8,12.9,12.9,12.9h438.4l-77,76.9c-5,5-5,13.1,0,18.1
			S387.5,224.7,392.4,219.7z"/>
	</g>
</g>
</svg>
