<?xml version="1.0" encoding="utf-8"?>
<!-- Generator: Adobe Illustrator 22.1.0, SVG Export Plug-In . SVG Version: 6.00 Build 0)  -->
<svg version="1.1" id="Layer_1" xmlns="http://www.w3.org/2000/svg" xmlns:xlink="http://www.w3.org/1999/xlink" x="0px" y="0px"
	 viewBox="0 0 512 512" style="enable-background:new 0 0 512 512;" xml:space="preserve">
<style type="text/css">
	.st0{fill:#FFFFFF;}
</style>
<g>
	<g>
		<path class="st0" d="M174.5,302.5H81.5c-7,0-11.6,4.7-11.6,11.6s4.7,11.6,11.6,11.6h93.1c7,0,11.6-4.7,11.6-11.6
			S181.5,302.5,174.5,302.5z"/>
	</g>
</g>
<g>
	<g>
		<path class="st0" d="M139.6,244.4H46.5c-7,0-11.6,4.7-11.6,11.6c0,7,4.7,11.6,11.6,11.6h93.1c7,0,11.6-4.7,11.6-11.6
			S146.6,244.4,139.6,244.4z"/>
	</g>
</g>
<g>
	<g>
		<path class="st0" d="M104.7,186.2H11.6c-7,0-11.6,4.7-11.6,11.6s4.7,11.6,11.6,11.6h93.1c7,0,11.6-4.7,11.6-11.6
			S111.7,186.2,104.7,186.2z"/>
	</g>
</g>
<g>
	<g>
		<path class="st0" d="M463.1,155.9c-3.5-4.7-11.6-5.8-16.3-2.3l-123.3,94.3c-12.8,9.3-30.3,9.3-43.1,0l-123.3-94.3
			c-4.7-3.5-12.8-3.5-16.3,2.3c-3.5,4.7-3.5,12.8,2.3,16.3l124.5,94.3c10.5,8.1,23.3,11.6,34.9,11.6s25.6-3.5,34.9-11.6l123.3-94.3
			C465.5,168.7,466.6,160.6,463.1,155.9z"/>
	</g>
</g>
<g>
	<g>
		<path class="st0" d="M477.1,104.7H104.7c-7,0-11.6,4.7-11.6,11.6s4.7,11.6,11.6,11.6h372.4c7,0,11.6,4.7,11.6,11.6v232.7
			c0,7-4.7,11.6-11.6,11.6H104.7c-7,0-11.6,4.7-11.6,11.6c0,7,4.7,11.6,11.6,11.6h372.4c19.8,0,34.9-15.1,34.9-34.9V139.6
			C512,119.9,496.9,104.7,477.1,104.7z"/>
	</g>
</g>
<g>
	<g>
		<path class="st0" d="M462,340.9l-69.8-69.8c-4.7-4.7-11.6-4.7-16.3,0s-4.7,11.6,0,16.3l69.8,69.8c2.3,2.3,5.8,3.5,8.1,3.5
			s5.8-1.2,8.1-3.5C466.6,352.6,466.6,345.6,462,340.9z"/>
	</g>
</g>
</svg>
