<svg version="1.1" class="shield" id="Слой_1" xmlns="http://www.w3.org/2000/svg" xmlns:xlink="http://www.w3.org/1999/xlink" x="0px" y="0px"
	 viewBox="0 0 368 368" style="enable-background:new 0 0 368 368;" xml:space="preserve">
<path class="shield" d="M336,296V8c0-4.4-3.6-8-8-8H40c-4.4,0-8,3.6-8,8v288c0,3.2,1.9,6,4.8,7.3l144,64c1,0.5,2.1,0.7,3.2,0.7
	s2.2-0.2,3.2-0.7l144-64C334.1,302,336,299.2,336,296z M320,290.8l-136,60.4L48,290.8V64h272V290.8z M320,48H48V16h272V48z"/>
<path class="shield" d="M184,288c48.5,0,88-39.5,88-88c0-22.3-8.4-42.7-22.2-58.2l21-33.5c2.3-3.7,1.2-8.7-2.5-11
	c-3.8-2.3-8.7-1.2-11,2.5l-19.3,30.9C223,119,204.3,112,184,112c-48.5,0-88,39.5-88,88S135.5,288,184,288z M184,128
	c17.2,0,33,6.1,45.4,16.2l-45.7,73l-25.1-37.7c-2.5-3.7-7.4-4.7-11.1-2.2c-3.7,2.4-4.7,7.4-2.2,11.1l32,48c1.5,2.2,4,3.6,6.7,3.6
	h0.1c2.7,0,5.2-1.5,6.7-3.8l50.1-80.2c9.4,12.2,15.1,27.4,15.1,44c0,39.7-32.3,72-72,72s-72-32.3-72-72C112,160.3,144.3,128,184,128
	z"/>
</svg>
