<svg version="1.1" class="smartphone" id="Capa_1" xmlns="http://www.w3.org/2000/svg" xmlns:xlink="http://www.w3.org/1999/xlink" x="0px" y="0px"
	 viewBox="0 0 512 512" style="enable-background:new 0 0 512 512;" xml:space="preserve">
<g>
	<path class="smartphone" d="M302.9,264.5c-4.7,0-8.5,3.8-8.5,8.5v119.5h-256V68.3h256v119.4c0,4.7,3.8,8.5,8.5,8.5c4.7,0,8.5-3.8,8.5-8.5
		V37.6c0-20.7-16.9-37.6-37.6-37.6H58.9C38.2,0,21.3,16.9,21.3,37.6v436.8c0,20.7,16.9,37.6,37.6,37.6h214.9
		c20.7,0,37.6-16.9,37.6-37.6V273C311.5,268.3,307.7,264.5,302.9,264.5z M58.9,17.1h214.9c11.3,0,20.5,9.2,20.5,20.5v13.6h-256V37.6
		C38.4,26.3,47.6,17.1,58.9,17.1z M273.9,494.9H58.9c-11.3,0-20.5-9.2-20.5-20.5v-64.8h256v64.8
		C294.4,485.7,285.2,494.9,273.9,494.9z"/>
	<path class="smartphone" d="M166.4,418.1c-18.8,0-34.1,15.3-34.1,34.1s15.3,34.1,34.1,34.1s34.1-15.3,34.1-34.1S185.2,418.1,166.4,418.1z
		 M166.4,469.3c-9.4,0-17.1-7.7-17.1-17.1s7.7-17.1,17.1-17.1s17.1,7.7,17.1,17.1S175.8,469.3,166.4,469.3z"/>
	<path class="smartphone" d="M132.3,42.7h34.1c4.7,0,8.5-3.8,8.5-8.5s-3.8-8.5-8.5-8.5h-34.1c-4.7,0-8.5,3.8-8.5,8.5S127.6,42.7,132.3,42.7
		z"/>
	<path class="smartphone" d="M192,42.7h8.5c4.7,0,8.5-3.8,8.5-8.5s-3.8-8.5-8.5-8.5H192c-4.7,0-8.5,3.8-8.5,8.5S187.3,42.7,192,42.7z"/>
	<path class="smartphone" d="M490,233.7c0.9-2.1,0.9-4.4,0-6.5c-0.4-1-1.1-2-1.9-2.8L385.8,122c-3.3-3.3-8.7-3.3-12.1,0
		c-3.3,3.3-3.3,8.7,0,12.1l87.8,87.8H157.9c-4.7,0-8.5,3.8-8.5,8.5s3.8,8.5,8.5,8.5h303.7l-87.8,87.8c-3.3,3.3-3.3,8.7,0,12.1
		c1.7,1.7,3.8,2.5,6,2.5s4.4-0.8,6-2.5l102.4-102.4C489,235.7,489.6,234.7,490,233.7z"/>
</g>
</svg>
