<svg version="1.1" id="Layer_1" class="telegram" xmlns="http://www.w3.org/2000/svg" xmlns:xlink="http://www.w3.org/1999/xlink" x="0px" y="0px"
	 viewBox="0 0 512 512" style="enable-background:new 0 0 512 512;" xml:space="preserve">

<g>
	<g>
	</g>
</g>
<g>
	<g>
		<path class="telegram" d="M372.3,108.6l-154.2,71.8c-4,1.9-5.8,6.6-3.9,10.7s6.6,5.8,10.6,3.9l95.1-44.3L273.8,188l-106.1,85.9
			l-58-25.4l81.3-37.9c4-1.9,5.8-6.6,3.9-10.7c-1.9-4-6.6-5.8-10.6-3.9l-87.5,40.8c-4.7,2.2-7.6,6.9-7.5,12c0.1,5,3.1,9.5,7.7,11.5
			l64.8,28.4l19,113.9c1.2,7,10.7,9,14.6,3.1l53.8-82.2L351,371.1c8.2,3.8,17.9-2,18.4-11l14.3-243.8c0-0.2,0-0.5,0-0.7
			C383.6,109.9,377.5,106.2,372.3,108.6z M190,360.9l-12.4-74.4L304,184.2l-96.7,108.4c-0.9,1-1.5,2.2-1.8,3.5L190,360.9z
			 M207,358.6l11.7-49.2l15.7,7.3L207,358.6z M243.4,303.2l-17-7.9l83.5-93.6l-12.1,18.4L243.4,303.2z M353.6,354.6L258.1,310
			l107.9-164.7L353.6,354.6z"/>
	</g>
</g>
</svg>
