<svg version="1.1" class="vk" id="Слой_1" xmlns="http://www.w3.org/2000/svg" xmlns:xlink="http://www.w3.org/1999/xlink" x="0px" y="0px"
	 viewBox="0 0 512 511" style="enable-background:new 0 0 512 511;" xml:space="preserve">
<path class="vk" d="M455.7,306.1l-0.3-0.3c-4.4-4-17.8-17.1-22.3-22.8c-5.3-7.1-4.1-11.8-0.1-18.7c5-8.8,15.1-22.3,25.7-36.7
	c34.1-45.9,56.1-77.6,51.6-100.1l-2.4-12L382,115.6c-0.4,1.2-7,30.1-34.7,79.2c-20.1,35.6-33.3,46.8-37.9,48.8l-0.7-0.2
	c-1.5-1.9-4.2-6.9-5.2-19.9c-1.1-13.6-0.1-30.1,0.8-46c1.1-18.7,2.1-34.8-0.2-46.4l-3.8-18.8c-4.6-0.7-21.5-7.3-68.7-7.8
	c-40.8-0.4-52.8,5.5-58.7,10.7l-19.5,17.2l24.6,8.3c9.4,3.2,12.5,6.8,15,24.8c1.7,11.8,2.5,31.5,0.7,49.1c-2.6,25.3-8.8,30-9.1,30.2
	c-1.1-0.4-10.1-4.3-25.8-37.5c-10.9-23-20.4-50.3-27.4-70.1c-8-22.8-6.5-17.9-10.6-28.7l-121.8,0l7.9,20.4
	c32.9,85.1,63,151.5,103.4,199.3c44.6,52.7,100,80.3,174.6,80.3h15v-15c0-14,1.2-24.1,3.6-31.8c1.5-4.7,3.5-8.5,5.7-12.6
	c3.1-6,6.2-8.5,7.9-8.9c1.5-0.3,4.2,0.8,7.2,3c8.5,6.4,15.3,14.7,22.5,23.6c10.3,12.8,21,26,38,34.6c9.3,4.7,26.3,7.1,35.6,7.1
	c2.5,0,90.6,0,90.7,0l-0.6-15.6C509.4,369.5,491,340.3,455.7,306.1z M420.9,378.5h-0.2c-6.4,0.1-18.7-2-22.3-3.8
	c-11.3-5.7-19.2-15.5-28.3-26.7c-8-9.9-16.3-20.1-27.8-28.7c-9.3-7-17.8-9-24.5-9c-2.7,0-5.1,0.3-7.2,0.8c-7.8,1.8-19,7.4-27.9,24.2
	c-2.5,4.8-5.3,10.2-7.6,17.3c-2.4,7.4-3.9,15.6-4.6,25.6c-56.2-3.2-100.1-25.4-137.2-69.3C98.7,268,71.6,211,42.8,138.5
	c2.1,0,54.2,0,57.2,0c0.9,2.6,2,5.5,3,8.6c7.5,21.4,17.8,50.8,30,75.9c17.4,35.9,33.3,51.9,51.5,51.9c9.1,0,17.2-3.9,23.6-11.1
	c9-10.4,14.3-27.6,16-52.5c1.4-19.6,0.1-39.2-1.4-50c-1.3-8.9-3.1-18.2-7.4-26.5c18.6-0.8,43.6,0.5,59.4,2.8
	c1.4,7.8,0.5,23.2-0.4,38.1c-2.2,36-4.5,73.1,14.6,90.4c3.3,3.1,6.9,4.7,7,4.8l9.7,3c3.7-1.2,25.4,9.8,66.4-61.7
	c13.1-22.9,25.4-49.3,32-66.6c15.3,0,67.3,0,73.4,0c-8.7,19.1-29.2,46.2-42.6,64.3c-11.7,15.7-21.8,29.3-27.7,39.7
	c-11,19.3-9.2,36.6,2.3,51.8l0.2,0.2c6.4,8.1,22.2,23.2,25.5,26.3c23.7,23.1,35.2,39.6,40.6,50.7L420.9,378.5L420.9,378.5z"/>
</svg>
