<svg version="1.1" class="wood" id="Layer_1" xmlns="http://www.w3.org/2000/svg" xmlns:xlink="http://www.w3.org/1999/xlink" x="0px" y="0px"
	 viewBox="0 0 503.6 503.6" style="enable-background:new 0 0 503.6 503.6;" xml:space="preserve">
<g transform="translate(1 1)">
	<g>
		<g>
			<path class="wood" d="M497.6,167.6L254.2,58.5c-1.7-0.8-4.2-0.8-6.7,0L4,167.6c-3.4,0.8-5,4.2-5,7.6v260.2c0,5,3.4,8.4,8.4,8.4
				h50.4h67.1h125.9h125.9h67.1h50.4c5,0,8.4-3.4,8.4-8.4V175.2C502.6,171.8,500.9,169.3,497.6,167.6z M99.7,401.8
				c0-14.3,10.9-25.2,25.2-25.2s25.2,10.9,25.2,25.2S139.2,427,124.9,427C110.6,427,99.7,416,99.7,401.8z M99.7,334.6
				c0-14.3,10.9-25.2,25.2-25.2s25.2,10.9,25.2,25.2s-10.9,25.2-25.2,25.2C110.6,359.8,99.7,348.9,99.7,334.6z M376.7,359.8h-92.1
				c4.8-6.5,7.8-14.6,8.1-23.4c0-0.6,0-1.2,0-1.8s0-1.2,0-1.8c-0.4-8.8-3.3-16.8-8.1-23.4h92.1c14.3,0,25.2,10.9,25.2,25.2
				S391,359.8,376.7,359.8z M166.8,403.6c0-0.6,0-1.2,0-1.8s0-1.2,0-1.8c-0.4-8.8-3.3-16.8-8.1-23.4H217c-4.8,6.5-7.8,14.6-8.1,23.4
				c0,0.6,0,1.2,0,1.8s0,1.2,0,1.8c0.4,8.8,3.3,16.8,8.1,23.4h-58.4C163.5,420.4,166.5,412.4,166.8,403.6z M225.6,401.8
				c0-14.3,10.9-25.2,25.2-25.2s25.2,10.9,25.2,25.2S265.1,427,250.8,427C236.5,427,225.6,416,225.6,401.8z M276,334.6
				c0,14.3-10.9,25.2-25.2,25.2c-14.3,0-25.2-10.9-25.2-25.2s10.9-25.2,25.2-25.2C265.1,309.5,276,320.4,276,334.6z M208.9,332.8
				c0,0.6,0,1.2,0,1.8s0,1.2,0,1.8c0.4,8.8,3.3,16.8,8.1,23.4h-58.4c4.8-6.5,7.8-14.6,8.1-23.4c0-0.6,0-1.2,0-1.8s0-1.2,0-1.8
				c-0.4-8.8-3.3-16.8-8.1-23.4H217C212.2,316,209.2,324,208.9,332.8z M284.6,427c4.8-6.5,7.8-14.6,8.1-23.4c0-0.6,0-1.2,0-1.8
				s0-1.2,0-1.8c-0.4-8.8-3.3-16.8-8.1-23.4h92.1c14.3,0,25.2,10.9,25.2,25.2S391,427,376.7,427H284.6z M410.5,427
				c5.2-7,8.2-15.7,8.2-25.2c0-13.9-6.4-26-16.5-33.6c10.1-7.6,16.5-19.7,16.5-33.6c0-23.5-18.5-42-42-42H250.8H124.9
				c-23.5,0-42,18.5-42,42c0,13.9,6.4,26,16.5,33.6c-10.1,7.6-16.5,19.7-16.5,33.6c0,9.5,3,18.2,8.2,25.2h-25V284.3h369.3V427
				L410.5,427L410.5,427z M435.5,267.5H66.1v-42h369.3V267.5z M485.8,427h-33.6V275.9v-58.8c0-5-3.4-8.4-8.4-8.4H57.8
				c-5,0-8.4,3.4-8.4,8.4v58.8V427H15.8V180.2l235-104.9l235,104.9V427z"/>
			<path class="wood" d="M225.6,116.4c-14.3,0-25.2,10.9-25.2,25.2v25.2c0,14.3,10.9,25.2,25.2,25.2h25.2H276
				c14.3,0,25.2-10.9,25.2-25.2v-25.2c0-14.3-10.9-25.2-25.2-25.2h-25.2C250.8,116.4,225.6,116.4,225.6,116.4z M217.2,166.8v-25.2
				c0-5,3.4-8.4,8.4-8.4h16.8v42h-16.8C220.6,175.2,217.2,171.8,217.2,166.8z M284.4,141.6v25.2c0,5-3.4,8.4-8.4,8.4h-16.8v-42H276
				C281,133.2,284.4,136.5,284.4,141.6z"/>
		</g>
	</g>
</g>
</svg>
