<?xml version="1.0" standalone="no"?>
<!DOCTYPE svg PUBLIC "-//W3C//DTD SVG 1.1//EN" "http://www.w3.org/Graphics/SVG/1.1/DTD/svg11.dtd" >
<svg xmlns="http://www.w3.org/2000/svg" xmlns:xlink="http://www.w3.org/1999/xlink" version="1.1">
<metadata>
Created by FontForge 20150318 at Wed Jun 24 06:46:56 2015
 By uniteet7
(c) 1992, 1994, 1997, 2000, 2004 Adobe Systems Incorporated. All rights reserved. Protected by U.S. Patents D454,582.
</metadata>
<defs>
<font id="MyriadProBlackIt" horiz-adv-x="400" >
  <font-face 
    font-family="MyriadProBlackIt"
    font-weight="900"
    font-style="italic"
    font-stretch="normal"
    units-per-em="1000"
    panose-1="2 11 9 3 3 4 3 9 2 4"
    ascent="750"
    descent="-250"
    x-height="492"
    cap-height="674"
    bbox="-207 -250 1284 1002"
    underline-thickness="50"
    underline-position="-50"
    slope="-11"
    unicode-range="U+0020-FB04"
  />
<missing-glyph horiz-adv-x="500" 
d="M0 0v700h500v-700h-500zM250 395l170 255h-340zM280 350l170 -255v510zM80 50h340l-170 255zM50 605v-510l170 255z" />
    <glyph glyph-name="f_f_j" unicode="ffj" horiz-adv-x="904" 
d="M872 690l-44 -130q-55 22 -112 22q-101 0 -113 -72l-3 -18h293l-87 -469q-23 -124 -72 -177q-48 -55 -143 -55q-42 0 -74 8l19 129q11 -2 29 -2q26 0 43 19t27 76l65 342h-123l-68 -363h-171l69 363h-144l-68 -363h-170l68 363h-63l24 129h63l4 16q22 90 70 139
q60 60 159 60q54 0 89 -21l-54 -123q-16 7 -35 7q-21 0 -36 -13q-17 -17 -26 -54l-2 -11h145l4 16q22 102 98.5 156.5t192.5 54.5q90 0 146 -29z" />
    <glyph glyph-name="f_j" unicode="fj" horiz-adv-x="592" 
d="M559 690l-42 -130q-55 22 -112 22q-100 0 -114 -72l-3 -18h293l-87 -469q-23 -124 -72 -177q-48 -55 -143 -55q-42 0 -74 8l19 129q11 -2 30 -2q25 0 42 19t28 76l64 342h-123l-67 -363h-171l68 363h-63l24 129h63l3 16q22 102 98.5 156.5t193.5 54.5q91 0 145 -29z" />
    <glyph glyph-name="f_f" unicode="ff" horiz-adv-x="662" 
d="M750 709l-28 -135q-21 7 -45 7q-27 0 -46.5 -18.5t-25.5 -46.5l-5 -24h91l-24 -129h-90l-67 -363h-172l69 363h-144l-67 -363h-170l68 363h-63l24 129h63l3 13q22 93 71 144q58 58 157 58q43 0 78 -13l-46 -129q-15 5 -30 5q-47 0 -61 -63l-3 -15h145l4 25q19 102 84 156
q58 50 150 48q51 0 80 -12z" />
    <glyph glyph-name="f_f_i" unicode="ffi" horiz-adv-x="904" 
d="M872 690l-44 -130q-55 22 -112 22q-101 0 -113 -72l-3 -18h293l-93 -492h-170l68 363h-121l-67 -363h-172l69 363h-144l-68 -363h-170l68 363h-63l24 129h63l4 16q22 90 70 139q60 60 159 60q55 0 90 -21l-55 -123q-16 7 -35 7q-21 0 -36 -13q-17 -17 -26 -54l-2 -11h145
l4 16q22 102 98.5 156.5t192.5 54.5q90 0 146 -29z" />
    <glyph glyph-name="f_f_l" unicode="ffl" horiz-adv-x="904" 
d="M437 688l-50 -126q-19 8 -37 8q-22 0 -37 -15q-19 -19 -25 -51l-2 -12h144l4 21q17 96 100 156q72 52 197 52q49 0 104.5 -12t91.5 -33l-127 -676h-171l109 579q-13 10 -50 10q-34 0 -57 -23.5t-28 -58.5l-3 -15h77l-25 -129h-75l-69 -363h-170l68 363h-143l-68 -363
h-171l69 363h-63l24 129h63l2 11q19 93 71 145q59 59 157 59q52 0 90 -19z" />
    <glyph glyph-name="f_i" unicode="fi" horiz-adv-x="592" 
d="M196 0h-169l68 363h-63l24 129h63l4 16q19 102 96.5 156.5t194.5 54.5q90 0 146 -29l-44 -130q-55 22 -112 22q-101 0 -113 -72l-3 -18h293l-93 -492h-171l68 363h-121z" />
    <glyph glyph-name="f_l" unicode="fl" horiz-adv-x="592" 
d="M197 0h-171l68 363h-62l24 129h63l3 21q19 98 100 156q72 52 197 52q49 0 104.5 -12t91.5 -33l-127 -676h-170l108 579q-13 10 -50 10q-34 0 -57 -23.5t-28 -58.5l-3 -15h77l-25 -129h-75z" />
    <glyph glyph-name=".notdef" horiz-adv-x="500" 
d="M0 0v700h500v-700h-500zM250 395l170 255h-340zM280 350l170 -255v510zM80 50h340l-170 255zM50 605v-510l170 255z" />
    <glyph glyph-name=".null" horiz-adv-x="0" 
 />
    <glyph glyph-name="nonmarkingreturn" horiz-adv-x="333" 
 />
    <glyph glyph-name="space" unicode=" " horiz-adv-x="185" 
 />
    <glyph glyph-name="exclam" unicode="!" horiz-adv-x="284" 
d="M202 233h-130l58 441h182zM101 -11q-40 0 -65.5 26t-25.5 66q0 47 31.5 81t79.5 34q41 0 67.5 -26.5t26.5 -68.5q0 -49 -32 -80.5t-82 -31.5z" />
    <glyph glyph-name="quotedbl" unicode="&#x22;" horiz-adv-x="423" 
d="M112 692h155l-79 -293h-107zM323 692h155l-80 -293h-106z" />
    <glyph glyph-name="numbersign" unicode="#" horiz-adv-x="562" 
d="M234 276h86l32 100h-86zM146 0h-102l54 172h-81l18 104h98l33 100h-84l17 104h99l54 170h100l-54 -170h87l54 170h101l-54 -170h80l-17 -104h-96l-32 -100h82l-18 -104h-99l-53 -172h-102l54 172h-86z" />
    <glyph glyph-name="dollar" unicode="$" horiz-adv-x="562" 
d="M266 -89h-109l17 93q-46 3 -93 20t-73 37l53 129q72 -53 170 -53q41 0 65.5 14t24.5 38q0 22 -19 39.5t-65 37.5q-70 35 -111 76t-41 101q0 78 58 132.5t155 65.5l16 86h109l-15 -85q81 -3 138 -38l-54 -126q-64 38 -145 38q-36 0 -56.5 -14t-20.5 -34q0 -18 22 -35
t79 -44q137 -64 137 -176q0 -91 -64.5 -144t-159.5 -64z" />
    <glyph glyph-name="percent" unicode="%" horiz-adv-x="911" 
d="M284 661q70 0 112 -42t42 -113q0 -106 -63.5 -176.5t-157.5 -70.5q-70 0 -114 42t-44 116q0 102 63 173t162 71zM267 565q-36 0 -58 -52t-22 -99q0 -27 11.5 -43t31.5 -16q26 0 45.5 30.5t27 64.5t7.5 61q0 54 -43 54zM275 -11h-98l479 670h96zM722 391q70 0 111.5 -42
t41.5 -112q0 -106 -63.5 -176.5t-156.5 -70.5q-70 0 -114 42t-44 116q0 101 63 172t162 71zM704 295q-24 0 -43.5 -28t-27.5 -61.5t-8 -60.5t11.5 -43t30.5 -16q26 0 45.5 30.5t27 64t7.5 60.5q0 54 -43 54z" />
    <glyph glyph-name="ampersand" unicode="&#x26;" horiz-adv-x="700" 
d="M643 0h-201q-12 13 -32 39q-75 -50 -177 -50q-98 0 -158.5 48.5t-60.5 133.5q0 129 160 204v3q-36 59 -36 110q0 85 63 141t163 56q81 0 133.5 -43t52.5 -115q0 -56 -41.5 -99.5t-123.5 -82.5v-2q13 -20 42 -58.5t35 -46.5q54 61 89 159h155q-58 -168 -167 -265
q44 -62 104 -132zM283 116q30 0 60 20q-59 72 -110 149q-45 -37 -45 -84q0 -37 24.5 -61t70.5 -24zM348 576q-25 0 -41.5 -20.5t-16.5 -50.5q0 -39 29 -73q33 15 56.5 39.5t23.5 54.5q0 22 -13 36t-38 14z" />
    <glyph glyph-name="quotesingle" unicode="'" horiz-adv-x="212" 
d="M112 692h155l-80 -292h-106z" />
    <glyph glyph-name="parenleft" unicode="(" horiz-adv-x="328" 
d="M251 689h124q-82 -105 -132.5 -244.5t-50.5 -287.5q0 -155 35 -273h-119q-51 123 -51 264q0 166 51.5 304.5t142.5 236.5z" />
    <glyph glyph-name="parenright" unicode=")" horiz-adv-x="328" 
d="M91 -116h-125q81 106 132 246t51 288q0 158 -35 271h121q49 -120 49 -263q0 -166 -51.5 -305t-141.5 -237z" />
    <glyph glyph-name="asterisk" unicode="*" horiz-adv-x="469" 
d="M352 685l95 -57l-128 -128l1 -2l170 38l-22 -118l-156 32l-1 -2l100 -125l-108 -58l-37 160l-2 -1l-71 -159l-93 60l127 125l-1 1l-167 -33l22 118l150 -38v2l-96 129l109 56l35 -159h3z" />
    <glyph glyph-name="plus" unicode="+" horiz-adv-x="596" 
d="M240 532h113v-211h202v-108h-202v-213h-113v213h-202v108h202v211z" />
    <glyph glyph-name="comma" unicode="," horiz-adv-x="281" 
d="M57 -108l-122 -10q83 169 121 304l181 10q-78 -170 -180 -304z" />
    <glyph glyph-name="hyphen" unicode="-" horiz-adv-x="328" 
d="M43 318h268l-23 -117h-268z" />
    <glyph glyph-name="period" unicode="." horiz-adv-x="281" 
d="M108 -9q-41 0 -66.5 26.5t-25.5 67.5q0 48 32 82t81 34q41 0 67.5 -26.5t26.5 -69.5q0 -51 -32 -82.5t-83 -31.5z" />
    <glyph glyph-name="slash" unicode="/" horiz-adv-x="326" 
d="M83 -40h-117l325 725h117z" />
    <glyph glyph-name="zero" unicode="0" horiz-adv-x="562" 
d="M351 661q103 0 151 -65t48 -166q0 -77 -19 -153t-56 -141.5t-98.5 -106t-138.5 -40.5q-101 0 -150.5 66t-49.5 173q0 77 20 152.5t57 139t98.5 102.5t137.5 39zM331 526q-31 0 -56.5 -37.5t-39.5 -89.5t-21.5 -99.5t-7.5 -76.5q0 -99 52 -99q31 0 56.5 38t39.5 91
t21 100.5t7 76.5q0 96 -51 96z" />
    <glyph glyph-name="one" unicode="1" horiz-adv-x="562" 
d="M184 0l92 492h-2l-134 -56l-3 133l195 81h138l-122 -650h-164z" />
    <glyph glyph-name="two" unicode="2" horiz-adv-x="562" 
d="M462 0h-466l20 109l159 120q97 77 141.5 125.5t44.5 93.5q0 33 -23 51.5t-61 18.5q-81 0 -140 -35l-32 123q98 55 214 55q100 0 158.5 -51t58.5 -135q0 -46 -15.5 -87t-47 -76.5t-59.5 -60t-72 -56.5l-69 -48v-2h216z" />
    <glyph glyph-name="three" unicode="3" horiz-adv-x="562" 
d="M5 35l50 133q72 -36 151 -36q51 0 82.5 18.5t31.5 51.5q0 75 -131 75h-22l25 129h18q57 0 97 17.5t40 50.5q0 19 -18.5 32t-55.5 13q-83 0 -139 -30l-21 127q83 45 194 45q92 0 156.5 -39t64.5 -119q0 -58 -40.5 -100t-104.5 -57l-1 -2q51 -10 83 -47.5t32 -93.5
q0 -100 -88.5 -157t-204.5 -57q-65 0 -120 13t-79 33z" />
    <glyph glyph-name="four" unicode="4" horiz-adv-x="562" 
d="M416 0h-159l29 148h-277l22 114l293 388h215l-70 -372h71l-24 -130h-71zM197 278h113l24 108q5 22 17 68.5t17 68.5h-4q-73 -112 -91 -137l-75 -106z" />
    <glyph glyph-name="five" unicode="5" horiz-adv-x="562" 
d="M553 650l-30 -145h-232l-21 -73q10 1 26 1q87 0 143 -43q69 -51 69 -145q0 -120 -90 -188t-225 -68q-61 0 -110 11.5t-71 28.5l43 135q54 -32 138 -32q54 0 96 21t42 64q0 42 -37 65t-126 23q-29 0 -83 -4l95 349h373z" />
    <glyph glyph-name="six" unicode="6" horiz-adv-x="562" 
d="M531 658l-26 -137q-14 2 -52 0q-84 -5 -138.5 -37.5t-78.5 -78.5l2 -2q50 37 123 37q71 0 120 -51.5t49 -133.5q0 -111 -76 -188.5t-193 -77.5q-112 0 -171 66t-59 169q0 106 43.5 196t115.5 146q115 89 288 94q16 1 53 -2zM266 119q42 0 65 37.5t23 79.5q0 36 -20 57
t-51 21q-49 0 -74 -47q-10 -16 -10 -34q-2 -12 -2 -28q0 -36 19 -61t50 -25z" />
    <glyph glyph-name="seven" unicode="7" horiz-adv-x="562" 
d="M114 650h464l-22 -112q-232 -358 -348 -538h-189q269 393 343 503l1 2h-276z" />
    <glyph glyph-name="eight" unicode="8" horiz-adv-x="562" 
d="M342 661q87 0 145.5 -42.5t58.5 -120.5q0 -96 -112 -148l-1 -2q41 -24 64 -62t23 -78q0 -70 -42.5 -121.5t-103.5 -74.5t-131 -23q-107 1 -167.5 48t-60.5 122q0 63 37 108.5t97 70.5l1 2q-63 46 -63 120q0 92 75 146.5t180 54.5zM264 112q30 0 53.5 21.5t23.5 57.5
q0 59 -71 85q-32 -9 -54 -34.5t-22 -60.5q0 -31 19 -50t51 -19zM323 538q-29 0 -50.5 -21t-21.5 -48q0 -48 67 -70q26 9 45.5 31t19.5 50q0 27 -17 42.5t-43 15.5z" />
    <glyph glyph-name="nine" unicode="9" horiz-adv-x="562" 
d="M45 -8l21 138q8 -1 61 -1q71 3 123 30q69 38 99 97l-2 1q-37 -36 -111 -36q-79 0 -130 48t-51 131q0 109 80 185t195 76q110 0 167.5 -64.5t57.5 -171.5q-1 -109 -46.5 -200.5t-117.5 -147.5q-105 -83 -270 -88q-22 0 -76 3zM315 531q-34 0 -59.5 -34.5t-25.5 -74.5
q0 -35 18.5 -55.5t47.5 -20.5q43 0 68 29q9 11 15 32q5 15 5 46q0 34 -18 56t-51 22z" />
    <glyph glyph-name="colon" unicode=":" horiz-adv-x="281" 
d="M167 299q-40 0 -65.5 26t-25.5 67q0 47 31.5 81t79.5 34q41 0 67.5 -26.5t26.5 -68.5q0 -50 -32 -81.5t-82 -31.5zM110 -11h-2q-40 0 -65.5 26t-25.5 67q0 47 31.5 81t79.5 34q41 0 67.5 -26.5t26.5 -68.5q0 -50 -32 -81.5t-80 -31.5z" />
    <glyph glyph-name="semicolon" unicode=";" horiz-adv-x="281" 
d="M57 -108l-121 -10q83 169 121 304l179 10q-77 -168 -179 -304zM171 299q-40 0 -65.5 26t-25.5 67q0 47 31.5 81t79.5 34q41 0 67.5 -26.5t26.5 -68.5q0 -50 -32 -81.5t-82 -31.5z" />
    <glyph glyph-name="less" unicode="&#x3c;" horiz-adv-x="596" 
d="M40 216v100l488 216v-122l-352 -143v-2l352 -143v-122z" />
    <glyph glyph-name="equal" unicode="=" horiz-adv-x="596" 
d="M552 319h-516v108h516v-108zM552 107h-516v108h516v-108z" />
    <glyph glyph-name="greater" unicode="&#x3e;" horiz-adv-x="596" 
d="M557 320v-108l-488 -212v122l362 143v2l-362 144v121z" />
    <glyph glyph-name="question" unicode="?" horiz-adv-x="460" 
d="M297 231h-166q1 10 3 26q13 78 87 158q10 12 34 35t34 36.5t10 25.5q0 35 -52 38q-66 0 -112 -28l-20 118q74 46 183 46q75 0 125.5 -37t50.5 -103q0 -29 -7.5 -54t-28 -51t-31.5 -38t-42 -42q-49 -49 -63 -107q-1 -4 -2.5 -11.5t-2.5 -11.5zM178 -11q-40 0 -65 26
t-25 66q0 47 31.5 81t79.5 34q41 0 67.5 -26.5t26.5 -68.5q0 -49 -32.5 -80.5t-82.5 -31.5z" />
    <glyph glyph-name="at" unicode="@" horiz-adv-x="762" 
d="M427 248l12 86q-10 3 -23 3q-42 0 -70.5 -37t-28.5 -88q0 -55 41 -55q23 0 43 25t26 66zM524 -6l18 -64q-81 -34 -185 -34q-130 0 -223 87t-93 229q0 157 106.5 268.5t271.5 111.5q133 0 220 -82t87 -208q0 -107 -54.5 -172.5t-140.5 -65.5q-78 0 -90 73h-3
q-45 -73 -123 -73q-51 0 -82.5 36t-31.5 97q0 95 63.5 162.5t169.5 67.5q80 0 123 -26l-27 -187q-12 -74 23 -75q34 -2 62.5 40.5t28.5 121.5q0 97 -62 160t-174 63q-116 0 -199 -83t-83 -218q0 -123 70 -190.5t185 -67.5q82 0 143 29z" />
    <glyph glyph-name="A" unicode="A" horiz-adv-x="640" 
d="M398 158h-177l-67 -158h-183l320 674h223l72 -674h-180zM269 287h123l-8 124q-5 91 -8 136h-2q-4 -10 -23.5 -62.5t-30.5 -74.5z" />
    <glyph glyph-name="B" unicode="B" horiz-adv-x="609" 
d="M15 8l123 654q79 17 191 17q111 0 172 -30q40 -17 65.5 -52t25.5 -80q0 -61 -36.5 -100t-94.5 -57v-2q49 -16 76.5 -54.5t27.5 -91.5q0 -100 -97 -162q-85 -55 -270 -55q-120 0 -183 13zM285 543l-25 -129h42q54 0 85 19t31 55q0 29 -22.5 44t-59.5 15q-38 0 -51 -4z
M234 290l-30 -160q14 -2 50 -2q56 0 93 22t37 65q0 75 -115 75h-35z" />
    <glyph glyph-name="C" unicode="C" horiz-adv-x="596" 
d="M524 155l12 -138q-60 -28 -178 -28q-139 0 -224 78t-85 211q0 118 49 205t133 138q100 63 244 63q96 0 148 -26l-44 -139q-49 19 -118 19q-83 0 -138 -42q-88 -68 -88 -199q0 -76 44.5 -119t123.5 -43q72 0 121 20z" />
    <glyph glyph-name="D" unicode="D" horiz-adv-x="696" 
d="M16 10l124 654q92 15 195 15q157 0 245 -66q100 -77 100 -223q0 -98 -38 -177.5t-102 -129.5q-60 -46 -138 -67t-193 -21q-131 0 -193 15zM289 540l-77 -404q17 -3 52 -3q109 0 170 73q60 74 60 184q0 75 -41 114t-116 39q-31 0 -48 -3z" />
    <glyph glyph-name="E" unicode="E" horiz-adv-x="538" 
d="M501 416l-28 -144h-237l-25 -127h267l-28 -145h-437l128 674h423l-28 -145h-252l-22 -113h239z" />
    <glyph glyph-name="F" unicode="F" horiz-adv-x="530" 
d="M14 0l128 674h418l-28 -145h-247l-25 -128h233l-28 -144h-232l-48 -257h-171z" />
    <glyph glyph-name="G" unicode="G" horiz-adv-x="695" 
d="M667 398l-70 -366q-123 -39 -231 -39q-139 0 -226 69q-92 74 -92 214q0 192 140 308q120 97 306 97q127 0 187 -30l-50 -143q-65 27 -143 27q-94 0 -156 -42q-44 -32 -70 -85t-26 -120q0 -76 42.5 -113.5t112.5 -37.5q38 0 61 9l22 117h-91l27 135h257z" />
    <glyph glyph-name="H" unicode="H" horiz-adv-x="683" 
d="M141 674h171l-48 -254h216l48 254h171l-127 -674h-172l51 268h-216l-51 -268h-170z" />
    <glyph glyph-name="I" unicode="I" horiz-adv-x="292" 
d="M138 674h170l-128 -674h-170z" />
    <glyph glyph-name="J" unicode="J" horiz-adv-x="414" 
d="M188 258l78 416h171l-84 -437q-25 -132 -88.5 -190t-186.5 -58q-78 0 -115 16l32 145q39 -11 79 -11q46 0 73.5 26.5t40.5 92.5z" />
    <glyph glyph-name="K" unicode="K" horiz-adv-x="623" 
d="M14 0l127 674h168l-54 -290h2q8 12 58 78l166 212h212l-268 -292l149 -382h-186l-98 277l-67 -65l-41 -212h-168z" />
    <glyph glyph-name="L" unicode="L" horiz-adv-x="507" 
d="M13 0l128 674h170l-99 -525h254l-28 -149h-425z" />
    <glyph glyph-name="M" unicode="M" horiz-adv-x="839" 
d="M741 0h-165l38 241q21 138 48 278h-2q-75 -175 -121 -270l-111 -235h-133l-13 234q-8 155 -12 271h-2q-55 -265 -58 -278l-56 -241h-156l167 674h230l8 -200q9 -205 9 -234h4q31 89 97 235l89 199h233z" />
    <glyph glyph-name="N" unicode="N" horiz-adv-x="681" 
d="M172 0h-158l127 674h203l61 -204q41 -140 62 -248h3q4 98 32 255l37 197h159l-127 -674h-179l-68 220q-49 165 -67 252h-3q-12 -97 -47 -286z" />
    <glyph glyph-name="O" unicode="O" horiz-adv-x="721" 
d="M425 685q131 0 205.5 -77.5t74.5 -205.5q0 -94 -31 -177t-88 -138q-103 -98 -258 -98q-129 0 -205 79.5t-76 204.5q0 93 32.5 176t90.5 138q103 98 255 98zM405 543q-57 0 -100 -43q-35 -35 -55.5 -99t-20.5 -124q0 -68 31.5 -107t93.5 -39q53 0 94 41q35 35 55 101
t20 124q0 66 -28 106t-90 40z" />
    <glyph glyph-name="P" unicode="P" horiz-adv-x="581" 
d="M14 0l125 661q74 18 188 18q120 0 185 -41q83 -50 83 -153q0 -125 -96 -196q-83 -62 -220 -62q-6 0 -54 4l-45 -231h-166zM283 541l-33 -172q30 -5 51 -5q54 0 88.5 31t34.5 74q0 75 -89 75q-37 0 -52 -3z" />
    <glyph glyph-name="Q" unicode="Q" horiz-adv-x="721" 
d="M651 0l-59 -133q-125 40 -260 106q-33 17 -48 19q-103 8 -170 84t-67 200q0 87 29.5 166.5t84.5 135.5q105 107 264 107q131 0 205 -80.5t74 -202.5q0 -87 -29.5 -169t-81.5 -134q-40 -40 -85 -61v-3q56 -17 143 -35zM406 543q-59 0 -100 -43q-35 -35 -56 -101t-21 -125
q0 -68 32 -105.5t93 -37.5q54 0 93 41q34 34 55 101.5t21 128.5q0 60 -28 100.5t-89 40.5z" />
    <glyph glyph-name="R" unicode="R" horiz-adv-x="610" 
d="M15 0l126 661q71 18 195 18q121 0 184 -34q85 -46 85 -141q0 -137 -149 -188l-1 -4q49 -25 60 -118q3 -20 8 -70t9.5 -80.5t10.5 -43.5h-175q-9 30 -21 158q-4 56 -23.5 76t-60.5 20h-31l-48 -254h-169zM287 542l-31 -161h53q51 0 85 27t34 70q0 33 -25.5 50t-65.5 17
q-35 0 -50 -3z" />
    <glyph glyph-name="S" unicode="S" horiz-adv-x="529" 
d="M-5 38l56 140q75 -42 166 -42q38 -1 64 14t26 43q0 24 -19.5 40.5t-68.5 42.5q-142 74 -142 180q0 104 80.5 166t201.5 62q101 0 169 -32l-53 -143q-61 30 -129 28q-43 0 -66 -15t-23 -38q0 -29 82 -74q9 -5 14 -8q136 -70 136 -178q0 -78 -42 -133t-105 -78.5
t-141 -23.5q-140 3 -206 49z" />
    <glyph glyph-name="T" unicode="T" horiz-adv-x="550" 
d="M139 0l98 525h-169l29 149h512l-29 -149h-172l-99 -525h-170z" />
    <glyph glyph-name="U" unicode="U" horiz-adv-x="670" 
d="M138 674h170l-73 -383q-7 -37 -7 -78q1 -34 23 -58t63 -24q53 0 84.5 37.5t47.5 121.5l73 384h171l-71 -375q-30 -160 -104.5 -235t-220.5 -75q-114 -1 -175 56t-61 165q0 41 10 96z" />
    <glyph glyph-name="V" unicode="V" horiz-adv-x="643" 
d="M363 0h-201l-83 674h176l22 -273q7 -76 17 -230h2q38 101 97 227l124 276h191z" />
    <glyph glyph-name="W" unicode="W" horiz-adv-x="879" 
d="M303 0h-190l-23 674h172l-5 -254q-5 -181 -7 -238h2q15 40 43 120t41 116l92 256h189l-9 -263q-5 -130 -10 -225h2q37 115 78 234l88 254h180l-290 -674h-188l1 230q0 115 8 237h-2q-67 -195 -88 -250z" />
    <glyph glyph-name="X" unicode="X" horiz-adv-x="590" 
d="M539 0h-182l-37 122q-4 16 -33 115h-2q-12 -21 -31.5 -59.5t-32.5 -62.5l-62 -115h-205l248 345l-115 329h180l31 -110q4 -16 14 -53.5t16 -62.5h3q13 24 32.5 62t29.5 57l57 107h203l-240 -331z" />
    <glyph glyph-name="Y" unicode="Y" horiz-adv-x="593" 
d="M317 0h-171l52 272l-133 402h183l33 -151q23 -113 25 -126h2q4 7 67 126l83 151h204l-293 -397z" />
    <glyph glyph-name="Z" unicode="Z" horiz-adv-x="567" 
d="M-28 0l18 97l362 427v3h-253l28 147h483l-20 -105l-353 -419v-3h278l-27 -147h-516z" />
    <glyph glyph-name="bracketleft" unicode="[" horiz-adv-x="328" 
d="M203 -112h-212l152 798h212l-18 -95h-87l-116 -608h87z" />
    <glyph glyph-name="backslash" unicode="\" horiz-adv-x="341" 
d="M315 -40h-115l-152 725h115z" />
    <glyph glyph-name="bracketright" unicode="]" horiz-adv-x="328" 
d="M134 686h212l-152 -798h-212l18 95h86l117 608h-87z" />
    <glyph glyph-name="asciicircum" unicode="^" horiz-adv-x="596" 
d="M549 172h-126l-137 342h-3l-137 -342h-124l211 478h105z" />
    <glyph glyph-name="underscore" unicode="_" horiz-adv-x="500" 
d="M-56 -75h500l-10 -50h-500z" />
    <glyph glyph-name="grave" unicode="`" 
d="M108 706h159l79 -156h-122z" />
    <glyph glyph-name="a" unicode="a" horiz-adv-x="568" 
d="M483 0h-156q1 14 2 42.5t2 42.5h-2q-55 -96 -155 -96q-67 0 -109.5 48t-42.5 127q0 64 21 122.5t62 108t112 79t162 29.5t176 -27l-53 -258q-22 -117 -19 -218zM343 273l20 99q-17 3 -31 3q-55 0 -93.5 -59.5t-38.5 -119.5q0 -34 13.5 -52t35.5 -18q28 0 53.5 34
t40.5 113z" />
    <glyph glyph-name="b" unicode="b" horiz-adv-x="576" 
d="M142 710h170l-54 -264h2q55 57 142 57q71 0 109.5 -49.5t38.5 -120.5q0 -63 -20.5 -122.5t-59.5 -110t-104.5 -81t-148.5 -30.5q-94 0 -140 37.5t-45 104.5q0 41 12 96zM221 250l-7 -35q-7 -36 -5 -52q2 -46 45 -46q46 0 81.5 58.5t35.5 119.5q0 70 -52 70
q-33 0 -60.5 -31t-37.5 -84z" />
    <glyph glyph-name="c" unicode="c" horiz-adv-x="440" 
d="M381 142l-2 -129q-51 -24 -138 -24q-94 0 -154.5 54t-60.5 153q0 134 93 220.5t236 86.5q57 0 99 -15l-41 -129q-24 9 -59 9q-67 0 -108 -44.5t-41 -108.5q0 -45 25 -67.5t60 -22.5q44 0 91 17z" />
    <glyph glyph-name="d" unicode="d" horiz-adv-x="575" 
d="M436 710h170l-96 -504q-21 -110 -24 -206h-156l4 72h-2q-55 -83 -153 -83q-64 0 -109.5 49t-45.5 139q0 133 86.5 229.5t224.5 96.5q29 0 59 -10zM348 244l22 115q-17 15 -47 15q-52 0 -86.5 -52.5t-34.5 -115.5q0 -41 16.5 -60.5t40.5 -19.5q27 0 51.5 28.5t37.5 89.5z
" />
    <glyph glyph-name="e" unicode="e" horiz-adv-x="523" 
d="M432 151l10 -122q-80 -39 -193 -39q-108 0 -165.5 54.5t-57.5 157.5q0 120 80.5 210.5t212.5 90.5q80 0 131.5 -41.5t51.5 -114.5q0 -177 -315 -168q3 -19 18 -32q29 -26 87 -26q77 0 140 30zM343 348q0 13 -12 22.5t-32 9.5q-42 0 -66.5 -24.5t-29.5 -53.5q76 -1 108 10
t32 36z" />
    <glyph glyph-name="f" unicode="f" horiz-adv-x="349" 
d="M195 0h-170l68 363h-62l24 129h63l4 25q19 101 84 156q57 48 150 48q51 0 80 -12l-28 -135q-21 7 -45 7q-27 0 -46.5 -18.5t-25.5 -46.5l-5 -24h91l-24 -129h-90z" />
    <glyph glyph-name="g" unicode="g" horiz-adv-x="573" 
d="M12 -179l38 130q19 -11 58.5 -18t69.5 -7q112 0 133 112l6 27h-2q-53 -59 -128 -59q-72 0 -116 50.5t-45 126.5q0 61 21.5 117.5t62 102t106 73t146.5 27.5q109 0 193 -34l-74 -404q-30 -160 -105 -218q-72 -56 -198 -56q-108 0 -166 30zM348 250l22 118q-15 5 -39 5
q-52 0 -88.5 -50.5t-36.5 -113.5q0 -35 15 -54t40 -19q29 0 53 29.5t34 84.5z" />
    <glyph glyph-name="h" unicode="h" horiz-adv-x="575" 
d="M177 0h-171l135 710h170l-51 -271l2 -1q65 65 147 65q62 0 93.5 -36t31.5 -98q0 -43 -10 -91l-52 -278h-171l50 263q6 28 6 58q0 45 -38 45q-33 0 -60.5 -40t-40.5 -110z" />
    <glyph glyph-name="i" unicode="i" horiz-adv-x="281" 
d="M176 0h-170l93 492h170zM201 542q-34 0 -56.5 21.5t-22.5 57.5q0 40 28 66t67 26q36 0 59 -21.5t23 -57.5q0 -43 -28.5 -67.5t-69.5 -24.5z" />
    <glyph glyph-name="j" unicode="j" horiz-adv-x="297" 
d="M118 492h170l-87 -469q-23 -124 -72 -177q-48 -55 -142 -55q-43 0 -76 8l19 129q11 -2 30 -2q25 0 42 19t28 76zM215 542q-34 0 -56.5 21.5t-22.5 57.5q0 40 28 66t67 26q36 0 59 -21.5t23 -57.5q0 -43 -28.5 -67.5t-69.5 -24.5z" />
    <glyph glyph-name="k" unicode="k" horiz-adv-x="562" 
d="M176 0h-170l134 710h170l-79 -416h2q15 20 43 58l106 140h210l-207 -203l132 -289h-190l-73 197l-51 -51z" />
    <glyph glyph-name="l" unicode="l" horiz-adv-x="281" 
d="M177 0h-170l136 710h170z" />
    <glyph glyph-name="m" unicode="m" horiz-adv-x="842" 
d="M171 0h-165l59 324q15 76 27 168h146l-7 -75h1q63 86 166 86q54 0 83.5 -27t33.5 -59q63 86 164 86q61 0 91 -35.5t30 -97.5q0 -42 -9 -85l-52 -285h-165l48 263q6 38 6 57q0 21 -9.5 34t-27.5 13q-32 0 -58.5 -42.5t-39.5 -114.5l-40 -210h-163l49 263q6 38 6 54
q0 50 -35 50q-33 0 -60.5 -43t-40.5 -114z" />
    <glyph glyph-name="n" unicode="n" horiz-adv-x="576" 
d="M176 0h-170l61 324q11 54 28 168h150l-8 -76h2q66 87 168 87q65 0 96 -36t31 -98q0 -38 -8 -84l-55 -285h-170l50 267q5 27 5 51q0 48 -37 48q-33 0 -61 -41t-42 -115z" />
    <glyph glyph-name="o" unicode="o" horiz-adv-x="575" 
d="M330 503q98 0 157 -57t59 -145q0 -141 -85.5 -226.5t-217.5 -85.5q-96 0 -156 55t-60 149q0 132 84.5 221t218.5 89zM308 374q-34 0 -59 -33t-35 -72t-10 -73q0 -37 16.5 -57.5t46.5 -20.5q33 0 57 31.5t34.5 71.5t10.5 78q0 33 -15 54t-46 21z" />
    <glyph glyph-name="p" unicode="p" horiz-adv-x="578" 
d="M139 -198h-170l94 493q14 73 29 202h152l-7 -68h2q57 74 150 74q77 0 119 -54t42 -136q0 -133 -78.5 -228.5t-205.5 -95.5q-54 0 -85 20h-2zM220 232l-15 -93q22 -22 54 -22q46 0 79 58t33 124q0 28 -12.5 47t-38.5 19q-36 0 -62 -36t-38 -97z" />
    <glyph glyph-name="q" unicode="q" horiz-adv-x="576" 
d="M434 -198h-170l60 262h-2q-52 -75 -144 -75q-67 0 -110.5 51t-43.5 138q0 47 12 93t39.5 88t66.5 74t97 51t128 19q65 0 193 -28zM349 249l23 116q-17 8 -46 8q-55 0 -90 -56t-35 -117q0 -36 14.5 -55t37.5 -19q31 0 57.5 31.5t38.5 91.5z" />
    <glyph glyph-name="r" unicode="r" horiz-adv-x="392" 
d="M177 0h-171l54 282q6 35 11 76.5t9 82t5 51.5h147q-4 -66 -7 -99h3q61 110 159 110q19 0 29 -1l-34 -166q-3 0 -10.5 0.5t-11.5 0.5q-69 0 -103 -45.5t-49 -123.5z" />
    <glyph glyph-name="s" unicode="s" horiz-adv-x="436" 
d="M-9 31l40 117q75 -35 138 -35q48 0 48 29q0 14 -13 25.5t-45 25.5q-110 53 -110 133t64.5 128.5t167.5 48.5q87 0 137 -26l-39 -119q-48 21 -104 21q-54 0 -54 -30q0 -20 56 -45q25 -12 41.5 -22.5t36.5 -27t30 -38.5t10 -48q0 -85 -66.5 -132t-175.5 -46q-112 3 -162 41
z" />
    <glyph glyph-name="t" unicode="t" horiz-adv-x="364" 
d="M134 584l175 48l-26 -140h100l-25 -129h-100l-28 -136q-7 -37 -7 -56q0 -38 40 -38q26 0 40 1l-22 -133q-32 -12 -94 -12q-68 0 -103.5 29.5t-35.5 80.5q0 37 10 91l34 173h-60l25 129h60z" />
    <glyph glyph-name="u" unicode="u" horiz-adv-x="575" 
d="M392 492h171l-61 -324q-11 -54 -28 -168h-150l7 75h-2q-71 -86 -168 -86q-63 0 -94 35.5t-31 100.5q0 36 10 94l52 273h171l-49 -259q-7 -35 -7 -62q0 -44 37 -44q33 0 60.5 39t40.5 108z" />
    <glyph glyph-name="v" unicode="v" horiz-adv-x="537" 
d="M43 492h176l14 -188q2 -35 6.5 -80t5.5 -60h4q7 21 55 142l78 186h191l-274 -492h-174z" />
    <glyph glyph-name="w" unicode="w" horiz-adv-x="745" 
d="M47 492h173l-6 -180q-2 -84 -7 -167h2q11 36 62 163l75 184h138l4 -177q2 -111 -1 -170h2q14 50 57 175l63 172h172l-238 -492h-160l-7 130q-2 54 -2 168h-2q-10 -27 -29 -80.5t-30 -79.5l-59 -138h-161z" />
    <glyph glyph-name="x" unicode="x" horiz-adv-x="524" 
d="M43 492h188l21 -60q18 -48 31 -84h3q9 15 26.5 42t25.5 39l39 63h195l-208 -239l114 -253h-187l-24 65q-24 71 -29 89h-3q-6 -10 -22 -37.5t-28 -47.5l-41 -69h-197l212 255z" />
    <glyph glyph-name="y" unicode="y" horiz-adv-x="522" 
d="M41 492h180l22 -193q2 -18 7 -57t7 -55h2q39 112 39 113l74 192h179l-171 -345q-102 -203 -198 -290q-39 -36 -85.5 -57.5t-78.5 -26.5l-37 147q42 11 81 35q50 32 73 73q6 10 2 24z" />
    <glyph glyph-name="z" unicode="z" horiz-adv-x="465" 
d="M-27 0l18 102l127 132q58 59 127 118l2 2h-193l27 138h397l-20 -107l-122 -127q-61 -64 -126 -118l-1 -2h212l-27 -138h-421z" />
    <glyph glyph-name="braceleft" unicode="{" horiz-adv-x="328" 
d="M31 243l16 89q75 4 86 65q5 24 10.5 76.5t9.5 76.5q26 136 177 136h44l-19 -96h-18q-51 -1 -66 -66q0 -1 -16 -116q-9 -57 -34.5 -83t-74.5 -36v-2q71 -16 71 -77q0 -34 -20 -96q-19 -74 -19 -90q0 -40 43 -40h18l-18 -96h-34q-67 0 -102.5 24.5t-35.5 82.5q0 34 23 109
q22 72 22 92q0 45 -63 47z" />
    <glyph glyph-name="bar" unicode="|" horiz-adv-x="250" 
d="M84 750h114v-1000h-114v1000z" />
    <glyph glyph-name="braceright" unicode="}" horiz-adv-x="328" 
d="M310 331l-16 -89q-75 -4 -86 -65q-5 -24 -10.5 -76.5t-9.5 -76.5q-26 -136 -177 -136h-44l19 96h18q51 1 66 65q3 14 5.5 30.5t5 42.5t5.5 44q9 57 34.5 83t74.5 36v2q-71 16 -71 77q0 15 19 96q19 74 19 90q0 40 -43 40h-18l18 96h34q67 0 102.5 -24.5t35.5 -82.5
q0 -36 -22 -108t-22 -93q0 -45 63 -47z" />
    <glyph glyph-name="asciitilde" unicode="~" horiz-adv-x="596" 
d="M152 184h-111q0 202 148 202q36 0 65 -11t74 -37q4 -3 13 -8t12.5 -7t10 -6t10 -5.5t8.5 -4.5t8 -4t7 -2t7.5 -1.5t6.5 -0.5q30 0 34 80h111q8 -204 -141 -204q-59 0 -149 56q-51 34 -73 34q-34 0 -41 -81z" />
    <glyph glyph-name="uni00A0" unicode="&#xa0;" horiz-adv-x="185" 
 />
    <glyph glyph-name="exclamdown" unicode="&#xa1;" horiz-adv-x="284" 
d="M149 -189h-182l110 441h130zM178 497q40 0 65.5 -26t25.5 -66q0 -47 -31.5 -81t-79.5 -34q-41 0 -67.5 26.5t-26.5 68.5q0 49 32 80.5t82 31.5z" />
    <glyph glyph-name="cent" unicode="&#xa2;" horiz-adv-x="562" 
d="M337 -10h-109l18 95q-75 15 -118 67q-43 54 -43 136q0 115 72.5 193t182.5 99l17 93h110l-17 -88q49 -2 84 -17l-49 -129q-30 15 -79 15q-61 0 -99.5 -40t-38.5 -102q0 -47 29 -72.5t73 -25.5q42 0 86 18l6 -127q-52 -21 -108 -23z" />
    <glyph glyph-name="sterling" unicode="&#xa3;" horiz-adv-x="562" 
d="M473 0h-464l16 95q36 12 71.5 43.5t50.5 65.5q13 25 10 53h-95l23 121h70q2 58 14 102q23 84 87 132.5t162 48.5q75 0 114 -26l-44 -130q-30 15 -74 15q-75 0 -91 -73q-7 -29 -5 -69h132l-23 -121h-113q-5 -28 -15 -50q-20 -42 -53 -61v-2h250z" />
    <glyph glyph-name="currency" unicode="&#xa4;" horiz-adv-x="562" 
d="M289 557q70 0 112 -33l81 87l76 -79l-92 -82q32 -53 32 -114q0 -66 -36 -119l91 -85l-75 -75l-78 90q-45 -37 -113 -37q-69 0 -114 37l-75 -91l-75 76l89 84q-36 51 -36 118t34 116l-92 82l76 79l80 -88q45 34 115 34zM286 443q-34 0 -60 -29.5t-26 -78.5q0 -51 27 -81
t60 -30q35 0 61 29.5t26 81.5q0 48 -26 78t-62 30z" />
    <glyph glyph-name="yen" unicode="&#xa5;" horiz-adv-x="562" 
d="M305 0h-158l28 153h-151l16 81h151l10 60h-151l15 81h112l-107 275h178l28 -140q17 -80 23 -116h2q9 15 30.5 54.5t34.5 62.5l81 139h188l-217 -275h112l-16 -81h-154l-11 -60h155l-16 -81h-153z" />
    <glyph glyph-name="brokenbar" unicode="&#xa6;" horiz-adv-x="250" 
d="M84 174h114v-350h-114v350zM84 674h114v-350h-114v350z" />
    <glyph glyph-name="section" unicode="&#xa7;" horiz-adv-x="580" 
d="M194 329q0 -42 70 -67q76 -27 101 -40q37 19 37 52q0 42 -48 63q-15 6 -59 23t-58 24q-16 -5 -29.5 -20t-13.5 -35zM554 647l-40 -102q-62 31 -140 31q-39 0 -61 -12t-22 -33q0 -16 20 -28t71 -29q78 -27 122 -64t44 -96q0 -48 -28.5 -86.5t-72.5 -62.5q30 -26 30 -72
q0 -60 -38.5 -102t-91.5 -58.5t-114 -16.5q-127 0 -203 53l45 103q71 -47 155 -47q40 0 62 11t22 31q0 18 -20.5 32t-70.5 32q-35 13 -60.5 25t-54 31t-43.5 44.5t-15 55.5q0 50 31.5 89.5t83.5 61.5q-27 29 -27 70q0 86 74.5 131.5t174.5 45.5q103 0 167 -38z" />
    <glyph glyph-name="dieresis" unicode="&#xa8;" 
d="M158 547q-31 0 -52.5 20t-21.5 53q0 38 24.5 61.5t61.5 23.5q33 0 53 -20.5t20 -53.5q0 -39 -24.5 -61.5t-60.5 -22.5zM373 547q-31 0 -52.5 20t-21.5 53q0 38 24.5 61.5t61.5 23.5q33 0 53 -20.5t20 -53.5q0 -39 -24.5 -61.5t-60.5 -22.5z" />
    <glyph glyph-name="copyright" unicode="&#xa9;" horiz-adv-x="672" 
d="M357 648q126 0 215 -90t89 -218q0 -129 -89 -219.5t-216 -90.5q-128 0 -219 90.5t-91 219.5q0 128 91 218t220 90zM354 585q-98 0 -167 -72t-69 -174q0 -103 69.5 -174.5t167.5 -71.5q97 -1 166 71t69 175q0 102 -69 174t-167 72zM490 492l-16 -61q-41 22 -95 22t-85 -30
t-31 -86q0 -51 32 -84t82 -33q64 0 101 25l16 -60q-49 -32 -125 -32q-86 0 -135.5 51t-49.5 130q0 83 58 134.5t137 51.5q35 0 68 -8.5t43 -19.5z" />
    <glyph glyph-name="ordfeminine" unicode="&#xaa;" horiz-adv-x="422" 
d="M388 268h-112v46h-1q-40 -53 -109 -53q-44 0 -74 31t-30 88q0 88 58.5 149.5t174.5 61.5q71 0 135 -25l-35 -198q-7 -44 -7 -100zM281 400l16 99q-15 6 -30 6q-36 0 -58 -33t-22 -67q0 -24 11 -37.5t29 -13.5t32.5 13.5t21.5 32.5z" />
    <glyph glyph-name="guillemotleft" unicode="&#xab;" horiz-adv-x="484" 
d="M273 446l-140 -196l93 -191h-115l-94 194l129 193h127zM479 446l-140 -196l93 -191h-115l-94 194l129 193h127z" />
    <glyph glyph-name="logicalnot" unicode="&#xac;" horiz-adv-x="596" 
d="M27 433h516v-333h-112v225h-404v108z" />
    <glyph glyph-name="uni00AD" unicode="&#xad;" horiz-adv-x="328" 
d="M43 318h268l-23 -117h-268z" />
    <glyph glyph-name="registered" unicode="&#xae;" horiz-adv-x="415" 
d="M244 484v-54h-55v156q30 6 74 6q47 0 67 -13q17 -10 17 -34q0 -11 -10.5 -21t-27.5 -14v-2q27 -9 34 -41q5 -22 11 -37h-61q-4 5 -11 32q-4 22 -24 22h-14zM246 554v-34h12q26 0 26 17q0 18 -24 18q-3 0 -7.5 -0.5t-6.5 -0.5zM265 686q75 0 127.5 -51.5t52.5 -124.5
t-52.5 -124.5t-128.5 -51.5t-129.5 51.5t-53.5 124.5t54 124.5t130 51.5zM262 639q-52 0 -87.5 -38t-35.5 -92t35.5 -91t88.5 -37q53 -1 89 36.5t36 92.5q0 54 -36 91.5t-90 37.5z" />
    <glyph glyph-name="macron" unicode="&#xaf;" 
d="M150 670h259l-18 -89h-259z" />
    <glyph glyph-name="degree" unicode="&#xb0;" horiz-adv-x="373" 
d="M242 685q68 0 111.5 -43t43.5 -106q0 -65 -49.5 -111t-115.5 -46q-68 0 -112 42t-44 106q-1 64 48.5 111t117.5 47zM239 606q-28 0 -49.5 -24t-21.5 -55t19.5 -50t49.5 -19q29 0 48.5 22.5t19.5 54.5q0 31 -17 51t-49 20z" />
    <glyph glyph-name="plusminus" unicode="&#xb1;" horiz-adv-x="596" 
d="M228 583h113v-164h202v-108h-202v-166h-113v166h-202v108h202v164zM26 108h517v-108h-517v108z" />
    <glyph glyph-name="twosuperior" unicode="&#xb2;" horiz-adv-x="359" 
d="M364 406h-321l13 65l76 57q68 48 101 79t33 57q0 34 -46 34q-44 0 -90 -28l-19 84q65 47 157 47q60 0 101.5 -27t41.5 -82q0 -28 -10.5 -52.5t-34.5 -47t-40 -34.5t-49 -35l-23 -15v-2h130z" />
    <glyph glyph-name="threesuperior" unicode="&#xb3;" horiz-adv-x="354" 
d="M128 681l-10 82q58 38 150 38q56 0 99 -25.5t43 -67.5q0 -69 -100 -93v-2q33 -5 58 -26.5t25 -56.5q0 -62 -57 -95.5t-139 -33.5q-96 0 -150 35l41 88q41 -31 98 -31q27 0 46 10.5t19 28.5t-22 29.5t-59 11.5h-17l15 77h15q84 0 84 34q0 25 -42 25q-53 0 -97 -28z" />
    <glyph glyph-name="acute" unicode="&#xb4;" 
d="M261 706h161l-129 -156h-124z" />
    <glyph glyph-name="mu" unicode="&#xb5;" horiz-adv-x="573" 
d="M266 492l-51 -270q-10 -54 1.5 -75t40.5 -21q21 0 40 19.5t30 46.5q7 12 10 27l53 273h170l-61 -323q-5 -27 3 -37.5t28 -10.5l-32 -122q-24 -10 -57 -10q-82 0 -99 87h-4q-44 -82 -113 -82q-40 0 -60 19l-6 -36q-22 -126 -21 -175h-153q-11 41 16 180l95 510h170z" />
    <glyph glyph-name="paragraph" unicode="&#xb6;" horiz-adv-x="557" 
d="M251 -51h-108l60 310q-3 1 -8 2t-7 2q-54 19 -86 61t-32 100q0 123 91.5 186.5t246.5 63.5q109 0 159 -10l-137 -715h-108l119 622h-72z" />
    <glyph glyph-name="periodcentered" unicode="&#xb7;" horiz-adv-x="281" 
d="M127 153q-41 0 -66.5 26.5t-25.5 67.5q0 48 32 82t81 34q41 0 67.5 -26.5t26.5 -69.5q0 -51 -32 -82.5t-83 -31.5z" />
    <glyph glyph-name="cedilla" unicode="&#xb8;" 
d="M118 5h89l-31 -46q28 -7 46 -24.5t18 -40.5q0 -55 -41 -79t-93 -24q-54 0 -83 22l27 64q26 -17 55 -17q33 0 33 24q0 30 -74 35z" />
    <glyph glyph-name="onesuperior" unicode="&#xb9;" horiz-adv-x="294" 
d="M274 406h-137l53 280h-1l-81 -31l-10 92l132 49h118z" />
    <glyph glyph-name="ordmasculine" unicode="&#xba;" horiz-adv-x="399" 
d="M254 591q68 0 111.5 -37.5t43.5 -102.5q0 -87 -56.5 -138.5t-147.5 -51.5q-64 0 -107 38.5t-43 99.5q0 86 55.5 139t143.5 53zM245 506q-30 0 -47.5 -35.5t-17.5 -73.5q0 -22 11 -36.5t30 -14.5q29 0 46 35.5t17 75.5q0 49 -39 49z" />
    <glyph glyph-name="guillemotright" unicode="&#xbb;" horiz-adv-x="483" 
d="M144 256l-93 190h115l94 -193l-129 -194h-127zM350 256l-93 190h115l94 -193l-129 -194h-127z" />
    <glyph glyph-name="onequarter" unicode="&#xbc;" horiz-adv-x="859" 
d="M724 0h-127l16 84h-195l15 75l203 235h162l-42 -224h50l-17 -86h-49zM630 170l10 55q2 13 9 39t10 40h-2q-33 -48 -52 -70l-50 -63l3 -1h72zM268 266h-136l53 280h-1l-81 -31l-10 92l131 49h119zM233 -11h-102l487 672h101z" />
    <glyph glyph-name="onehalf" unicode="&#xbd;" horiz-adv-x="859" 
d="M260 266h-136l53 280h-1l-81 -31l-10 92l131 49h119zM208 -11h-97l491 672h97zM771 0h-318l12 65l75 57q70 51 102 81t32 55q0 34 -45 34q-47 0 -90 -29l-18 85q65 47 156 47q60 0 101 -27t41 -82q0 -28 -10.5 -52.5t-34.5 -47t-40 -34.5t-49 -35l-23 -15v-2h128z" />
    <glyph glyph-name="threequarters" unicode="&#xbe;" horiz-adv-x="859" 
d="M263 -11h-101l486 672h101zM107 541l-10 82q58 38 150 38q56 0 99 -25.5t43 -67.5q0 -69 -99 -94l-1 -2q33 -5 58 -26.5t25 -55.5q0 -62 -57 -95.5t-139 -33.5q-96 0 -150 35l41 88q41 -31 98 -31q27 0 46 10.5t19 28.5t-22 29t-59 11h-17l15 77h15q84 0 84 35
q0 25 -42 25q-53 0 -97 -28zM735 0h-126l16 84h-195l15 75l203 235h162l-42 -224h50l-17 -86h-49zM642 170l10 55q2 13 9 39t10 40h-2q-25 -38 -52 -70l-50 -63l3 -1h72z" />
    <glyph glyph-name="questiondown" unicode="&#xbf;" horiz-adv-x="460" 
d="M162 256h166q-2 -18 -4 -26q-13 -79 -86 -159q-10 -12 -34 -35t-34 -36.5t-10 -25.5q0 -35 51 -38q67 0 113 28l20 -118q-74 -46 -183 -46q-75 0 -125.5 37t-50.5 103q0 37 17 72t35 55.5t57 59.5q49 48 63 106zM281 497h2q40 0 65 -26t25 -66q0 -47 -31.5 -81t-80.5 -34
q-41 0 -67 26.5t-26 68.5q0 49 32 80.5t81 31.5z" />
    <glyph glyph-name="Agrave" unicode="&#xc0;" horiz-adv-x="640" 
d="M398 158h-177l-67 -158h-183l320 674h223l72 -674h-180zM269 287h123l-8 124q-5 91 -8 136h-2q-4 -10 -23.5 -62.5t-30.5 -74.5zM220 840h181l79 -128h-142z" />
    <glyph glyph-name="Aacute" unicode="&#xc1;" horiz-adv-x="640" 
d="M398 158h-177l-67 -158h-183l320 674h223l72 -674h-180zM269 287h123l-8 124q-5 91 -8 136h-2q-4 -10 -23.5 -62.5t-30.5 -74.5zM414 840h183l-130 -130h-143z" />
    <glyph glyph-name="Acircumflex" unicode="&#xc2;" horiz-adv-x="640" 
d="M398 158h-177l-67 -158h-183l320 674h223l72 -674h-180zM269 287h123l-7 124q-1 15 -4 63.5t-5 72.5h-2q-6 -15 -24.5 -65.5t-28.5 -71.5zM366 840h129l80 -130h-116l-36 57h-2l-53 -57h-127z" />
    <glyph glyph-name="Atilde" unicode="&#xc3;" horiz-adv-x="640" 
d="M398 158h-177l-67 -158h-183l320 674h222l73 -674h-180zM269 287h123l-8 124q-5 91 -8 136h-2q-4 -10 -23.5 -62.5t-30.5 -74.5zM334 712h-81q11 69 39 103t67 34q30 0 64 -20q27 -20 39 -20t19.5 9.5t14.5 35.5h80q-20 -135 -109 -135q-34 0 -64 19q-29 18 -39 18
q-21 0 -30 -44z" />
    <glyph glyph-name="Adieresis" unicode="&#xc4;" horiz-adv-x="640" 
d="M398 158h-177l-67 -158h-183l320 674h223l72 -674h-180zM269 287h123l-7 124q-1 15 -4 63.5t-5 72.5h-2q-4 -10 -23.5 -62.5t-30.5 -74.5zM295 708q-29 0 -50.5 19.5t-21.5 50.5q0 37 24 59.5t59 22.5q31 0 51 -20.5t20 -50.5q0 -36 -24 -58.5t-58 -22.5zM512 708
q-29 0 -50.5 19.5t-21.5 50.5q0 37 24 59.5t59 22.5q31 0 51 -20.5t20 -50.5q0 -36 -24 -58.5t-58 -22.5z" />
    <glyph glyph-name="Aring" unicode="&#xc5;" horiz-adv-x="640" 
d="M398 158h-177l-67 -158h-183l320 674h223l72 -674h-180zM269 287h123l-7 124q-1 15 -4 63.5t-5 72.5h-2q-4 -10 -23.5 -62.5t-30.5 -74.5zM430 896q49 0 81.5 -24t32.5 -69q-1 -49 -38.5 -77t-95.5 -28q-47 0 -79 24t-33 65q-1 49 36 79t96 30zM422 841q-20 0 -32.5 -14
t-12.5 -35q0 -17 10.5 -28.5t29.5 -11.5q21 0 34 13.5t13 32.5t-11 31t-31 12z" />
    <glyph glyph-name="AE" unicode="&#xc6;" horiz-adv-x="876" 
d="M135 0h-182l398 674h528l-26 -145h-258l-8 -117h245l-27 -144h-223l-6 -123h253l-27 -145h-399l9 162h-190zM301 303h118l10 151q0 4 2 39t4 54h-3q-6 -11 -23.5 -46t-25.5 -50z" />
    <glyph glyph-name="Ccedilla" unicode="&#xc7;" horiz-adv-x="596" 
d="M524 158l13 -136q-73 -32 -155 -32l-22 -31q28 -6 46 -24t18 -44q0 -50 -41 -73t-93 -23t-82 23l26 58q26 -15 55 -15q34 0 34 24q0 29 -75 34l50 74q-118 16 -183.5 93t-65.5 192q0 118 49 205t133 138q100 63 244 63q94 0 149 -26l-45 -139q-49 19 -118 19
q-83 0 -137 -42q-89 -68 -89 -199q0 -76 45 -119t123 -43q68 0 121 23z" />
    <glyph glyph-name="Egrave" unicode="&#xc8;" horiz-adv-x="538" 
d="M501 416l-28 -144h-237l-25 -127h267l-28 -145h-437l128 674h423l-28 -145h-252l-22 -113h239zM186 840h181l78 -128h-141z" />
    <glyph glyph-name="Eacute" unicode="&#xc9;" horiz-adv-x="538" 
d="M501 416l-28 -144h-237l-25 -127h267l-28 -145h-437l128 674h423l-29 -145h-251l-22 -113h239zM362 840h183l-130 -130h-143z" />
    <glyph glyph-name="Ecircumflex" unicode="&#xca;" horiz-adv-x="538" 
d="M501 416l-28 -144h-237l-25 -127h267l-28 -145h-437l128 674h423l-28 -145h-252l-22 -113h239zM317 840h128l80 -130h-115l-37 57h-2l-52 -57h-128z" />
    <glyph glyph-name="Edieresis" unicode="&#xcb;" horiz-adv-x="538" 
d="M501 416l-28 -144h-237l-24 -127h266l-27 -145h-438l128 674h423l-28 -145h-251l-22 -113h238zM256 708q-29 0 -50.5 19.5t-21.5 50.5q0 37 24 59.5t59 22.5q31 0 51 -20.5t20 -50.5q0 -36 -24 -58.5t-58 -22.5zM473 708q-29 0 -50.5 19.5t-21.5 50.5q0 37 24 59.5
t59 22.5q31 0 51 -20.5t20 -50.5q0 -36 -24 -58.5t-58 -22.5z" />
    <glyph glyph-name="Igrave" unicode="&#xcc;" horiz-adv-x="292" 
d="M138 674h170l-127 -674h-171zM53 840h182l78 -128h-142z" />
    <glyph glyph-name="Iacute" unicode="&#xcd;" horiz-adv-x="292" 
d="M137 674h171l-128 -674h-170zM241 840h182l-130 -130h-143z" />
    <glyph glyph-name="Icircumflex" unicode="&#xce;" horiz-adv-x="292" 
d="M138 674h170l-127 -674h-171zM184 840h128l80 -130h-116l-36 57h-2l-52 -57h-127z" />
    <glyph glyph-name="Idieresis" unicode="&#xcf;" horiz-adv-x="292" 
d="M138 674h169l-126 -674h-171zM122 708q-29 0 -50.5 19.5t-21.5 50.5q0 37 24 59.5t59 22.5q31 0 51 -20.5t20 -50.5q0 -36 -24 -58.5t-58 -22.5zM338 708q-29 0 -50.5 19.5t-21.5 50.5q0 37 24 59.5t59 22.5q31 0 51 -20.5t20 -50.5q0 -36 -24 -58.5t-58 -22.5z" />
    <glyph glyph-name="Eth" unicode="&#xd0;" horiz-adv-x="711" 
d="M8 274l28 141h72l47 249q90 15 189 15q167 0 249 -60q102 -77 102 -228q0 -99 -37.5 -178.5t-102.5 -129.5q-60 -46 -138 -67t-193 -21q-131 0 -193 15l51 264h-74zM394 415l-27 -141h-114l-26 -138q17 -3 52 -3q109 0 170 73q60 75 60 180q0 77 -40.5 117t-112.5 40
q-30 0 -52 -4l-24 -124h114z" />
    <glyph glyph-name="Ntilde" unicode="&#xd1;" horiz-adv-x="681" 
d="M172 0h-158l127 674h203l60 -204q37 -121 63 -248h3q3 99 32 255l36 197h160l-128 -674h-178l-68 220q-49 165 -67 252h-3q-12 -97 -47 -286zM363 715h-81q11 69 39 103t67 34q30 0 64 -20q27 -20 39 -20t19.5 9.5t14.5 35.5h80q-20 -135 -109 -135q-34 0 -64 19
q-29 18 -39 18q-21 0 -30 -44z" />
    <glyph glyph-name="Ograve" unicode="&#xd2;" horiz-adv-x="721" 
d="M328 -11q-129 0 -205 79.5t-76 204.5q0 93 32.5 176t90.5 138q103 98 255 98q131 0 205.5 -77.5t74.5 -205.5q0 -94 -31 -177t-88 -138q-103 -98 -258 -98zM354 131q53 0 94 41q35 35 55 101t20 124q0 66 -28 106t-90 40q-57 0 -100 -43q-35 -35 -55.5 -99t-20.5 -124
q0 -68 31.5 -107t93.5 -39zM255 840h181l79 -128h-142z" />
    <glyph glyph-name="Oacute" unicode="&#xd3;" horiz-adv-x="721" 
d="M328 -11q-129 0 -205 79.5t-76 204.5q0 93 32.5 176t90.5 138q103 98 255 98q131 0 205.5 -77.5t74.5 -205.5q0 -94 -31 -177t-88 -138q-103 -98 -258 -98zM354 131q53 0 94 41q35 35 55 101t20 124q0 66 -28 106t-90 40q-57 0 -100 -43q-35 -35 -55.5 -99t-20.5 -124
q0 -68 31.5 -107t93.5 -39zM446 844h182l-130 -130h-143z" />
    <glyph glyph-name="Ocircumflex" unicode="&#xd4;" horiz-adv-x="721" 
d="M328 -11q-129 0 -205 79.5t-76 204.5q0 93 32.5 176t90.5 138q103 98 255 98q131 0 205.5 -77.5t74.5 -205.5q0 -94 -31 -177t-88 -138q-103 -98 -258 -98zM354 131q53 0 94 41q35 35 55 101t20 124q0 66 -28 106t-90 40q-57 0 -100 -43q-35 -35 -55.5 -99t-20.5 -124
q0 -68 31.5 -107t93.5 -39zM391 840h129l80 -130h-116l-37 57h-2l-52 -57h-128z" />
    <glyph glyph-name="Otilde" unicode="&#xd5;" horiz-adv-x="721" 
d="M329 -11q-130 0 -206 79.5t-76 204.5q0 93 32.5 176t90.5 138q103 98 255 98q131 0 205.5 -77.5t74.5 -205.5q0 -94 -31 -177t-88 -138q-103 -98 -257 -98zM353 131q52 0 95 41q35 35 55 101t20 124q0 66 -28 106t-90 40q-56 0 -99 -43q-35 -35 -56 -99t-21 -124
q0 -68 31.5 -107t92.5 -39zM366 715h-81q11 69 39 103t67 34q32 0 64 -20q27 -20 39 -20t19.5 9.5t14.5 35.5h80q-20 -135 -109 -135q-34 0 -64 19q-29 18 -39 18q-21 0 -30 -44z" />
    <glyph glyph-name="Odieresis" unicode="&#xd6;" horiz-adv-x="721" 
d="M329 -11q-130 0 -206 79.5t-76 204.5q0 93 32.5 176t90.5 138q103 98 255 98q131 0 205.5 -77.5t74.5 -205.5q0 -94 -31 -177t-88 -138q-103 -98 -257 -98zM354 131q53 0 94 41q35 35 55 101t20 124q0 66 -28 106t-90 40q-56 0 -99 -43q-35 -35 -56 -99t-21 -124
q0 -68 32 -107t93 -39zM335 708q-29 0 -50.5 19.5t-21.5 50.5q0 37 24 59.5t59 22.5q31 0 51 -20.5t20 -50.5q0 -36 -24 -58.5t-58 -22.5zM553 708h-2q-29 0 -50.5 19.5t-21.5 50.5q0 37 24 59.5t59 22.5q31 0 51 -20.5t20 -50.5q0 -36 -24 -58.5t-56 -22.5z" />
    <glyph glyph-name="multiply" unicode="&#xd7;" horiz-adv-x="596" 
d="M23 450l75 77l187 -190l185 190l75 -77l-188 -187l188 -186l-75 -77l-186 189l-185 -189l-75 77l187 186z" />
    <glyph glyph-name="Oslash" unicode="&#xd8;" horiz-adv-x="717" 
d="M117 -76l-80 74l70 87q-62 73 -62 197q0 186 124 304q101 99 246 99q94 0 154 -36l72 90l86 -67l-76 -95q52 -66 52 -183q1 -90 -31 -169.5t-88 -135.5q-102 -100 -248 -100q-83 0 -139 31zM228 229l240 299q-22 16 -62 16q-57 0 -102.5 -42t-67.5 -105q-29 -81 -11 -168
h3zM525 427l-229 -285q19 -12 53 -12q55 0 97.5 39t64.5 101q25 68 17 157h-3z" />
    <glyph glyph-name="Ugrave" unicode="&#xd9;" horiz-adv-x="670" 
d="M138 674h170l-73 -383q-7 -37 -7 -78q1 -34 23 -58t63 -24q53 0 84.5 37.5t47.5 121.5l73 384h171l-71 -375q-30 -160 -104.5 -235t-220.5 -75q-114 -1 -175 56t-61 165q0 41 10 96zM245 840h181l78 -128h-141z" />
    <glyph glyph-name="Uacute" unicode="&#xda;" horiz-adv-x="670" 
d="M138 674h170l-73 -383q-7 -37 -7 -78q1 -34 23 -58t63 -24q53 0 84.5 37.5t47.5 121.5l73 384h171l-71 -375q-30 -160 -104.5 -235t-220.5 -75q-114 -1 -175 56t-61 165q0 41 10 96zM430 840h182l-130 -130h-143z" />
    <glyph glyph-name="Ucircumflex" unicode="&#xdb;" horiz-adv-x="670" 
d="M138 674h170l-73 -383q-7 -37 -7 -78q1 -34 23 -58t63 -24q53 0 84.5 37.5t47.5 121.5l73 384h171l-71 -375q-30 -160 -104.5 -235t-220.5 -75q-114 -1 -175 56t-61 165q0 41 10 96zM379 840h128l80 -130h-115l-37 57h-2l-52 -57h-127z" />
    <glyph glyph-name="Udieresis" unicode="&#xdc;" horiz-adv-x="670" 
d="M138 674h170l-73 -383q-7 -37 -7 -78q1 -34 23 -58t64 -24q52 0 84 37.5t48 121.5l73 384h170l-71 -375q-30 -160 -104.5 -235t-220.5 -75q-114 -1 -175 56t-61 165q0 41 10 96zM318 708q-29 0 -50.5 19.5t-21.5 50.5q0 37 24 59.5t59 22.5q31 0 51 -20.5t20 -50.5
q0 -36 -24 -58.5t-58 -22.5zM535 708q-29 0 -50.5 19.5t-21.5 50.5q0 37 24 59.5t59 22.5q31 0 51 -20.5t20 -50.5q0 -36 -24 -58.5t-58 -22.5z" />
    <glyph glyph-name="Yacute" unicode="&#xdd;" horiz-adv-x="593" 
d="M317 0h-171l52 272l-133 402h183l33 -151q23 -113 25 -126h2q4 7 67 126l83 151h204l-293 -397zM374 840h182l-130 -130h-143z" />
    <glyph glyph-name="Thorn" unicode="&#xde;" horiz-adv-x="581" 
d="M14 0l127 674h167l-22 -117q36 3 62 3q104 0 161 -46q66 -51 66 -137q0 -67 -25 -118.5t-68.5 -81.5t-97 -45t-115.5 -15q-17 0 -65 4l-24 -121h-166zM260 421l-30 -162q25 -5 52 -5q52 0 86.5 28t34.5 71q0 72 -95 72q-26 0 -48 -4z" />
    <glyph glyph-name="germandbls" unicode="&#xdf;" horiz-adv-x="598" 
d="M177 0h-171l85 443q51 278 300 278q86 0 143.5 -46t57.5 -123q0 -63 -42 -99q-61 -37 -61 -77q0 -26 23 -67q41 -75 41 -126q0 -100 -61 -147t-159 -47q-74 0 -114 23l38 124q29 -16 70 -16q53 0 53 41q0 22 -23 64q-44 75 -44 119q0 45 28 82t70 60q14 21 14 45
q0 23 -15 38.5t-41 15.5q-37 0 -65.5 -33.5t-42.5 -104.5z" />
    <glyph glyph-name="agrave" unicode="&#xe0;" horiz-adv-x="568" 
d="M483 0h-156q1 14 2 42.5t2 42.5h-2q-55 -96 -155 -96q-67 0 -109.5 48t-42.5 127q0 64 21 122.5t62 108t112 79t162 29.5t176 -27l-53 -258q-22 -117 -19 -218zM343 273l20 99q-17 3 -31 3q-55 0 -93.5 -59.5t-38.5 -119.5q0 -34 13.5 -52t35.5 -18q28 0 53.5 34
t40.5 113zM190 706h159l79 -156h-123z" />
    <glyph glyph-name="aacute" unicode="&#xe1;" horiz-adv-x="568" 
d="M483 0h-156q1 14 2 42.5t2 42.5h-2q-55 -96 -155 -96q-67 0 -109.5 48t-42.5 127q0 64 21 122.5t62 108t112 79t162 29.5t176 -27l-53 -258q-22 -117 -19 -218zM343 273l20 99q-17 3 -31 3q-55 0 -93.5 -59.5t-38.5 -119.5q0 -34 13.5 -52t35.5 -18q28 0 53.5 34
t40.5 113zM389 706h160l-129 -156h-123z" />
    <glyph glyph-name="acircumflex" unicode="&#xe2;" horiz-adv-x="568" 
d="M483 0h-156q1 14 2 42.5t2 42.5h-2q-55 -96 -155 -96q-67 0 -109.5 48t-42.5 127q0 64 21 122.5t62 108t112 79t162 29.5t176 -27l-53 -258q-22 -117 -19 -218zM343 273l20 99q-17 3 -31 3q-55 0 -93.5 -59.5t-38.5 -119.5q0 -34 13.5 -52t35.5 -18q28 0 53.5 34
t40.5 113zM330 706h116l77 -156h-106l-39 73h-2l-54 -73h-116z" />
    <glyph glyph-name="atilde" unicode="&#xe3;" horiz-adv-x="568" 
d="M483 0h-156q1 14 2 42.5t2 42.5h-2q-55 -96 -155 -96q-67 0 -109.5 48t-42.5 127q0 64 21 122.5t62 108t112 79t162 29.5t176 -27l-53 -258q-22 -117 -19 -218zM343 273l20 99q-17 3 -31 3q-55 0 -93.5 -59.5t-38.5 -119.5q0 -34 13.5 -52t35.5 -18q28 0 53.5 34
t40.5 113zM282 554h-80q10 67 37 102.5t67 35.5q31 0 63 -20q30 -20 38 -20q12 0 18.5 9.5t14.5 35.5h78q-19 -135 -106 -135q-39 0 -66 20q-22 17 -36 17q-19 0 -28 -45z" />
    <glyph glyph-name="adieresis" unicode="&#xe4;" horiz-adv-x="568" 
d="M483 0h-156q1 14 2 42.5t2 42.5h-2q-55 -96 -155 -96q-67 0 -109.5 48t-42.5 127q0 64 21 122.5t62 108t112 79t162 29.5t176 -27l-53 -258q-22 -117 -19 -218zM343 273l20 99q-17 3 -31 3q-55 0 -93.5 -59.5t-38.5 -119.5q0 -34 13.5 -52t35.5 -18q28 0 53.5 34
t40.5 113zM243 547h-2q-31 0 -52.5 20t-21.5 53q0 38 24.5 61.5t61.5 23.5q33 0 53 -20.5t20 -53.5q0 -38 -24 -61t-59 -23zM457 547q-31 0 -52.5 20t-21.5 53q0 38 24.5 61.5t61.5 23.5q33 0 53 -20.5t20 -53.5q0 -39 -24.5 -61.5t-60.5 -22.5z" />
    <glyph glyph-name="aring" unicode="&#xe5;" horiz-adv-x="568" 
d="M483 0h-156q1 14 2 42.5t2 42.5h-2q-55 -96 -155 -96q-67 0 -109.5 48t-42.5 127q0 64 21 122.5t62 108t112 79t162 29.5t176 -27l-53 -258q-22 -117 -19 -218zM343 273l20 99q-17 3 -32 3q-55 0 -93 -59.5t-38 -119.5q0 -34 13.5 -52t35.5 -18q28 0 53.5 34t40.5 113z
M368 741q48 0 80 -24.5t32 -70.5q-1 -50 -38.5 -78t-94.5 -28q-46 0 -77.5 24t-32.5 66q-1 51 35.5 81t95.5 30zM360 686q-21 0 -33.5 -14.5t-12.5 -35.5q0 -17 10.5 -29t29.5 -12q22 0 35.5 14t13.5 33q0 44 -43 44z" />
    <glyph glyph-name="ae" unicode="&#xe6;" horiz-adv-x="783" 
d="M696 151l3 -120q-75 -42 -189 -42q-53 0 -97 20.5t-67 57.5h-3q-73 -78 -182 -78q-70 0 -114.5 39.5t-44.5 100.5q0 54 30 95.5t78.5 64t100.5 33.5t106 11l1 8q2 8 -4 17t-24 17.5t-45 8.5q-74 0 -142 -44l-25 107q85 56 188 56q110 0 147 -70h3q61 70 169 70
q86 0 132.5 -43.5t46.5 -99.5q0 -183 -319 -169q0 -22 11 -37q28 -33 96 -33q74 0 144 30zM294 184l7 40q-27 0 -53 -4.5t-50.5 -20.5t-24.5 -41q0 -40 47 -40q26 0 46.5 17.5t27.5 48.5zM600 343q0 15 -12.5 26t-36.5 11q-37 0 -60.5 -24t-27.5 -50q137 -10 137 37z" />
    <glyph glyph-name="ccedilla" unicode="&#xe7;" horiz-adv-x="439" 
d="M379 143l-2 -129q-45 -21 -92 -23l-22 -32q28 -6 46 -25t18 -45q0 -51 -40 -74.5t-88 -23.5q-60 0 -89 22l27 64q28 -17 56 -17q32 0 32 24q0 30 -74 35l49 74q-83 10 -129.5 65t-46.5 139q0 133 93 219.5t236 86.5q55 0 99 -14l-41 -131q-23 10 -59 10q-67 0 -108 -44.5
t-41 -108.5q0 -44 25 -66.5t60 -22.5q44 0 91 17z" />
    <glyph glyph-name="egrave" unicode="&#xe8;" horiz-adv-x="523" 
d="M432 151l10 -122q-80 -39 -193 -39q-108 0 -165.5 54.5t-57.5 157.5q0 120 80.5 210.5t212.5 90.5q80 0 131.5 -41.5t51.5 -114.5q0 -177 -315 -168q3 -19 18 -32q29 -26 87 -26q77 0 140 30zM343 348q0 13 -12 22.5t-32 9.5q-42 0 -66.5 -24.5t-29.5 -53.5q76 -1 108 10
t32 36zM158 706h159l79 -156h-122z" />
    <glyph glyph-name="eacute" unicode="&#xe9;" horiz-adv-x="523" 
d="M432 151l10 -122q-80 -39 -193 -39q-108 0 -165.5 54.5t-57.5 157.5q0 120 80.5 210.5t212.5 90.5q80 0 131.5 -41.5t51.5 -114.5q0 -177 -315 -168q3 -19 18 -32q29 -26 87 -26q77 0 140 30zM343 348q0 13 -12 22.5t-32 9.5q-42 0 -66.5 -24.5t-29.5 -53.5q76 -1 108 10
t32 36zM352 706h160l-128 -156h-124z" />
    <glyph glyph-name="ecircumflex" unicode="&#xea;" horiz-adv-x="523" 
d="M432 151l10 -122q-80 -39 -193 -39q-108 0 -165.5 54.5t-57.5 157.5q0 120 80.5 210.5t212.5 90.5q80 0 131.5 -41.5t51.5 -114.5q0 -177 -315 -168q3 -19 18 -32q29 -26 87 -26q77 0 140 30zM343 348q0 13 -12 22.5t-32 9.5q-42 0 -66.5 -24.5t-29.5 -53.5q76 -1 108 10
t32 36zM287 706h116l77 -156h-106l-39 73h-2l-54 -73h-116z" />
    <glyph glyph-name="edieresis" unicode="&#xeb;" horiz-adv-x="523" 
d="M432 151l10 -122q-80 -39 -193 -39q-108 0 -165.5 54.5t-57.5 157.5q0 120 80.5 210.5t212.5 90.5q80 0 131.5 -41.5t51.5 -114.5q0 -177 -315 -168q3 -19 18 -32q29 -26 87 -26q77 0 140 30zM343 348q0 13 -12 22.5t-32 9.5q-42 0 -66.5 -24.5t-29.5 -53.5q76 -1 108 10
t32 36zM224 547q-31 0 -52.5 20t-21.5 53q0 38 24.5 61.5t61.5 23.5q33 0 53 -20.5t20 -53.5q0 -39 -24.5 -61.5t-60.5 -22.5zM439 547q-31 0 -52.5 20t-21.5 53q0 38 24.5 61.5t61.5 23.5q33 0 53 -20.5t20 -53.5q0 -39 -24.5 -61.5t-60.5 -22.5z" />
    <glyph glyph-name="igrave" unicode="&#xec;" horiz-adv-x="281" 
d="M177 0h-171l93 492h171zM25 706h159l79 -156h-122z" />
    <glyph glyph-name="iacute" unicode="&#xed;" horiz-adv-x="281" 
d="M177 0h-171l93 492h171zM219 706h161l-129 -156h-124z" />
    <glyph glyph-name="icircumflex" unicode="&#xee;" horiz-adv-x="281" 
d="M176 0h-170l93 492h170zM162 706h116l77 -156h-106l-39 73h-1l-54 -73h-116z" />
    <glyph glyph-name="idieresis" unicode="&#xef;" horiz-adv-x="281" 
d="M176 0h-170l93 492h171zM98 547q-31 0 -52.5 20t-21.5 53q0 38 24.5 61.5t61.5 23.5q33 0 53 -20.5t20 -53.5q0 -39 -24.5 -61.5t-60.5 -22.5zM313 547q-31 0 -52.5 20t-21.5 53q0 38 24.5 61.5t61.5 23.5q33 0 53 -20.5t20 -53.5q0 -39 -24.5 -61.5t-60.5 -22.5z" />
    <glyph glyph-name="eth" unicode="&#xf0;" horiz-adv-x="576" 
d="M262 118q47 0 71.5 41t27.5 98q3 45 -4 62q-14 28 -56 28q-44 0 -72.5 -48.5t-28.5 -104.5q0 -33 16.5 -54.5t45.5 -21.5zM145 465l-22 67l118 48q-31 23 -81 44l78 92q80 -26 151 -78l146 57l23 -66l-110 -43q44 -42 70.5 -111t26.5 -149q0 -146 -81 -241.5t-218 -95.5
q-101 0 -162 58t-61 153q0 109 75 186t186 82q38 2 68 -12l1 3q-20 48 -49 71z" />
    <glyph glyph-name="ntilde" unicode="&#xf1;" horiz-adv-x="576" 
d="M176 0h-170l61 324q11 54 28 168h150l-8 -76h2q66 87 168 87q65 0 96 -36t31 -98q0 -38 -8 -84l-55 -285h-170l50 267q5 27 5 51q0 48 -37 48q-33 0 -61 -41t-42 -115zM276 554h-80q10 67 37 102.5t67 35.5q33 0 63 -20t39 -20q12 0 18.5 9.5t14.5 35.5h78
q-19 -135 -107 -135q-39 0 -66 20q-22 17 -36 17q-19 0 -28 -45z" />
    <glyph glyph-name="ograve" unicode="&#xf2;" horiz-adv-x="575" 
d="M243 -11q-96 0 -156 55t-60 149q0 132 84.5 221t218.5 89q98 0 157 -57t59 -145q0 -141 -85.5 -226.5t-217.5 -85.5zM267 118q33 0 57 31.5t34.5 71.5t10.5 78q0 33 -15 54t-46 21q-34 0 -59 -33t-35 -72t-10 -73q0 -37 16.5 -57.5t46.5 -20.5zM169 706h159l78 -156h-122
z" />
    <glyph glyph-name="oacute" unicode="&#xf3;" horiz-adv-x="575" 
d="M243 -11q-96 0 -156 55t-60 149q0 132 84.5 221t218.5 89q98 0 157 -57t59 -145q0 -141 -85.5 -226.5t-217.5 -85.5zM267 118q33 0 57 31.5t34.5 71.5t10.5 78q0 33 -15 54t-46 21q-34 0 -59 -33t-35 -72t-10 -73q0 -37 16.5 -57.5t46.5 -20.5zM357 706h161l-130 -156
h-123z" />
    <glyph glyph-name="ocircumflex" unicode="&#xf4;" horiz-adv-x="575" 
d="M243 -11q-96 0 -156 55t-60 149q0 132 84.5 221t218.5 89q98 0 157 -57t59 -145q0 -141 -85.5 -226.5t-217.5 -85.5zM267 118q33 0 57 31.5t34.5 71.5t10.5 78q0 33 -15 54t-46 21q-34 0 -59 -33t-35 -72t-10 -73q0 -37 16.5 -57.5t46.5 -20.5zM303 706h116l78 -156h-107
l-39 73h-2l-53 -73h-117z" />
    <glyph glyph-name="otilde" unicode="&#xf5;" horiz-adv-x="575" 
d="M243 -11q-96 0 -156 55t-60 149q0 132 84.5 221t218.5 89q98 0 157 -57t59 -145q0 -141 -85.5 -226.5t-217.5 -85.5zM267 118q33 0 57 31.5t34.5 71.5t10.5 78q0 33 -15 54t-46 21q-34 0 -59 -33t-35 -72t-10 -73q0 -37 16.5 -57.5t46.5 -20.5zM265 554h-80
q10 67 37 102.5t67 35.5q33 0 63 -20t38 -20q12 0 18.5 9.5t14.5 35.5h78q-19 -135 -106 -135q-39 0 -66 20q-22 17 -36 17q-19 0 -28 -45z" />
    <glyph glyph-name="odieresis" unicode="&#xf6;" horiz-adv-x="575" 
d="M243 -11q-96 0 -156 55t-60 149q0 132 84.5 221t218.5 89q98 0 157 -57t59 -145q0 -141 -85.5 -226.5t-217.5 -85.5zM267 118q33 0 57 31.5t34.5 71.5t10.5 78q0 33 -15 54t-46 21q-34 0 -59 -33t-35 -72t-10 -73q0 -37 16.5 -57.5t46.5 -20.5zM236 547h-2
q-31 0 -52.5 20t-21.5 53q0 38 24.5 61.5t61.5 23.5q33 0 53 -20.5t20 -53.5q0 -38 -24 -61t-59 -23zM450 547q-31 0 -52.5 20t-21.5 53q0 38 24.5 61.5t61.5 23.5q33 0 53 -20.5t20 -53.5q0 -39 -24.5 -61.5t-60.5 -22.5z" />
    <glyph glyph-name="divide" unicode="&#xf7;" horiz-adv-x="596" 
d="M294 361q-35 0 -57.5 22.5t-22.5 59.5t22.5 59.5t59.5 22.5q36 0 58 -22.5t23 -59.5q0 -37 -22.5 -59.5t-60.5 -22.5zM553 213h-516v108h516v-108zM294 9q-35 0 -57.5 22.5t-22.5 59.5t22.5 59.5t59.5 22.5q36 0 58 -22.5t23 -59.5q0 -37 -22.5 -59.5t-60.5 -22.5z" />
    <glyph glyph-name="oslash" unicode="&#xf8;" horiz-adv-x="575" 
d="M59 -64l-44 46l63 74q-51 53 -51 140q0 130 84.5 218.5t216.5 88.5q64 0 111 -25l66 75l48 -44l-61 -72q53 -53 53 -138q0 -141 -84.5 -225.5t-208.5 -84.5q-76 0 -122 28zM203 194l141 172q-14 14 -39 14q-47 0 -74.5 -53.5t-29.5 -101.5q-1 -10 -1 -30zM368 296
l-142 -168q13 -16 41 -16q33 0 57.5 26.5t35 60t11.5 66.5q1 9 1 31h-4z" />
    <glyph glyph-name="ugrave" unicode="&#xf9;" horiz-adv-x="575" 
d="M392 492h171l-61 -324q-11 -54 -28 -168h-150l7 75h-2q-71 -86 -168 -86q-63 0 -94 35.5t-31 100.5q0 36 10 94l52 273h171l-49 -259q-7 -35 -7 -62q0 -44 37 -44q33 0 60.5 39t40.5 108zM172 706h159l79 -156h-122z" />
    <glyph glyph-name="uacute" unicode="&#xfa;" horiz-adv-x="575" 
d="M392 492h171l-61 -324q-11 -54 -28 -168h-150l7 75h-2q-71 -86 -168 -86q-63 0 -94 35.5t-31 100.5q0 36 10 94l52 273h171l-49 -259q-7 -35 -7 -62q0 -44 37 -44q33 0 60.5 39t40.5 108zM362 706h160l-129 -156h-124z" />
    <glyph glyph-name="ucircumflex" unicode="&#xfb;" horiz-adv-x="575" 
d="M392 492h170l-61 -324q-11 -54 -28 -168h-150l8 75h-2q-73 -86 -168 -86q-63 0 -94 35.5t-31 100.5q0 36 10 94l52 273h171l-49 -259q-7 -35 -7 -62q0 -44 37 -44q33 0 60.5 39t40.5 108zM310 706h116l77 -156h-106l-39 73h-2l-53 -73h-117z" />
    <glyph glyph-name="udieresis" unicode="&#xfc;" horiz-adv-x="575" 
d="M392 492h171l-61 -324q-11 -54 -28 -168h-150l7 75h-2q-71 -86 -168 -86q-63 0 -94 35.5t-31 100.5q0 36 10 94l52 273h171l-49 -259q-7 -35 -7 -62q0 -44 37 -44q33 0 60.5 39t40.5 108zM238 547h-2q-31 0 -52.5 20t-21.5 53q0 38 24.5 61.5t61.5 23.5q33 0 53 -20.5
t20 -53.5q0 -38 -24 -61t-59 -23zM452 547q-31 0 -52.5 20t-21.5 53q0 38 24.5 61.5t61.5 23.5q33 0 53 -20.5t20 -53.5q0 -39 -24.5 -61.5t-60.5 -22.5z" />
    <glyph glyph-name="yacute" unicode="&#xfd;" horiz-adv-x="522" 
d="M41 492h180l22 -193q2 -18 7 -57t7 -55h2q39 112 39 113l74 192h179l-171 -345q-102 -203 -198 -290q-39 -36 -85.5 -57.5t-78.5 -26.5l-37 147q42 11 81 35q50 32 73 73q6 10 2 24zM334 706h160l-129 -156h-123z" />
    <glyph glyph-name="thorn" unicode="&#xfe;" horiz-adv-x="581" 
d="M-31 -198l166 878h170l-45 -237h2q18 25 51.5 42.5t75.5 17.5q77 0 119.5 -53t42.5 -137q-1 -138 -80 -231t-202 -93q-55 0 -88 20h-2l-40 -207h-170zM219 222l-16 -84q25 -21 55 -21q48 0 80.5 56t32.5 125q0 29 -12.5 48t-38.5 19q-36 0 -62.5 -37.5t-38.5 -105.5z" />
    <glyph glyph-name="ydieresis" unicode="&#xff;" horiz-adv-x="522" 
d="M41 492h180l22 -193q2 -18 7 -57t7 -55h2q39 112 39 113l74 192h179l-170 -345q-101 -201 -199 -290q-39 -36 -85.5 -57.5t-78.5 -26.5l-37 147q42 11 81 35q50 32 73 73q6 10 2 24zM203 547h-2q-31 0 -52.5 20t-21.5 53q0 38 24.5 61.5t61.5 23.5q33 0 53 -20.5
t20 -53.5q0 -38 -24 -61t-59 -23zM417 547q-31 0 -52.5 20t-21.5 53q0 38 24.5 61.5t61.5 23.5q33 0 53 -20.5t20 -53.5q0 -39 -24.5 -61.5t-60.5 -22.5z" />
    <glyph glyph-name="Amacron" unicode="&#x100;" horiz-adv-x="640" 
d="M398 158h-177l-67 -158h-183l320 674h223l72 -674h-180zM269 287h123l-8 124q-5 91 -8 136h-2q-4 -10 -23.5 -62.5t-30.5 -74.5zM297 825h264l-18 -90h-264z" />
    <glyph glyph-name="amacron" unicode="&#x101;" horiz-adv-x="568" 
d="M483 0h-156q1 14 2 42.5t2 42.5h-2q-55 -96 -155 -96q-67 0 -109.5 48t-42.5 127q0 64 21 122.5t62 108t112 79t162 29.5t176 -27l-53 -258q-22 -117 -19 -218zM343 273l20 99q-17 3 -31 3q-55 0 -93.5 -59.5t-38.5 -119.5q0 -34 13.5 -52t35.5 -18q28 0 53.5 34
t40.5 113zM245 670h259l-18 -89h-259z" />
    <glyph glyph-name="Abreve" unicode="&#x102;" horiz-adv-x="640" 
d="M398 158h-177l-67 -158h-183l320 674h223l72 -674h-180zM269 287h123l-8 124q-5 91 -8 136h-2q-4 -10 -23.5 -62.5t-30.5 -74.5zM280 850h92q0 -48 50 -48q52 0 61 48h94q-21 -130 -165 -130q-74 0 -106 35.5t-26 94.5z" />
    <glyph glyph-name="abreve" unicode="&#x103;" horiz-adv-x="568" 
d="M483 0h-156q1 14 2 42.5t2 42.5h-2q-55 -96 -155 -96q-67 0 -109.5 48t-42.5 127q0 64 21 122.5t62 108t112 79t162 29.5t176 -27l-53 -258q-22 -117 -19 -218zM343 273l20 99q-17 3 -31 3q-55 0 -93.5 -59.5t-38.5 -119.5q0 -34 13.5 -52t35.5 -18q28 0 53.5 34
t40.5 113zM233 694h83q3 -25 11.5 -38.5t31.5 -13.5q47 0 59 52h85q-22 -135 -153 -135q-67 0 -95.5 36.5t-21.5 98.5z" />
    <glyph glyph-name="Aogonek" unicode="&#x104;" horiz-adv-x="640" 
d="M514 674l71 -674h-87q-29 -44 -29 -75q0 -40 43 -40q21 0 48 8l9 -82q-45 -36 -115 -36q-50 0 -78 24.5t-28 70.5q0 58 58 131l-8 157h-177l-67 -158h-183l320 674h223zM269 287h123l-8 124q-5 91 -8 136h-2q-4 -10 -23.5 -62.5t-30.5 -74.5z" />
    <glyph glyph-name="aogonek" unicode="&#x105;" horiz-adv-x="568" 
d="M556 476l-50 -258q-22 -117 -19 -218h-49q-44 -42 -44 -83q0 -32 38 -32q26 0 53 8l9 -82q-45 -36 -115 -36q-50 0 -78 24.5t-28 70.5q0 58 58 131q1 14 2.5 42t1.5 42h-2q-58 -96 -157 -96q-67 0 -109.5 48t-42.5 127q0 64 21 122.5t62.5 108t112.5 79t162 29.5t174 -27
zM346 273l18 99q-16 3 -30 3q-55 0 -93.5 -59.5t-38.5 -119.5q0 -34 13.5 -52t35.5 -18q29 0 55 34t40 113z" />
    <glyph glyph-name="Cacute" unicode="&#x106;" horiz-adv-x="596" 
d="M524 155l12 -138q-60 -28 -178 -28q-139 0 -224 78t-85 211q0 118 49 205t133 138q100 63 244 63q96 0 148 -26l-44 -139q-49 19 -118 19q-83 0 -138 -42q-88 -68 -88 -199q0 -76 44.5 -119t123.5 -43q72 0 121 20zM437 844h182l-130 -130h-143z" />
    <glyph glyph-name="cacute" unicode="&#x107;" horiz-adv-x="440" 
d="M381 142l-2 -129q-51 -24 -138 -24q-94 0 -154.5 54t-60.5 153q0 134 93 220.5t236 86.5q57 0 99 -15l-41 -129q-24 9 -59 9q-67 0 -108 -44.5t-41 -108.5q0 -45 25 -67.5t60 -22.5q44 0 91 17zM330 706h161l-129 -156h-124z" />
    <glyph glyph-name="Ccircumflex" unicode="&#x108;" horiz-adv-x="596" 
d="M524 155l12 -138q-60 -28 -178 -28q-139 0 -224 78t-85 211q0 118 49 205t133 138q100 63 244 63q96 0 148 -26l-44 -139q-49 19 -118 19q-83 0 -138 -42q-88 -68 -88 -199q0 -76 44.5 -119t123.5 -43q72 0 121 20zM384 844h128l80 -130h-115l-37 57h-2l-52 -57h-127z
" />
    <glyph glyph-name="ccircumflex" unicode="&#x109;" horiz-adv-x="440" 
d="M381 142l-2 -129q-51 -24 -138 -24q-94 0 -154.5 54t-60.5 153q0 134 93 220.5t236 86.5q57 0 99 -15l-41 -129q-24 9 -59 9q-67 0 -108 -44.5t-41 -108.5q0 -45 25 -67.5t60 -22.5q44 0 91 17zM262 706h116l77 -156h-106l-39 73h-2l-53 -73h-117z" />
    <glyph glyph-name="Cdotaccent" unicode="&#x10a;" horiz-adv-x="596" 
d="M525 155l12 -138q-61 -28 -179 -28q-139 0 -224 78t-85 211q0 118 49 205t133 138q100 63 245 63q93 0 148 -26l-45 -139q-46 19 -117 19q-84 0 -138 -42q-89 -68 -89 -199q0 -76 44.5 -119t124.5 -43q72 0 121 20zM442 712q-30 0 -51.5 19.5t-21.5 51.5q0 37 24.5 60
t59.5 23q32 0 52.5 -20.5t20.5 -51.5q0 -36 -24.5 -59t-59.5 -23z" />
    <glyph glyph-name="cdotaccent" unicode="&#x10b;" horiz-adv-x="440" 
d="M381 142l-2 -129q-51 -24 -138 -24q-94 0 -154.5 54t-60.5 153q0 134 93 220.5t237 86.5q56 0 98 -15l-40 -129q-24 9 -59 9q-68 0 -109 -44.5t-41 -108.5q0 -45 25 -67.5t61 -22.5q43 0 90 17zM316 545q-31 0 -53 20.5t-22 53.5q0 39 25 63t62 24q34 0 54.5 -21
t20.5 -54q0 -39 -25 -62.5t-62 -23.5z" />
    <glyph glyph-name="Ccaron" unicode="&#x10c;" horiz-adv-x="596" 
d="M524 155l12 -138q-60 -28 -178 -28q-139 0 -224 78t-85 211q0 118 49 205t133 138q100 63 244 63q96 0 148 -26l-44 -139q-49 19 -118 19q-83 0 -138 -42q-88 -68 -88 -199q0 -76 44.5 -119t123.5 -43q72 0 121 20zM487 714h-129l-80 130h116l36 -60h2l53 60h127z" />
    <glyph glyph-name="ccaron" unicode="&#x10d;" horiz-adv-x="440" 
d="M381 142l-2 -129q-51 -24 -138 -24q-94 0 -154.5 54t-60.5 153q0 134 93 220.5t236 86.5q57 0 99 -15l-41 -129q-24 9 -59 9q-67 0 -108 -44.5t-41 -108.5q0 -45 25 -67.5t60 -22.5q44 0 91 17zM363 550h-116l-77 156h106l39 -73h2l54 73h116z" />
    <glyph glyph-name="Dcaron" unicode="&#x10e;" horiz-adv-x="696" 
d="M16 10l124 654q92 15 195 15q157 0 245 -66q100 -77 100 -223q0 -98 -38 -177.5t-102 -129.5q-60 -46 -138 -67t-193 -21q-131 0 -193 15zM289 540l-77 -404q17 -3 52 -3q109 0 170 73q60 74 60 184q0 75 -41 114t-116 39q-31 0 -48 -3zM445 710h-128l-80 130h115l36 -60
h2l53 60h127z" />
    <glyph glyph-name="dcaron" unicode="&#x10f;" horiz-adv-x="582" 
d="M436 710h170l-96 -504q-21 -110 -24 -206h-156l4 72h-2q-55 -83 -153 -83q-64 0 -109.5 49t-45.5 139q0 133 86.5 229.5t224.5 96.5q29 0 59 -10zM348 244l22 115q-17 15 -47 15q-52 0 -86.5 -52.5t-34.5 -115.5q0 -41 16.5 -60.5t40.5 -19.5q27 0 51.5 28.5t37.5 89.5z
M663 490l-64 62q51 46 51 115q0 24 -6 39l113 19q20 -22 20 -64q0 -48 -34 -95t-80 -76z" />
    <glyph glyph-name="Dcroat" unicode="&#x110;" horiz-adv-x="711" 
d="M8 274l28 141h72l47 249q90 15 189 15q167 0 249 -60q102 -77 102 -228q0 -99 -37.5 -178.5t-102.5 -129.5q-60 -46 -138 -67t-193 -21q-131 0 -193 15l51 264h-74zM394 415l-27 -141h-114l-26 -138q17 -3 52 -3q109 0 170 73q60 75 60 180q0 77 -40.5 117t-112.5 40
q-30 0 -52 -4l-24 -124h114z" />
    <glyph glyph-name="dcroat" unicode="&#x111;" horiz-adv-x="575" 
d="M348 244l22 115q-17 15 -47 15q-52 0 -86.5 -52.5t-34.5 -115.5q0 -41 16.5 -60.5t40.5 -19.5q27 0 51 29t38 89zM239 632h182l15 78h170l-14 -78h75l-18 -91h-75l-64 -335q-21 -110 -24 -206h-156l4 72h-2q-55 -83 -153 -83q-64 0 -109.5 49t-45.5 139q0 133 86.5 229.5
t224.5 96.5q29 0 59 -10l9 48h-182z" />
    <glyph glyph-name="Emacron" unicode="&#x112;" horiz-adv-x="538" 
d="M501 416l-28 -144h-237l-25 -127h267l-28 -145h-437l128 674h423l-28 -145h-252l-22 -113h239zM246 825h264l-18 -90h-264z" />
    <glyph glyph-name="emacron" unicode="&#x113;" horiz-adv-x="523" 
d="M432 151l10 -122q-80 -39 -193 -39q-108 0 -165.5 54.5t-57.5 157.5q0 120 80.5 210.5t212.5 90.5q80 0 131.5 -41.5t51.5 -114.5q0 -177 -315 -168q3 -19 18 -32q29 -26 87 -26q77 0 140 30zM343 348q0 13 -12 22.5t-32 9.5q-42 0 -66.5 -24.5t-29.5 -53.5q76 -1 108 10
t32 36zM211 670h258l-18 -89h-258z" />
    <glyph glyph-name="Ebreve" unicode="&#x114;" horiz-adv-x="538" 
d="M501 416l-27 -144h-237l-25 -127h266l-27 -145h-437l128 674h422l-28 -145h-251l-22 -113h238zM227 843h92q0 -48 50 -48q52 0 61 48h94q-21 -130 -165 -130q-74 0 -106 35.5t-26 94.5z" />
    <glyph glyph-name="ebreve" unicode="&#x115;" horiz-adv-x="523" 
d="M432 151l10 -122q-80 -39 -193 -39q-108 0 -165.5 54.5t-57.5 157.5q0 120 80.5 210.5t212.5 90.5q80 0 131.5 -41.5t51.5 -114.5q0 -177 -315 -168q3 -19 18 -32q29 -26 87 -26q77 0 140 30zM343 348q0 13 -12 22.5t-32 9.5q-42 0 -66.5 -24.5t-29.5 -53.5q76 -1 108 10
t32 36zM209 694h83q3 -25 11.5 -38.5t31.5 -13.5q47 0 59 52h85q-22 -135 -152 -135q-68 0 -96.5 36.5t-21.5 98.5z" />
    <glyph glyph-name="Edotaccent" unicode="&#x116;" horiz-adv-x="538" 
d="M501 416l-28 -144h-237l-25 -127h267l-28 -145h-437l128 674h423l-29 -145h-251l-22 -113h239zM363 708q-30 0 -51.5 19.5t-21.5 51.5q0 37 24.5 60t59.5 23q32 0 52.5 -20.5t20.5 -51.5q0 -36 -24.5 -59t-59.5 -23z" />
    <glyph glyph-name="edotaccent" unicode="&#x117;" horiz-adv-x="523" 
d="M432 151l10 -122q-80 -39 -193 -39q-108 0 -165.5 54.5t-57.5 157.5q0 120 80.5 210.5t212.5 90.5q80 0 131.5 -41.5t51.5 -114.5q0 -177 -315 -168q3 -19 18 -32q29 -26 87 -26q77 0 140 30zM343 348q0 13 -12 22.5t-32 9.5q-42 0 -66.5 -24.5t-29.5 -53.5q76 -1 108 10
t32 36zM325 545q-31 0 -53 20.5t-22 53.5q0 39 25 63t62 24q34 0 54.5 -21t20.5 -54q0 -39 -25 -62.5t-62 -23.5z" />
    <glyph glyph-name="Eogonek" unicode="&#x118;" horiz-adv-x="538" 
d="M13 0l128 674h423l-29 -145h-251l-22 -113h239l-28 -144h-237l-25 -127h267l-28 -145h-20q-70 -48 -70 -89q0 -27 26 -27q19 0 46 10l21 -82q-48 -36 -118 -36q-48 0 -74 24t-26 64q0 35 23.5 72t62.5 64h-308z" />
    <glyph glyph-name="eogonek" unicode="&#x119;" horiz-adv-x="523" 
d="M343 348q0 13 -12 22.5t-32 9.5q-42 0 -66.5 -24.5t-29.5 -53.5q76 -1 108 10t32 36zM363 -107l20 -82q-53 -36 -122 -36q-45 0 -70 23t-25 63q0 72 79 128v1q-4 0 -11 0.5t-10 0.5q-96 7 -147 61t-51 150q0 120 80.5 210.5t212.5 90.5q80 0 131.5 -41.5t51.5 -114.5
q0 -177 -315 -168q3 -19 18 -32q29 -26 88 -26q76 0 139 30l10 -122q-2 -1 -68 -28q-83 -51 -83 -93q0 -11 7.5 -18t18.5 -7q19 0 46 10z" />
    <glyph glyph-name="Ecaron" unicode="&#x11a;" horiz-adv-x="538" 
d="M501 416l-28 -144h-236l-25 -127h266l-27 -145h-437l127 674h423l-28 -145h-251l-22 -113h238zM425 710h-129l-79 130h115l36 -60h2l53 60h127z" />
    <glyph glyph-name="ecaron" unicode="&#x11b;" horiz-adv-x="523" 
d="M432 151l10 -122q-80 -39 -193 -39q-108 0 -165.5 54.5t-57.5 157.5q0 120 80.5 210.5t212.5 90.5q80 0 131.5 -41.5t51.5 -114.5q0 -177 -315 -168q3 -19 18 -32q29 -26 87 -26q77 0 140 30zM343 348q0 13 -12 22.5t-32 9.5q-42 0 -66.5 -24.5t-29.5 -53.5q76 -1 108 10
t32 36zM382 550h-116l-77 156h106l39 -73h2l53 73h116z" />
    <glyph glyph-name="Gcircumflex" unicode="&#x11c;" horiz-adv-x="695" 
d="M667 398l-70 -366q-123 -39 -231 -39q-139 0 -226 69q-92 74 -92 214q0 192 140 308q120 97 306 97q127 0 187 -30l-50 -143q-65 27 -143 27q-94 0 -156 -42q-44 -32 -70 -85t-26 -120q0 -76 42.5 -113.5t112.5 -37.5q38 0 61 9l22 117h-91l27 135h257zM422 840h128
l80 -130h-115l-37 57h-2l-52 -57h-127z" />
    <glyph glyph-name="gcircumflex" unicode="&#x11d;" horiz-adv-x="573" 
d="M12 -179l38 130q19 -11 58.5 -18t69.5 -7q112 0 133 112l6 27h-2q-53 -59 -128 -59q-72 0 -116 50.5t-45 126.5q0 61 21.5 117.5t62 102t106 73t146.5 27.5q109 0 193 -34l-74 -404q-30 -160 -105 -218q-72 -56 -198 -56q-108 0 -166 30zM348 250l22 118q-15 5 -39 5
q-52 0 -88.5 -50.5t-36.5 -113.5q0 -35 15 -54t40 -19q29 0 53 29.5t34 84.5zM309 706h116l77 -156h-106l-39 73h-2l-54 -73h-116z" />
    <glyph glyph-name="Gbreve" unicode="&#x11e;" horiz-adv-x="695" 
d="M667 398l-70 -366q-123 -39 -231 -39q-139 0 -226 69q-92 74 -92 214q0 192 140 308q120 97 306 97q127 0 187 -30l-50 -143q-65 27 -143 27q-94 0 -156 -42q-44 -32 -70 -85t-26 -120q0 -76 42.5 -113.5t112.5 -37.5q38 0 61 9l22 117h-91l27 135h257zM322 846h92
q0 -21 12.5 -34.5t37.5 -13.5q51 0 62 48h93q-21 -130 -165 -130q-74 0 -106 35.5t-26 94.5z" />
    <glyph glyph-name="gbreve" unicode="&#x11f;" horiz-adv-x="573" 
d="M12 -179l38 130q19 -11 58.5 -18t69.5 -7q112 0 133 112l6 27h-2q-53 -59 -128 -59q-72 0 -116 50.5t-45 126.5q0 61 21.5 117.5t62 102t106 73t146.5 27.5q109 0 193 -34l-74 -404q-30 -160 -105 -218q-72 -56 -198 -56q-108 0 -166 30zM348 250l22 118q-15 5 -39 5
q-52 0 -88.5 -50.5t-36.5 -113.5q0 -35 15 -54t40 -19q29 0 53 29.5t34 84.5zM234 694h84q2 -25 11 -38.5t32 -13.5q47 0 59 52h84q-9 -63 -47 -99t-105 -36q-68 0 -96.5 36.5t-21.5 98.5z" />
    <glyph glyph-name="Gdotaccent" unicode="&#x120;" horiz-adv-x="695" 
d="M667 398l-70 -366q-123 -39 -231 -39q-139 0 -226 69q-92 74 -92 214q0 192 140 308q120 97 306 97q127 0 187 -30l-50 -143q-65 27 -143 27q-94 0 -156 -42q-44 -32 -70 -85t-26 -120q0 -76 42.5 -113.5t112.5 -37.5q38 0 61 9l22 117h-91l27 135h257zM472 708
q-30 0 -51.5 19.5t-21.5 51.5q0 37 24.5 60t59.5 23q32 0 52.5 -20.5t20.5 -51.5q0 -36 -24.5 -59t-59.5 -23z" />
    <glyph glyph-name="gdotaccent" unicode="&#x121;" horiz-adv-x="573" 
d="M12 -179l38 130q19 -11 58.5 -18t69.5 -7q111 0 134 112l5 27h-2q-53 -59 -128 -59q-72 0 -116 50.5t-45 126.5q-1 130 88.5 225t248.5 95q108 0 192 -34l-73 -404q-30 -159 -105 -218q-73 -56 -199 -56q-108 0 -166 30zM348 250l23 118q-15 5 -40 5q-52 0 -88.5 -50.5
t-36.5 -113.5q0 -35 15 -54t40 -19q29 0 53 29.5t34 84.5zM361 545q-31 0 -53 20.5t-22 53.5q0 39 25 63t62 24q34 0 54.5 -21t20.5 -54q0 -39 -25 -62.5t-62 -23.5z" />
    <glyph glyph-name="Gcommaaccent" unicode="&#x122;" horiz-adv-x="695" 
d="M667 398l-70 -366q-123 -39 -231 -39q-139 0 -226 69q-92 74 -92 214q0 192 140 308q120 97 306 97q127 0 187 -30l-50 -143q-65 27 -143 27q-94 0 -156 -42q-44 -32 -70 -85t-26 -120q0 -76 42.5 -113.5t112.5 -37.5q38 0 61 9l22 117h-91l27 135h257zM245 -248l-16 77
q27 4 49.5 21t22.5 43q0 27 -18 47l124 20q25 -25 25 -65q0 -69 -56.5 -105t-130.5 -38z" />
    <glyph glyph-name="gcommaaccent" unicode="&#x123;" horiz-adv-x="573" 
d="M12 -179l38 130q19 -11 58.5 -18t69.5 -7q111 0 134 112l5 27h-2q-53 -59 -128 -59q-72 0 -116 50.5t-45 126.5q-1 130 88.5 225t248.5 95q108 0 192 -34l-74 -404q-28 -158 -105 -218q-72 -56 -198 -56q-108 0 -166 30zM348 250l23 118q-15 5 -40 5q-52 0 -88.5 -50.5
t-36.5 -113.5q0 -35 15 -54t40 -19q28 0 52 29.5t35 84.5zM474 739l16 -77q-29 -3 -52 -20t-23 -44t18 -47l-117 -19q-25 25 -25 65q0 68 56.5 104t126.5 38z" />
    <glyph glyph-name="Hcircumflex" unicode="&#x124;" horiz-adv-x="683" 
d="M141 674h171l-48 -254h216l48 254h171l-127 -674h-172l51 268h-216l-51 -268h-170zM386 840h128l80 -130h-115l-37 57h-2l-52 -57h-127z" />
    <glyph glyph-name="hcircumflex" unicode="&#x125;" horiz-adv-x="575" 
d="M177 0h-171l135 710h170l-51 -271l2 -1q65 65 147 65q62 0 93.5 -36t31.5 -98q0 -43 -10 -91l-52 -278h-171l50 263q6 28 6 58q0 45 -38 45q-33 0 -60.5 -40t-40.5 -110zM196 873h128l80 -130h-115l-37 57h-2l-52 -57h-127z" />
    <glyph glyph-name="Hbar" unicode="&#x126;" horiz-adv-x="683" 
d="M489 468h-216l-14 -76h215zM40 571h82l20 103h170l-19 -103h215l20 103h171l-19 -103h75l-21 -103h-74l-88 -468h-172l46 240h-216l-45 -240h-171l88 468h-83z" />
    <glyph glyph-name="hbar" unicode="&#x127;" horiz-adv-x="575" 
d="M35 629h90l16 81h170l-15 -81h156l-17 -91h-156l-19 -99l2 -1q65 65 147 65q62 0 93.5 -36t31.5 -98q0 -43 -10 -91l-52 -278h-171l50 263q6 28 6 58q0 45 -38 45q-33 0 -60.5 -40t-40.5 -110l-41 -216h-171l102 538h-90z" />
    <glyph glyph-name="Itilde" unicode="&#x128;" horiz-adv-x="292" 
d="M137 674h171l-128 -674h-170zM161 712h-81q11 69 39 103t67 34q32 0 64 -20q27 -20 40 -20q12 0 19.5 9.5t14.5 35.5h80q-20 -135 -109 -135q-33 0 -65 19q-29 18 -39 18q-21 0 -30 -44z" />
    <glyph glyph-name="itilde" unicode="&#x129;" horiz-adv-x="281" 
d="M176 0h-170l93 492h171zM138 554h-80q10 67 37 102.5t67 35.5q33 0 63 -20t39 -20q12 0 18.5 9.5t14.5 35.5h78q-19 -135 -107 -135q-39 0 -66 20q-22 17 -36 17q-19 0 -28 -45z" />
    <glyph glyph-name="Imacron" unicode="&#x12a;" horiz-adv-x="292" 
d="M138 674h170l-127 -674h-171zM122 825h264l-18 -90h-264z" />
    <glyph glyph-name="imacron" unicode="&#x12b;" horiz-adv-x="281" 
d="M177 0h-171l93 492h171zM90 670h259l-18 -89h-259z" />
    <glyph glyph-name="Ibreve" unicode="&#x12c;" horiz-adv-x="292" 
d="M138 674h170l-127 -674h-171zM104 848h92q0 -48 50 -48q52 0 61 48h94q-21 -130 -165 -130q-74 0 -106 35.5t-26 94.5z" />
    <glyph glyph-name="ibreve" unicode="&#x12d;" horiz-adv-x="281" 
d="M177 0h-171l93 492h171zM88 694h83q3 -25 11.5 -38.5t31.5 -13.5q47 0 59 52h85q-22 -135 -152 -135q-68 0 -96.5 36.5t-21.5 98.5z" />
    <glyph glyph-name="Iogonek" unicode="&#x12e;" horiz-adv-x="292" 
d="M308 674l-128 -674h-77q-29 -43 -29 -75q0 -40 43 -40q21 0 48 8l9 -82q-45 -36 -115 -36q-50 0 -78 24.5t-28 70.5q0 58 58 131l126 673h171z" />
    <glyph glyph-name="iogonek" unicode="&#x12f;" horiz-adv-x="281" 
d="M201 544q-37 0 -60.5 23t-23.5 61q0 44 29.5 72t71.5 28q39 0 63.5 -23t24.5 -62q0 -46 -30.5 -72.5t-74.5 -26.5zM270 492l-94 -492h-77q-29 -43 -29 -75q0 -40 43 -40q21 0 48 8l9 -82q-45 -36 -115 -36q-50 0 -78 24.5t-28 70.5q0 58 58 131l92 491h171z" />
    <glyph glyph-name="Idotaccent" unicode="&#x130;" horiz-adv-x="292" 
d="M137 674h170l-127 -674h-171zM242 708q-30 0 -51.5 19.5t-21.5 51.5q0 37 24.5 60t59.5 23q32 0 52.5 -20.5t20.5 -51.5q0 -36 -24.5 -59t-59.5 -23z" />
    <glyph glyph-name="dotlessi" unicode="&#x131;" horiz-adv-x="281" 
d="M177 0h-171l93 492h171z" />
    <glyph glyph-name="IJ" unicode="&#x132;" horiz-adv-x="706" 
d="M138 674h170l-127 -674h-171zM480 259l78 415h171l-84 -437q-25 -132 -88.5 -190t-186.5 -58q-78 0 -115 16l32 145q39 -11 78 -11q47 0 74.5 26.5t40.5 93.5z" />
    <glyph glyph-name="ij" unicode="&#x133;" horiz-adv-x="577" 
d="M176 0h-170l93 492h171zM201 542q-34 0 -56.5 21.5t-22.5 57.5q0 40 28 66t67 26q36 0 59 -21.5t23 -57.5q0 -43 -28.5 -67.5t-69.5 -24.5zM399 492h169l-87 -469q-23 -124 -72 -177q-48 -55 -143 -55q-42 0 -74 8l18 129q11 -2 30 -2q25 0 42.5 19.5t27.5 75.5zM495 542
q-34 0 -56.5 21.5t-22.5 57.5q0 40 28 66t67 26q36 0 59 -21.5t23 -57.5q0 -43 -28.5 -67.5t-69.5 -24.5z" />
    <glyph glyph-name="Jcircumflex" unicode="&#x134;" horiz-adv-x="414" 
d="M188 258l79 416h170l-83 -437q-26 -133 -89.5 -190.5t-186.5 -57.5q-78 0 -115 16l32 145q39 -11 79 -11q46 0 73.5 26.5t40.5 92.5zM314 840h129l80 -130h-116l-36 57h-2l-53 -57h-127z" />
    <glyph glyph-name="jcircumflex" unicode="&#x135;" horiz-adv-x="297" 
d="M118 492h169l-87 -469q-22 -123 -71 -177q-48 -55 -143 -55q-42 0 -75 8l19 129q11 -2 30 -2q25 0 42 19t27 76zM166 706h112l77 -156h-104l-39 82h-2l-54 -82h-114z" />
    <glyph glyph-name="Kcommaaccent" unicode="&#x136;" horiz-adv-x="623" 
d="M13 0l128 674h168l-55 -290h2q8 12 58 78l166 212h212l-268 -292l149 -382h-186l-98 277l-67 -65l-41 -212h-168zM166 -248l-17 77q27 4 49.5 21t22.5 43q0 27 -18 47l124 20q25 -25 25 -65q0 -68 -56.5 -104.5t-129.5 -38.5z" />
    <glyph glyph-name="kcommaaccent" unicode="&#x137;" horiz-adv-x="562" 
d="M176 0h-170l135 710h169l-79 -416h2q15 20 43 58l106 140h210l-207 -203l132 -289h-190l-73 197l-50 -51zM136 -248l-17 77q27 4 49.5 21t22.5 43q0 27 -18 47l124 20q25 -25 25 -65q0 -68 -56.5 -104.5t-129.5 -38.5z" />
    <glyph glyph-name="kgreenlandic" unicode="&#x138;" horiz-adv-x="562" 
d="M176 0h-170l93 492h170l-38 -198h2q15 20 43 58l106 140h210l-207 -203l132 -289h-190l-73 197l-51 -51z" />
    <glyph glyph-name="Lacute" unicode="&#x139;" horiz-adv-x="507" 
d="M13 0l128 674h170l-99 -525h254l-28 -149h-425zM265 840h183l-130 -130h-144z" />
    <glyph glyph-name="lacute" unicode="&#x13a;" horiz-adv-x="281" 
d="M178 0h-171l136 710h170zM242 880h183l-130 -130h-143z" />
    <glyph glyph-name="Lcommaaccent" unicode="&#x13b;" horiz-adv-x="507" 
d="M14 0l127 674h170l-98 -525h253l-28 -149h-424zM112 -248l-17 77q27 4 49.5 21t22.5 43q0 27 -18 47l124 20q25 -25 25 -65q0 -68 -56.5 -104.5t-129.5 -38.5z" />
    <glyph glyph-name="lcommaaccent" unicode="&#x13c;" horiz-adv-x="281" 
d="M177 0h-170l136 710h170zM-12 -248l-17 77q27 4 49.5 21t22.5 43q0 27 -18 47l124 20q25 -25 25 -65q0 -68 -56.5 -104.5t-129.5 -38.5z" />
    <glyph glyph-name="Lcaron" unicode="&#x13d;" horiz-adv-x="507" 
d="M14 0l127 674h171l-99 -525h253l-28 -149h-424zM350 472l-17 77q27 4 49.5 21t22.5 43q0 27 -18 47l124 20q25 -25 25 -65q0 -69 -56.5 -105t-129.5 -38z" />
    <glyph glyph-name="lcaron" unicode="&#x13e;" horiz-adv-x="289" 
d="M177 0h-170l135 710h171zM380 490l-68 58q21 21 36 54t15 65q0 24 -6 39l113 19q20 -22 20 -64q0 -56 -34.5 -102.5t-75.5 -68.5z" />
    <glyph glyph-name="Ldot" unicode="&#x13f;" horiz-adv-x="511" 
d="M14 0l127 674h171l-99 -525h253l-28 -149h-424zM408 305q-30 0 -51.5 19.5t-21.5 51.5q0 36 24.5 59t59.5 23q33 0 53 -20t20 -51q0 -36 -24.5 -59t-59.5 -23z" />
    <glyph glyph-name="ldot" unicode="&#x140;" horiz-adv-x="395" 
d="M177 0h-170l135 710h171zM351 278q-28 0 -48.5 19.5t-20.5 51.5q0 37 23 60t57 23q31 0 50 -20t19 -52q0 -37 -23 -59.5t-57 -22.5z" />
    <glyph glyph-name="Lslash" unicode="&#x141;" horiz-adv-x="521" 
d="M451 0h-424l41 221l-80 -48l24 122l79 48l63 331h171l-41 -214l136 82l-23 -123l-137 -82l-34 -188h253z" />
    <glyph glyph-name="lslash" unicode="&#x142;" horiz-adv-x="296" 
d="M184 0h-169l39 204l-73 -49l24 126l73 49l72 380h170l-48 -248l82 55l-24 -126l-82 -55z" />
    <glyph glyph-name="Nacute" unicode="&#x143;" horiz-adv-x="681" 
d="M172 0h-158l127 674h203l61 -204q41 -140 62 -248h3q4 98 32 255l37 197h159l-127 -674h-179l-68 220q-49 165 -67 252h-3q-12 -97 -47 -286zM428 840h183l-130 -130h-143z" />
    <glyph glyph-name="nacute" unicode="&#x144;" horiz-adv-x="576" 
d="M176 0h-170l61 324q11 54 28 168h150l-8 -76h2q66 87 168 87q65 0 96 -36t31 -98q0 -38 -8 -84l-55 -285h-170l50 267q5 27 5 51q0 48 -37 48q-33 0 -61 -41t-42 -115zM363 706h160l-129 -156h-124z" />
    <glyph glyph-name="Ncommaaccent" unicode="&#x145;" horiz-adv-x="681" 
d="M172 0h-158l127 674h203l60 -204q37 -121 63 -248h2q4 102 33 255l36 197h159l-127 -674h-178l-68 220q-45 147 -67 252h-4q-10 -92 -46 -286zM196 -248l-17 77q27 4 49.5 21t22.5 43q0 27 -18 47l124 20q25 -25 25 -65q0 -68 -56.5 -104.5t-129.5 -38.5z" />
    <glyph glyph-name="ncommaaccent" unicode="&#x146;" horiz-adv-x="576" 
d="M176 0h-170l61 324q11 54 28 168h150l-8 -76h2q66 87 168 87q65 0 96 -36t31 -98q0 -38 -8 -84l-55 -285h-170l50 267q5 27 5 51q0 48 -37 48q-33 0 -61 -41t-42 -115zM142 -248l-16 77q27 4 49.5 21t22.5 43q0 27 -18 47l124 20q25 -25 25 -65q0 -68 -57 -104.5
t-130 -38.5z" />
    <glyph glyph-name="Ncaron" unicode="&#x147;" horiz-adv-x="681" 
d="M172 0h-158l127 674h203l61 -204q41 -140 62 -248h3q4 98 32 255l37 197h159l-127 -674h-179l-68 220q-49 165 -67 252h-3q-12 -97 -47 -286zM495 710h-129l-80 130h116l35 -60h2l53 60h127z" />
    <glyph glyph-name="ncaron" unicode="&#x148;" horiz-adv-x="576" 
d="M176 0h-170l61 324q11 54 28 168h150l-8 -76h2q66 87 168 87q65 0 96 -36t31 -98q0 -38 -8 -84l-55 -285h-170l50 267q5 27 5 51q0 48 -37 48q-33 0 -61 -41t-42 -115zM388 550h-116l-77 156h106l39 -73h2l54 73h116z" />
    <glyph glyph-name="napostrophe" unicode="&#x149;" horiz-adv-x="576" 
d="M176 0h-170l61 324q11 54 28 168h150l-8 -76h2q66 87 168 87q65 0 96 -36t31 -98q0 -38 -8 -84l-55 -285h-170l50 267q5 27 5 51q0 48 -37 48q-33 0 -61 -41t-42 -115zM72 542l-19 76q18 5 32 24t14 41q0 28 -17 47l116 19q25 -25 25 -65q0 -67 -49.5 -104t-101.5 -38z
" />
    <glyph glyph-name="Eng" unicode="&#x14a;" horiz-adv-x="681" 
d="M288 -219l-17 137q45 6 79 25.5t44 45.5l-70 231q-45 147 -67 252h-3q-12 -97 -47 -286l-35 -186h-158l127 674h203l61 -204q41 -140 62 -248h3q4 98 32 255l37 197h159l-117 -621q-50 -262 -293 -272z" />
    <glyph glyph-name="eng" unicode="&#x14b;" horiz-adv-x="576" 
d="M227 -196l-16 139q43 3 65.5 25t31.5 69l43 230q5 27 5 51q0 48 -37 48q-33 0 -61 -41t-42 -115l-40 -210h-170l61 324q15 82 28 168h150l-8 -76h2q66 87 167 87q64 0 96 -36.5t32 -98.5q0 -37 -8 -83l-44 -231q-27 -139 -90.5 -194t-164.5 -56z" />
    <glyph glyph-name="Omacron" unicode="&#x14c;" horiz-adv-x="721" 
d="M328 -11q-129 0 -205 79.5t-76 204.5q0 93 32.5 176t90.5 138q103 98 255 98q131 0 205.5 -77.5t74.5 -205.5q0 -94 -31 -177t-88 -138q-103 -98 -258 -98zM354 131q53 0 94 41q35 35 55 101t20 124q0 66 -28 106t-90 40q-57 0 -100 -43q-35 -35 -55.5 -99t-20.5 -124
q0 -68 31.5 -107t93.5 -39zM325 825h265l-18 -90h-265z" />
    <glyph glyph-name="omacron" unicode="&#x14d;" horiz-adv-x="575" 
d="M243 -11q-96 0 -156 55t-60 149q0 132 84.5 221t218.5 89q98 0 157 -57t59 -145q0 -141 -85.5 -226.5t-217.5 -85.5zM267 118q33 0 57 31.5t34.5 71.5t10.5 78q0 33 -15 54t-46 21q-34 0 -59 -33t-35 -72t-10 -73q0 -37 16.5 -57.5t46.5 -20.5zM238 670h259l-18 -89h-259
z" />
    <glyph glyph-name="Obreve" unicode="&#x14e;" horiz-adv-x="721" 
d="M328 -11q-129 0 -205 79.5t-76 204.5q0 93 32.5 176t90.5 138q103 98 255 98q131 0 205.5 -77.5t74.5 -205.5q0 -94 -31 -177t-88 -138q-103 -98 -258 -98zM354 131q53 0 94 41q35 35 55 101t20 124q0 66 -28 106t-90 40q-57 0 -100 -43q-35 -35 -55.5 -99t-20.5 -124
q0 -68 31.5 -107t93.5 -39zM308 848h92q0 -48 50 -48q51 0 62 48h93q-21 -130 -165 -130q-74 0 -106.5 35.5t-25.5 94.5z" />
    <glyph glyph-name="obreve" unicode="&#x14f;" horiz-adv-x="575" 
d="M243 -11q-96 0 -156 55t-60 149q0 132 84.5 221t218.5 89q98 0 157 -57t59 -145q0 -141 -85.5 -226.5t-217.5 -85.5zM267 118q33 0 57 31.5t34.5 71.5t10.5 78q0 33 -15 54t-46 21q-34 0 -59 -33t-35 -72t-10 -73q0 -37 16.5 -57.5t46.5 -20.5zM236 694h83
q3 -25 12 -38.5t32 -13.5q48 0 58 52h85q-9 -63 -47 -99t-105 -36q-68 0 -96.5 36.5t-21.5 98.5z" />
    <glyph glyph-name="Ohungarumlaut" unicode="&#x150;" horiz-adv-x="721" 
d="M328 -11q-129 0 -205 79.5t-76 204.5q0 93 32.5 176t90.5 138q103 98 255 98q131 0 205.5 -77.5t74.5 -205.5q0 -94 -31 -177t-88 -138q-103 -98 -258 -98zM354 131q53 0 94 41q35 35 55 101t20 124q0 66 -28 106t-90 40q-57 0 -100 -43q-35 -35 -55.5 -99t-20.5 -124
q0 -68 31.5 -107t93.5 -39zM352 842h160l-119 -122h-123zM550 842h159l-118 -122h-123z" />
    <glyph glyph-name="ohungarumlaut" unicode="&#x151;" horiz-adv-x="575" 
d="M243 -11q-96 0 -156 55t-60 149q0 132 84.5 221t218.5 89q98 0 157 -57t59 -145q0 -141 -85.5 -226.5t-217.5 -85.5zM267 118q33 0 57 31.5t34.5 71.5t10.5 78q0 33 -15 54t-46 21q-34 0 -59 -33t-35 -72t-10 -73q0 -37 16.5 -57.5t46.5 -20.5zM257 705h138l-118 -156
h-100zM446 705h138l-118 -156h-100z" />
    <glyph glyph-name="OE" unicode="&#x152;" horiz-adv-x="927" 
d="M867 145l-26 -145h-370q-15 0 -50 -5q-30 -6 -85 -6q-136 0 -215.5 78.5t-79.5 205.5q0 177 113.5 294.5t298.5 117.5q30 0 93 -6q48 -5 68 -5h339l-27 -145h-253l-20 -113h237l-26 -144h-239l-23 -127h265zM429 139l75 394q-23 10 -63 10q-92 0 -154.5 -75.5
t-62.5 -182.5q0 -71 42 -112.5t108 -41.5q29 0 55 8z" />
    <glyph glyph-name="oe" unicode="&#x153;" horiz-adv-x="837" 
d="M750 150l8 -119q-75 -42 -185 -42q-115 0 -167 75h-3q-61 -75 -170 -75q-91 0 -149 57t-58 156q0 132 79.5 216.5t194.5 84.5q113 0 161 -75h2q67 75 176 75q84 0 131 -44t47 -105q0 -52 -26.5 -89t-73 -55t-98 -25.5t-112.5 -5.5q0 -15 16 -31q31 -26 90 -26
q68 0 137 28zM263 120q49 0 76 57t27 117q0 82 -60 82q-49 0 -76.5 -55t-27.5 -118q0 -37 16.5 -60t44.5 -23zM659 341q0 39 -52 39q-34 0 -55.5 -24.5t-27.5 -53.5q135 -6 135 39z" />
    <glyph glyph-name="Racute" unicode="&#x154;" horiz-adv-x="610" 
d="M15 0l126 661q71 18 195 18q121 0 184 -34q85 -46 85 -141q0 -137 -149 -188l-1 -4q49 -25 60 -118q3 -20 8 -70t9.5 -80.5t10.5 -43.5h-175q-9 30 -21 158q-4 56 -23.5 76t-60.5 20h-31l-48 -254h-169zM287 542l-31 -161h53q51 0 85 27t34 70q0 33 -25.5 50t-65.5 17
q-35 0 -50 -3zM368 840h182l-130 -130h-143z" />
    <glyph glyph-name="racute" unicode="&#x155;" horiz-adv-x="392" 
d="M177 0h-171l54 282q6 35 11 76.5t9 82t5 51.5h147q-4 -66 -7 -99h3q61 110 159 110q19 0 29 -1l-34 -166q-3 0 -10.5 0.5t-11.5 0.5q-69 0 -103 -45.5t-49 -123.5zM257 706h161l-129 -156h-124z" />
    <glyph glyph-name="Rcommaaccent" unicode="&#x156;" horiz-adv-x="610" 
d="M14 0l126 661q70 18 195 18q122 0 185 -34q85 -46 85 -141q0 -137 -149 -188l-1 -4q49 -25 60 -118q3 -20 8 -70t9.5 -80.5t10.5 -43.5h-176q-9 30 -21 158q-4 56 -23.5 76t-60.5 20h-31l-48 -254h-169zM286 542l-31 -161h53q51 0 85.5 27t34.5 70q0 33 -26 50t-66 17
q-35 0 -50 -3zM160 -248l-17 77q27 4 49.5 21t22.5 43q0 27 -18 47l124 20q25 -25 25 -65q0 -68 -56.5 -104.5t-129.5 -38.5z" />
    <glyph glyph-name="rcommaaccent" unicode="&#x157;" horiz-adv-x="392" 
d="M177 0h-171l54 282q6 35 11 76.5t9 82t5 51.5h147q-4 -66 -7 -99h3q61 110 159 110q19 0 29 -1l-34 -166q-3 0 -10.5 0.5t-11.5 0.5q-69 0 -103 -45.5t-49 -123.5zM-2 -248l-16 77q27 4 49.5 21t22.5 43q0 27 -18 47l124 20q25 -25 25 -65q0 -68 -57 -104.5t-130 -38.5z
" />
    <glyph glyph-name="Rcaron" unicode="&#x158;" horiz-adv-x="610" 
d="M15 0l126 661q71 18 195 18q121 0 184 -34q85 -46 85 -141q0 -137 -149 -188l-1 -4q49 -25 60 -118q3 -20 8 -70t9.5 -80.5t10.5 -43.5h-175q-9 30 -21 158q-4 56 -23.5 76t-60.5 20h-31l-48 -254h-169zM287 542l-31 -161h53q51 0 85 27t34 70q0 33 -25.5 50t-65.5 17
q-35 0 -50 -3zM427 710h-129l-80 130h116l35 -60h2l53 60h127z" />
    <glyph glyph-name="rcaron" unicode="&#x159;" horiz-adv-x="392" 
d="M177 0h-171l54 282q6 35 11 76.5t9 82t5 51.5h147q-4 -66 -7 -99h3q61 110 159 110q19 0 29 -1l-34 -166q-3 0 -10.5 0.5t-11.5 0.5q-69 0 -103 -45.5t-49 -123.5zM309 550h-115l-78 156h107l38 -73h2l54 73h116z" />
    <glyph glyph-name="Sacute" unicode="&#x15a;" horiz-adv-x="529" 
d="M-5 38l56 140q75 -42 166 -42q38 -1 64 14t26 43q0 24 -19.5 40.5t-68.5 42.5q-142 74 -142 180q0 104 80.5 166t201.5 62q101 0 169 -32l-53 -143q-61 30 -129 28q-43 0 -66 -15t-23 -38q0 -29 82 -74q9 -5 14 -8q136 -70 136 -178q0 -78 -42 -133t-105 -78.5
t-141 -23.5q-140 3 -206 49zM349 840h183l-130 -130h-143z" />
    <glyph glyph-name="sacute" unicode="&#x15b;" horiz-adv-x="436" 
d="M-9 31l40 117q75 -35 138 -35q48 0 48 29q0 14 -13 25.5t-45 25.5q-110 53 -110 133t64.5 128.5t167.5 48.5q87 0 137 -26l-39 -119q-48 21 -104 21q-54 0 -54 -30q0 -20 56 -45q25 -12 41.5 -22.5t36.5 -27t30 -38.5t10 -48q0 -85 -66.5 -132t-175.5 -46q-112 3 -162 41
zM276 706h161l-129 -156h-124z" />
    <glyph glyph-name="Scircumflex" unicode="&#x15c;" horiz-adv-x="529" 
d="M-5 38l56 140q75 -42 166 -42q38 -1 64 14t26 43q0 24 -19.5 40.5t-68.5 42.5q-142 74 -142 180q0 104 80.5 166t201.5 62q101 0 169 -32l-53 -143q-61 30 -129 28q-43 0 -66 -15t-23 -38q0 -29 82 -74q9 -5 14 -8q136 -70 136 -178q0 -78 -42 -133t-105 -78.5
t-141 -23.5q-140 3 -206 49zM310 840h128l80 -130h-115l-37 57h-2l-52 -57h-127z" />
    <glyph glyph-name="scircumflex" unicode="&#x15d;" horiz-adv-x="436" 
d="M-9 31l40 117q75 -35 138 -35q48 0 48 29q0 14 -13 25.5t-45 25.5q-110 53 -110 133t64.5 128.5t167.5 48.5q87 0 137 -26l-39 -119q-48 21 -104 21q-54 0 -54 -30q0 -20 56 -45q25 -12 41.5 -22.5t36.5 -27t30 -38.5t10 -48q0 -85 -66.5 -132t-175.5 -46q-112 3 -162 41
zM237 706h116l78 -156h-107l-38 73h-2l-54 -73h-116z" />
    <glyph glyph-name="Scedilla" unicode="&#x15e;" horiz-adv-x="529" 
d="M528 652l-53 -143q-59 29 -129 28q-43 0 -66 -15t-23 -38q0 -29 82 -74q9 -5 14 -8q136 -70 136 -178q0 -96 -58.5 -154t-152.5 -75l-25 -35q28 -7 46 -25.5t18 -43.5q0 -52 -41 -75.5t-93 -23.5q-54 0 -83 22l27 64q26 -17 55 -17q33 0 33 24q0 30 -74 35l45 69h-5
q-41 0 -97 13t-89 36l56 140q75 -42 166 -42q38 0 64 14.5t26 42.5q0 24 -19.5 40.5t-68.5 42.5q-142 74 -142 180q0 104 80.5 166t201.5 62q101 0 169 -32z" />
    <glyph glyph-name="scedilla" unicode="&#x15f;" horiz-adv-x="436" 
d="M418 477l-39 -119q-48 21 -104 21q-54 0 -54 -30q0 -20 56 -44q52 -24 85 -56t33 -82q0 -68 -43.5 -112.5t-118.5 -58.5l-25 -36q28 -7 46 -24.5t18 -40.5q0 -52 -41 -75.5t-93 -23.5q-54 0 -83 22l27 60q26 -17 55 -17q33 0 33 24q0 30 -74 35l44 70h-4q-33 0 -78 11.5
t-67 28.5l40 117q75 -35 138 -35q48 0 48 29q0 25 -58 52q-110 53 -110 133t64.5 128.5t167.5 48.5q87 0 137 -26z" />
    <glyph glyph-name="Scaron" unicode="&#x160;" horiz-adv-x="529" 
d="M-5 38l56 140q75 -42 166 -42q38 -1 64 14t26 43q0 24 -19.5 40.5t-68.5 42.5q-142 74 -142 180q0 104 80.5 166t201.5 62q101 0 169 -32l-53 -143q-61 30 -129 28q-43 0 -66 -15t-23 -38q0 -29 82 -74q9 -5 14 -8q136 -70 136 -178q0 -78 -42 -133t-105 -78.5
t-141 -23.5q-140 3 -206 49zM412 710h-129l-80 130h116l36 -60h2l53 60h127z" />
    <glyph glyph-name="scaron" unicode="&#x161;" horiz-adv-x="436" 
d="M-9 31l40 117q75 -35 138 -35q48 0 48 29q0 14 -13 25.5t-45 25.5q-110 53 -110 133t64.5 128.5t167.5 48.5q87 0 137 -26l-39 -119q-48 21 -104 21q-54 0 -54 -30q0 -20 56 -45q25 -12 41.5 -22.5t36.5 -27t30 -38.5t10 -48q0 -85 -66.5 -132t-175.5 -46q-112 3 -162 41
zM330 550h-116l-77 156h106l39 -73h2l54 73h116z" />
    <glyph glyph-name="Tcommaaccent" unicode="&#x162;" horiz-adv-x="550" 
d="M139 0l98 525h-169l29 149h512l-29 -149h-173l-98 -525h-170zM119 -248l-17 77q27 4 49.5 21t22.5 43q0 27 -18 47l124 20q25 -25 25 -65q0 -68 -56.5 -104.5t-129.5 -38.5z" />
    <glyph glyph-name="tcommaaccent" unicode="&#x163;" horiz-adv-x="364" 
d="M134 584l175 48l-26 -140h100l-25 -129h-100l-28 -136q-7 -37 -7 -56q0 -38 40 -38q26 0 40 1l-22 -133q-32 -12 -94 -12q-68 0 -103.5 29.5t-35.5 80.5q0 37 10 91l34 173h-60l25 129h60zM36 -248l-16 76q28 5 50 21.5t22 43.5t-18 47l124 19q25 -23 25 -65
q0 -47 -30 -80t-70.5 -47t-86.5 -15z" />
    <glyph glyph-name="Tcaron" unicode="&#x164;" horiz-adv-x="550" 
d="M139 0l98 525h-169l29 149h512l-29 -149h-172l-99 -525h-170zM423 710h-128l-80 130h116l35 -60h2l53 60h127z" />
    <glyph glyph-name="tcaron" unicode="&#x165;" horiz-adv-x="364" 
d="M134 584l175 48l-25 -140h99l-25 -129h-100l-28 -136q-7 -37 -7 -56q0 -38 40 -38q27 0 40 1l-22 -133q-32 -12 -94 -12q-68 0 -103.5 29.5t-35.5 80.5q0 37 10 91l34 173h-60l25 129h60zM395 533l-40 69q16 8 25 25.5t9 34.5q0 26 -13 49l111 19q11 -9 19.5 -28.5
t8.5 -38.5q0 -55 -39 -89t-81 -41z" />
    <glyph glyph-name="Tbar" unicode="&#x166;" horiz-adv-x="550" 
d="M480 277h-119l-52 -277h-170l52 277h-114l20 103h113l27 145h-169l29 149h512l-29 -149h-172l-27 -145h119z" />
    <glyph glyph-name="tbar" unicode="&#x167;" horiz-adv-x="364" 
d="M35 313h47l10 50h-60l25 129h60l17 92l175 48l-26 -140h100l-25 -129h-100l-10 -50h91l-18 -89h-91l-4 -22q-3 -17 -3 -30q0 -39 40 -39q26 0 40 1l-22 -133q-32 -12 -94 -12q-68 0 -103.5 29.5t-35.5 80.5q0 36 10 92l7 33h-48z" />
    <glyph glyph-name="Utilde" unicode="&#x168;" horiz-adv-x="670" 
d="M138 674h170l-72 -383q-8 -34 -8 -78q1 -34 23 -58t64 -24q52 0 84 37.5t48 121.5l72 384h171l-71 -375q-30 -160 -104.5 -235t-219.5 -75q-114 -1 -175.5 56t-61.5 165q0 41 10 96zM362 715h-81q11 69 39 103t67 34q30 0 64 -20q27 -20 39 -20t19.5 9.5t14.5 35.5h80
q-20 -135 -109 -135q-34 0 -64 19q-29 18 -39 18q-21 0 -30 -44z" />
    <glyph glyph-name="utilde" unicode="&#x169;" horiz-adv-x="575" 
d="M392 492h171l-61 -324q-11 -54 -28 -168h-150l7 75h-2q-71 -86 -168 -86q-63 0 -94 35.5t-31 100.5q0 36 10 94l52 273h171l-49 -259q-7 -35 -7 -62q0 -44 37 -44q33 0 60.5 39t40.5 108zM286 554h-80q10 67 37 102.5t67 35.5q33 0 63 -20t38 -20q12 0 18.5 9.5
t14.5 35.5h78q-19 -135 -106 -135q-39 0 -66 20q-22 17 -36 17q-19 0 -28 -45z" />
    <glyph glyph-name="Umacron" unicode="&#x16a;" horiz-adv-x="670" 
d="M138 674h170l-73 -383q-7 -37 -7 -78q1 -34 23 -58t63 -24q53 0 84.5 37.5t47.5 121.5l73 384h171l-71 -375q-30 -160 -104.5 -235t-220.5 -75q-114 -1 -175 56t-61 165q0 41 10 96zM311 825h264l-18 -90h-264z" />
    <glyph glyph-name="umacron" unicode="&#x16b;" horiz-adv-x="575" 
d="M392 492h171l-61 -324q-11 -54 -28 -168h-150l7 75h-2q-71 -86 -168 -86q-63 0 -94 35.5t-31 100.5q0 36 10 94l52 273h171l-49 -259q-7 -35 -7 -62q0 -44 37 -44q33 0 60.5 39t40.5 108zM237 670h260l-18 -89h-260z" />
    <glyph glyph-name="Ubreve" unicode="&#x16c;" horiz-adv-x="670" 
d="M138 674h170l-73 -383q-7 -37 -7 -78q1 -34 23 -58t63 -24q53 0 84.5 37.5t47.5 121.5l73 384h171l-71 -375q-30 -160 -104.5 -235t-220.5 -75q-114 -1 -175 56t-61 165q0 41 10 96zM293 840h92q-1 -20 11.5 -34t37.5 -14q53 0 62 48h94q-23 -130 -166 -130
q-74 0 -106 35.5t-25 94.5z" />
    <glyph glyph-name="ubreve" unicode="&#x16d;" horiz-adv-x="575" 
d="M392 492h171l-61 -324q-11 -54 -28 -168h-150l7 75h-2q-71 -86 -168 -86q-63 0 -94 35.5t-31 100.5q0 36 10 94l52 273h171l-49 -259q-7 -35 -7 -62q0 -44 37 -44q33 0 60.5 39t40.5 108zM230 694h84q3 -25 11.5 -38.5t31.5 -13.5q47 0 59 52h85q-22 -135 -153 -135
q-68 0 -96.5 36.5t-21.5 98.5z" />
    <glyph glyph-name="Uring" unicode="&#x16e;" horiz-adv-x="670" 
d="M138 674h170l-73 -383q-7 -37 -7 -78q1 -34 23 -58t63 -24q53 0 84.5 37.5t47.5 121.5l73 384h171l-71 -375q-30 -160 -104.5 -235t-220.5 -75q-114 -1 -175 56t-61 165q0 41 10 96zM436 893q49 0 81.5 -24t32.5 -69q-1 -48 -38.5 -76t-95.5 -28q-46 0 -78.5 24t-33.5 64
q-1 49 36 79t96 30zM428 838q-20 0 -32.5 -13.5t-12.5 -34.5q0 -18 10.5 -29t29.5 -11q21 0 34 13.5t13 32.5t-11 30.5t-31 11.5z" />
    <glyph glyph-name="uring" unicode="&#x16f;" horiz-adv-x="575" 
d="M392 492h171l-61 -324q-11 -54 -28 -168h-150l7 75h-2q-71 -86 -168 -86q-63 0 -94 35.5t-31 100.5q0 36 10 94l52 273h171l-49 -259q-7 -35 -7 -62q0 -44 37 -44q33 0 60.5 39t40.5 108zM370 741q48 0 80 -24.5t32 -70.5q-1 -50 -38.5 -78t-94.5 -28q-46 0 -77.5 24
t-32.5 66q-1 51 35.5 81t95.5 30zM362 686q-21 0 -33.5 -14.5t-12.5 -35.5q0 -17 10.5 -29t29.5 -12q22 0 35.5 14t13.5 33q0 44 -43 44z" />
    <glyph glyph-name="Uhungarumlaut" unicode="&#x170;" horiz-adv-x="670" 
d="M138 674h170l-73 -383q-7 -37 -7 -78q1 -34 23 -58t63 -24q53 0 84.5 37.5t47.5 121.5l73 384h171l-71 -375q-30 -160 -104.5 -235t-220.5 -75q-114 -1 -175 56t-61 165q0 41 10 96zM326 842h160l-119 -122h-123zM523 842h160l-118 -122h-123z" />
    <glyph glyph-name="uhungarumlaut" unicode="&#x171;" horiz-adv-x="575" 
d="M392 492h171l-61 -324q-11 -54 -28 -168h-150l7 75h-2q-71 -86 -168 -86q-63 0 -94 35.5t-31 100.5q0 36 10 94l52 273h171l-49 -259q-7 -35 -7 -62q0 -44 37 -44q33 0 60.5 39t40.5 108zM265 705h138l-119 -156h-100zM453 705h138l-118 -156h-100z" />
    <glyph glyph-name="Uogonek" unicode="&#x172;" horiz-adv-x="670" 
d="M392 -109l21 -83q-45 -32 -119 -32q-46 0 -72.5 24t-26.5 66q0 64 72 124q-3 0 -7.5 0.5t-7.5 0.5q-93 8 -143.5 64.5t-50.5 154.5q0 41 10 96l70 368h170l-73 -383q-7 -39 -7 -78q1 -34 23 -58t64 -24q52 0 84 37.5t48 121.5l72 384h171l-71 -375q-23 -121 -69.5 -192
t-128.5 -99q-22 -7 -42 -21q-27 -17 -43 -39.5t-16 -38.5q0 -11 7.5 -18t18.5 -7q18 0 46 7z" />
    <glyph glyph-name="uogonek" unicode="&#x173;" horiz-adv-x="575" 
d="M563 492l-61 -324q-15 -82 -28 -168h-58q-29 -43 -29 -75q0 -40 43 -40q21 0 48 8l9 -82q-45 -36 -115 -36q-50 0 -78 24.5t-28 70.5q0 58 58 131l7 74h-2q-71 -86 -168 -86q-63 0 -94 35.5t-31 100.5q0 36 10 94l52 273h171l-49 -259q-7 -35 -7 -62q0 -44 37 -44
q33 0 60.5 39t40.5 108l41 218h171z" />
    <glyph glyph-name="Wcircumflex" unicode="&#x174;" horiz-adv-x="879" 
d="M303 0h-190l-23 674h172l-5 -254q-5 -181 -7 -238h2q15 40 43 120t41 116l92 256h189l-9 -263q-5 -130 -10 -225h2q37 115 78 234l88 254h180l-290 -674h-188l1 230q0 115 8 237h-2q-67 -195 -88 -250zM484 840h129l80 -130h-116l-36 57h-2l-53 -57h-127z" />
    <glyph glyph-name="wcircumflex" unicode="&#x175;" horiz-adv-x="745" 
d="M47 492h173l-6 -180q-2 -90 -8 -167h3q9 31 62 163l76 184h137l4 -177q2 -111 -1 -170h2q14 50 57 175l63 172h172l-238 -492h-160l-6 130q-3 54 -3 168h-2q-10 -27 -29 -80.5t-30 -79.5l-59 -138h-161zM395 706h115l78 -156h-107l-38 73h-2l-54 -73h-116z" />
    <glyph glyph-name="Ycircumflex" unicode="&#x176;" horiz-adv-x="593" 
d="M317 0h-171l52 272l-133 402h183l33 -151q23 -113 25 -126h2q4 7 67 126l83 151h204l-293 -397zM323 840h129l80 -130h-116l-36 57h-2l-53 -57h-127z" />
    <glyph glyph-name="ycircumflex" unicode="&#x177;" horiz-adv-x="522" 
d="M41 492h180l22 -193q2 -18 7 -57t7 -55h2q39 112 39 113l74 192h179l-171 -345q-102 -203 -198 -290q-39 -36 -85.5 -57.5t-78.5 -26.5l-37 147q42 11 81 35q50 32 73 73q6 10 2 24zM275 706h115l78 -156h-107l-38 73h-2l-54 -73h-116z" />
    <glyph glyph-name="Ydieresis" unicode="&#x178;" horiz-adv-x="593" 
d="M316 0h-170l51 272l-133 402h183l33 -151q23 -113 25 -126h2q10 18 32 59t36 67l83 151h204l-293 -397zM258 708q-29 0 -50.5 19.5t-21.5 50.5q0 37 24 59.5t59 22.5q31 0 51 -20.5t20 -50.5q0 -36 -24 -58.5t-58 -22.5zM475 708q-29 0 -50.5 19.5t-21.5 50.5
q0 37 24 59.5t59 22.5q31 0 51 -20.5t20 -50.5q0 -36 -24 -58.5t-58 -22.5z" />
    <glyph glyph-name="Zacute" unicode="&#x179;" horiz-adv-x="567" 
d="M-28 0l18 97l362 427v3h-253l28 147h483l-20 -105l-353 -419v-3h278l-27 -147h-516zM370 840h183l-130 -130h-143z" />
    <glyph glyph-name="zacute" unicode="&#x17a;" horiz-adv-x="465" 
d="M-27 0l18 102l127 132q58 59 127 118l2 2h-193l27 138h397l-20 -107l-122 -127q-61 -64 -126 -118l-1 -2h212l-27 -138h-421zM301 706h161l-129 -156h-124z" />
    <glyph glyph-name="Zdotaccent" unicode="&#x17b;" horiz-adv-x="567" 
d="M-28 0l18 97l363 427v3h-254l29 147h483l-20 -105l-354 -419v-3h279l-28 -147h-516zM371 708q-30 0 -51.5 19.5t-21.5 51.5q0 37 24.5 60t59.5 23q32 0 52.5 -20.5t20.5 -51.5q0 -36 -24.5 -59t-59.5 -23z" />
    <glyph glyph-name="zdotaccent" unicode="&#x17c;" horiz-adv-x="465" 
d="M-28 0l19 102l126 132q59 61 128 118l1 2h-192l27 138h397l-20 -107l-122 -127q-69 -71 -127 -118l-1 -2h213l-27 -138h-422zM293 545q-31 0 -53 20.5t-22 53.5q0 39 25 63t62 24q34 0 54.5 -21t20.5 -54q0 -39 -25 -62.5t-62 -23.5z" />
    <glyph glyph-name="Zcaron" unicode="&#x17d;" horiz-adv-x="567" 
d="M-28 0l18 97l362 427v3h-253l28 147h483l-20 -105l-353 -419v-3h278l-27 -147h-516zM429 710h-128l-80 130h115l36 -60h2l53 60h127z" />
    <glyph glyph-name="zcaron" unicode="&#x17e;" horiz-adv-x="465" 
d="M-27 0l18 102l127 132q58 59 127 118l2 2h-193l27 138h397l-20 -107l-122 -127q-61 -64 -126 -118l-1 -2h212l-27 -138h-421zM342 550h-115l-78 156h106l39 -73h2l54 73h116z" />
    <glyph glyph-name="florin" unicode="&#x192;" horiz-adv-x="562" 
d="M113 294l17 121h86l7 28q5 22 12 43.5t26 55.5t44 58.5t67.5 42.5t94.5 18q55 0 85 -19l-42 -121q-20 9 -46 9q-55 0 -72 -73l-11 -42h96l-18 -121h-107l-41 -176q-11 -46 -27 -81t-41.5 -66t-65 -47.5t-91.5 -16.5q-56 0 -92 20l34 120q19 -9 48 -9q27 0 46 27.5
t39 111.5l26 117h-74z" />
    <glyph glyph-name="Ohorn" unicode="&#x1a0;" horiz-adv-x="721" 
d="M654 744l127 21q18 -38 18 -89q0 -59 -32.5 -97t-89.5 -43q27 -54 27 -135q0 -93 -31 -176t-88 -138q-101 -98 -256 -98q-130 0 -206 79.5t-76 204.5q0 92 32.5 175t90.5 139q103 98 255 98q71 0 128 -25l24 -12t31 -14t24 -5q38 0 38 49q0 34 -16 66zM405 543
q-56 0 -99 -43q-35 -35 -56 -99t-21 -124q0 -68 32 -107t93 -39q53 0 94 41q34 35 54.5 101t20.5 124q0 65 -28 105.5t-90 40.5z" />
    <glyph glyph-name="ohorn" unicode="&#x1a1;" horiz-adv-x="580" 
d="M307 375q-34 0 -58.5 -33t-34.5 -72t-10 -74q0 -37 16.5 -57.5t46.5 -20.5q33 0 57 31.5t34.5 71.5t10.5 79q0 75 -62 75zM514 571l123 20q13 -37 13 -77q0 -60 -31 -96t-86 -44q12 -33 12 -73q0 -141 -85 -226.5t-217 -85.5q-96 0 -155.5 54.5t-59.5 149.5
q0 133 84 221.5t218 88.5q48 0 90 -15q8 -3 22.5 -10.5t25.5 -11.5t20 -4q40 0 40 47q0 27 -14 62z" />
    <glyph glyph-name="Uhorn" unicode="&#x1af;" horiz-adv-x="692" 
d="M674 587l-55 -288q-30 -160 -104.5 -235t-220.5 -75q-114 -1 -175 56t-61 165q0 41 10 96l70 368h170l-72 -383q-8 -34 -8 -78q1 -34 23 -58t64 -24q52 0 84 37.5t48 121.5l72 384h123q65 0 65 57q0 27 -11 56l122 21q9 -32 9 -63q0 -71 -40.5 -112.5t-112.5 -45.5z" />
    <glyph glyph-name="uhorn" unicode="&#x1b0;" horiz-adv-x="604" 
d="M566 605l124 21q9 -33 9 -66q0 -65 -39 -108t-113 -46l-45 -238q-15 -82 -28 -168h-150l7 75h-2q-71 -86 -168 -86q-63 0 -94 35.5t-31 100.5q0 36 10 94l52 273h171l-49 -259q-7 -35 -7 -62q0 -44 37 -44q33 0 60.5 39t40.5 108l41 218h121q65 0 65 57q0 26 -12 56z" />
    <glyph glyph-name="Aringacute" unicode="&#x1fa;" horiz-adv-x="640" 
d="M416 693q-51 0 -80 24.5t-29 65.5q0 42 34.5 70.5t89.5 28.5q50 0 78 -24t28 -66t-33 -70.5t-88 -28.5zM421 750q21 0 32.5 11t11.5 28q0 16 -11.5 27t-30.5 11t-30.5 -12t-11.5 -29q0 -16 11 -26t29 -10zM473 993h182l-152 -95h-143zM399 158h-178l-67 -158h-183
l320 674h223l72 -674h-179zM269 287h124l-8 124q-5 91 -8 136h-2q-8 -20 -26.5 -68.5t-27.5 -68.5z" />
    <glyph glyph-name="aringacute" unicode="&#x1fb;" horiz-adv-x="568" 
d="M483 0h-156q1 14 2 42.5t2 42.5h-3q-54 -96 -154 -96q-67 0 -109.5 48t-42.5 127q0 64 21 122.5t62 108t112 79t162 29.5t176 -27l-53 -258q-22 -117 -19 -218zM343 273l20 99q-17 3 -32 3q-55 0 -93 -59.5t-38 -119.5q0 -70 49 -70q28 0 53.5 34t40.5 113zM446 868h161
l-156 -116h-124zM391 728q48 0 80 -24t32 -70q-1 -51 -38 -79t-94 -28q-46 0 -78 24t-33 66q-1 51 35.5 81t95.5 30zM384 673q-21 0 -34 -14t-13 -36q0 -17 11 -29t30 -12q22 0 35 14t13 33q0 44 -42 44z" />
    <glyph glyph-name="AEacute" unicode="&#x1fc;" horiz-adv-x="876" 
d="M135 0h-182l398 674h528l-26 -145h-258l-8 -117h245l-27 -144h-223l-6 -123h253l-27 -145h-399l9 162h-190zM301 303h118l10 151q0 4 2 39t4 54h-3q-6 -11 -23.5 -46t-25.5 -50zM554 840h182l-130 -130h-143z" />
    <glyph glyph-name="aeacute" unicode="&#x1fd;" horiz-adv-x="783" 
d="M696 151l3 -120q-75 -42 -189 -42q-53 0 -97 20.5t-67 57.5h-3q-73 -78 -182 -78q-70 0 -114.5 39.5t-44.5 100.5q0 54 30 95.5t78.5 64t100.5 33.5t106 11l1 8q2 8 -4 17t-24 17.5t-45 8.5q-74 0 -142 -44l-25 107q85 56 188 56q110 0 147 -70h3q61 70 169 70
q86 0 132.5 -43.5t46.5 -99.5q0 -183 -319 -169q0 -22 11 -37q28 -33 96 -33q74 0 144 30zM294 184l7 40q-27 0 -53 -4.5t-50.5 -20.5t-24.5 -41q0 -40 47 -40q26 0 46.5 17.5t27.5 48.5zM600 343q0 15 -12.5 26t-36.5 11q-37 0 -60.5 -24t-27.5 -50q137 -10 137 37z
M452 706h161l-129 -156h-124z" />
    <glyph glyph-name="Oslashacute" unicode="&#x1fe;" horiz-adv-x="717" 
d="M117 -76l-80 74l70 87q-62 73 -62 197q0 186 124 304q101 99 246 99q94 0 154 -36l72 90l86 -67l-76 -95q52 -66 52 -183q1 -90 -31 -169.5t-88 -135.5q-102 -100 -248 -100q-83 0 -139 31zM228 229l240 299q-22 16 -62 16q-57 0 -102.5 -42t-67.5 -105q-29 -81 -11 -168
h3zM525 427l-229 -285q19 -12 53 -12q55 0 97.5 39t64.5 101q25 68 17 157h-3zM444 844h182l-130 -130h-143z" />
    <glyph glyph-name="oslashacute" unicode="&#x1ff;" horiz-adv-x="575" 
d="M59 -64l-44 46l63 74q-51 53 -51 140q0 130 84.5 218.5t216.5 88.5q64 0 111 -25l66 75l48 -44l-61 -72q53 -53 53 -138q0 -141 -84.5 -225.5t-208.5 -84.5q-76 0 -122 28zM203 194l141 172q-14 14 -39 14q-47 0 -74.5 -53.5t-29.5 -101.5q-1 -10 -1 -30zM368 296
l-142 -168q13 -16 41 -16q33 0 57.5 26.5t35 60t11.5 66.5q1 9 1 31h-4zM360 706h161l-129 -156h-124z" />
    <glyph glyph-name="Scommaaccent" unicode="&#x218;" horiz-adv-x="529" 
d="M-5 38l56 140q75 -42 166 -42q38 -1 64 14t26 43q0 24 -19.5 40.5t-68.5 42.5q-142 74 -142 180q0 104 80.5 166t201.5 62q101 0 169 -32l-53 -143q-61 30 -129 28q-43 0 -66 -15t-23 -38q0 -29 82 -74q9 -5 14 -8q136 -70 136 -178q0 -78 -42 -133t-105 -78.5
t-141 -23.5q-140 3 -206 49zM119 -248l-16 76q28 5 50 21.5t22 43.5t-18 47l124 19q25 -23 25 -65q0 -47 -30 -80t-70.5 -47t-86.5 -15z" />
    <glyph glyph-name="scommaaccent" unicode="&#x219;" horiz-adv-x="436" 
d="M-9 31l40 117q75 -35 138 -35q48 0 48 29q0 14 -13 25.5t-45 25.5q-110 53 -110 133t64.5 128.5t167.5 48.5q87 0 137 -26l-39 -119q-48 21 -104 21q-54 0 -54 -30q0 -20 56 -45q25 -12 41.5 -22.5t36.5 -27t30 -38.5t10 -48q0 -85 -66.5 -132t-175.5 -46q-112 3 -162 41
zM70 -247l-17 76q28 5 50 21.5t22 43.5t-18 47l124 19q25 -23 25 -65q0 -68 -57 -104.5t-129 -37.5z" />
    <glyph glyph-name="uni021A" unicode="&#x21a;" horiz-adv-x="550" 
d="M139 0l98 525h-169l29 149h512l-29 -149h-173l-98 -525h-170zM119 -248l-17 77q27 4 49.5 21t22.5 43q0 27 -18 47l124 20q25 -25 25 -65q0 -68 -56.5 -104.5t-129.5 -38.5z" />
    <glyph glyph-name="uni021B" unicode="&#x21b;" horiz-adv-x="364" 
d="M134 584l175 48l-26 -140h100l-25 -129h-100l-28 -136q-7 -37 -7 -56q0 -38 40 -38q26 0 40 1l-22 -133q-32 -12 -94 -12q-68 0 -103.5 29.5t-35.5 80.5q0 37 10 91l34 173h-60l25 129h60zM36 -248l-16 76q28 5 50 21.5t22 43.5t-18 47l124 19q25 -23 25 -65
q0 -47 -30 -80t-70.5 -47t-86.5 -15z" />
    <glyph glyph-name="uni021C" unicode="&#x21c;" horiz-adv-x="536" 
d="M9 -130l-11 135q132 8 217 54t85 115q0 33 -20 56.5t-72 23.5q-36 0 -89 -15l-19 114q83 17 145 52.5t62 86.5q0 27 -22.5 42t-55.5 15q-41 0 -104 -28l-27 111q91 53 204 53q90 0 139.5 -43t50.5 -104q0 -57 -34.5 -98.5t-104.5 -76.5v-2q61 -12 98 -60t37 -106
q0 -75 -39.5 -136t-107 -100.5t-152.5 -62t-180 -26.5z" />
    <glyph glyph-name="uni021D" unicode="&#x21d;" horiz-adv-x="459" 
d="M-43 -208l-9 135q30 1 69 6t91.5 18t87 42t34.5 69q0 24 -20.5 40.5t-63.5 16.5q-38 0 -84 -14l-16 116q40 8 69 16t58 21t44.5 31t15.5 41q-2 36 -60 36q-42 0 -102 -26l-29 107q93 56 200 56q77 0 123 -37.5t46 -85.5q0 -55 -26 -88.5t-92 -62.5v-2q56 -12 88.5 -51.5
t32.5 -88.5q0 -58 -29 -107.5t-76.5 -83t-108 -57.5t-122.5 -35.5t-121 -11.5z" />
    <glyph glyph-name="uni0232" unicode="&#x232;" horiz-adv-x="593" 
d="M317 0h-171l52 272l-133 402h183l33 -151q23 -113 25 -126h2q4 7 67 126l83 151h204l-293 -397zM272 825h264l-18 -90h-264z" />
    <glyph glyph-name="uni0233" unicode="&#x233;" horiz-adv-x="522" 
d="M41 492h180l22 -193q2 -18 7 -57t7 -55h2q39 112 39 113l74 192h179l-171 -345q-102 -203 -198 -290q-39 -36 -85.5 -57.5t-78.5 -26.5l-37 147q42 11 81 35q50 32 73 73q6 10 2 24zM210 670h259l-18 -89h-259z" />
    <glyph glyph-name="circumflex" unicode="&#x2c6;" 
d="M223 706h115l78 -156h-107l-38 73h-2l-54 -73h-116z" />
    <glyph glyph-name="caron" unicode="&#x2c7;" 
d="M321 550h-115l-78 156h107l38 -73h2l54 73h116z" />
    <glyph glyph-name="uni02C9" unicode="&#x2c9;" 
d="M150 670h259l-18 -89h-259z" />
    <glyph glyph-name="breve" unicode="&#x2d8;" 
d="M148 694h83q3 -25 12 -38.5t32 -13.5q46 0 58 52h85q-22 -135 -152 -135q-68 0 -96.5 36.5t-21.5 98.5z" />
    <glyph glyph-name="dotaccent" unicode="&#x2d9;" 
d="M263 545q-31 0 -53 20.5t-22 53.5q0 39 25 63t62 24q34 0 54.5 -21t20.5 -54q0 -39 -25 -62.5t-62 -23.5z" />
    <glyph glyph-name="ring" unicode="&#x2da;" 
d="M282 741q48 0 80 -24.5t32 -70.5q-1 -50 -38.5 -78t-94.5 -28q-46 0 -77.5 24t-32.5 66q-1 51 35.5 81t95.5 30zM274 686q-21 0 -33.5 -14.5t-12.5 -35.5q0 -17 10.5 -29t29.5 -12q22 0 35.5 14t13.5 33q0 44 -43 44z" />
    <glyph glyph-name="ogonek" unicode="&#x2db;" 
d="M121 1h92q-32 -44 -32 -76q0 -40 43 -40q21 0 48 8l9 -82q-47 -36 -116 -36q-50 0 -77.5 24.5t-27.5 68.5q0 60 61 133z" />
    <glyph glyph-name="tilde" unicode="&#x2dc;" 
d="M198 554h-80q10 67 37 102.5t67 35.5q33 0 63 -20t39 -20q12 0 18.5 9.5t14.5 35.5h78q-19 -135 -107 -135q-39 0 -66 20q-22 17 -36 17q-19 0 -28 -45z" />
    <glyph glyph-name="hungarumlaut" unicode="&#x2dd;" 
d="M165 705h138l-118 -156h-100zM353 705h138l-118 -156h-100z" />
    <glyph glyph-name="uni037E" unicode="&#x37e;" horiz-adv-x="290" 
d="M75 -107l-121 -10q79 179 102 296l180 4q-60 -143 -161 -290zM168 271q-42 0 -68.5 27.5t-26.5 69.5q0 49 33 84.5t83 35.5q43 0 70.5 -28t27.5 -71q0 -52 -33.5 -85t-85.5 -33z" />
    <glyph glyph-name="tonos" unicode="&#x384;" horiz-adv-x="325" 
d="M262 706h158l-129 -156h-121z" />
    <glyph glyph-name="dieresistonos" unicode="&#x385;" horiz-adv-x="474" 
d="M257 721h130l-97 -174h-92zM114 553q-28 0 -47 17t-19 47q0 34 22 54.5t54 20.5q29 0 46.5 -18.5t17.5 -46.5q0 -33 -22 -53.5t-52 -20.5zM442 553q-28 0 -47 17t-19 47q0 34 22 54.5t54 20.5q29 0 46.5 -18.5t17.5 -46.5q0 -33 -21.5 -53.5t-52.5 -20.5z" />
    <glyph glyph-name="Alphatonos" unicode="&#x386;" horiz-adv-x="640" 
d="M398 158h-177l-67 -158h-183l320 674h223l72 -674h-180zM269 287h123l-8 124q-5 91 -8 136h-2q-4 -10 -23.5 -62.5t-30.5 -74.5zM67 674h137l-67 -182h-97z" />
    <glyph glyph-name="anoteleia" unicode="&#x387;" horiz-adv-x="290" 
d="M136 203q-43 0 -69.5 27.5t-26.5 71.5q0 50 33 86t84 36q44 0 71.5 -28t27.5 -73q0 -54 -33.5 -87t-86.5 -33z" />
    <glyph glyph-name="Epsilontonos" unicode="&#x388;" horiz-adv-x="606" 
d="M569 416l-28 -144h-237l-25 -127h267l-28 -145h-437l128 674h423l-28 -145h-252l-22 -113h239zM26 674h137l-68 -182h-97z" />
    <glyph glyph-name="Etatonos" unicode="&#x389;" horiz-adv-x="749" 
d="M207 674h171l-48 -254h216l48 254h171l-127 -674h-172l51 268h-216l-51 -268h-170zM26 674h137l-67 -182h-97z" />
    <glyph glyph-name="Iotatonos" unicode="&#x38a;" horiz-adv-x="360" 
d="M206 674h170l-128 -674h-170zM26 674h137l-67 -182h-97z" />
    <glyph glyph-name="Omicrontonos" unicode="&#x38c;" horiz-adv-x="770" 
d="M378 -11q-129 0 -205 79.5t-76 204.5q0 93 32.5 176t90.5 138q103 98 254 98q131 0 205.5 -77.5t74.5 -205.5q0 -94 -31.5 -177.5t-88.5 -138.5q-102 -97 -256 -97zM403 131q49 0 89 44t60 104t20 118q0 66 -28 106t-90 40q-75 0 -125 -85.5t-50 -180.5q0 -68 31.5 -107
t92.5 -39zM26 674h137l-67 -182h-97z" />
    <glyph glyph-name="Upsilontonos" unicode="&#x38e;" horiz-adv-x="709" 
d="M175 537l41 143q52 0 101.5 -21.5t80.5 -64.5q62 -83 50 -207h9q36 123 120 204q46 44 97.5 66.5t89.5 22.5l12 -154q-75 -20 -145 -93t-106 -160q-29 -70 -42 -138l-25 -135h-171l25 135q14 70 15 131q2 68 -10 121.5t-48 96t-94 53.5zM26 674h136l-67 -182h-97z" />
    <glyph glyph-name="Omegatonos" unicode="&#x38f;" horiz-adv-x="788" 
d="M183 129l1 5q-35 33 -59 85.5t-24 114.5q0 149 110 250t266 101q138 0 216.5 -77.5t78.5 -185.5q0 -96 -47 -170t-108 -118v-5h113l-22 -129h-307l18 103q170 116 170 301q0 67 -33.5 105t-93.5 38q-74 0 -128 -69.5t-54 -188.5q0 -59 20.5 -108.5t57.5 -77.5l-17 -103
h-307l23 129h126zM26 674h136l-67 -182h-97z" />
    <glyph glyph-name="iotadieresistonos" unicode="&#x390;" horiz-adv-x="281" 
d="M261 492l-62 -328q-4 -24 4.5 -34t31.5 -8l-31 -123q-27 -10 -67 -10q-116 0 -116 106q0 25 7 67l63 330h170zM180 719h130l-97 -174h-92zM37 550q-26 0 -44.5 17t-18.5 44q0 33 21 52.5t51 19.5q28 0 45 -17.5t17 -44.5q0 -32 -20.5 -51.5t-50.5 -19.5zM365 550
q-26 0 -44.5 17t-18.5 44q0 33 20.5 52.5t51.5 19.5q28 0 45 -17.5t17 -44.5q0 -32 -20.5 -51.5t-50.5 -19.5z" />
    <glyph glyph-name="Alpha" unicode="&#x391;" horiz-adv-x="640" 
d="M398 158h-177l-67 -158h-183l320 674h223l72 -674h-180zM269 287h123l-8 124q-5 91 -8 136h-2q-4 -10 -23.5 -62.5t-30.5 -74.5z" />
    <glyph glyph-name="Beta" unicode="&#x392;" horiz-adv-x="609" 
d="M15 8l123 654q79 17 191 17q111 0 172 -30q40 -17 65.5 -52t25.5 -80q0 -61 -36.5 -100t-94.5 -57v-2q49 -16 76.5 -54.5t27.5 -91.5q0 -100 -97 -162q-85 -55 -270 -55q-120 0 -183 13zM285 543l-25 -129h42q54 0 85 19t31 55q0 29 -22.5 44t-59.5 15q-38 0 -51 -4z
M234 290l-30 -160q14 -2 50 -2q56 0 93 22t37 65q0 75 -115 75h-35z" />
    <glyph glyph-name="Gamma" unicode="&#x393;" horiz-adv-x="493" 
d="M141 674h422l-28 -145h-248l-101 -529h-173z" />
    <glyph glyph-name="uni0394" unicode="&#x394;" horiz-adv-x="653" 
d="M-29 0l14 89l314 585h214l95 -585l-15 -89h-622zM186 138h235l-34 253q-2 24 -7.5 76t-6.5 66h-4q-26 -63 -58 -135z" />
    <glyph glyph-name="Epsilon" unicode="&#x395;" horiz-adv-x="538" 
d="M501 416l-28 -144h-237l-25 -127h267l-28 -145h-437l128 674h423l-28 -145h-252l-22 -113h239z" />
    <glyph glyph-name="Zeta" unicode="&#x396;" horiz-adv-x="567" 
d="M-28 0l18 97l362 427v3h-253l28 147h483l-20 -105l-353 -419v-3h278l-27 -147h-516z" />
    <glyph glyph-name="Eta" unicode="&#x397;" horiz-adv-x="683" 
d="M141 674h171l-48 -254h216l48 254h171l-127 -674h-172l51 268h-216l-51 -268h-170z" />
    <glyph glyph-name="Theta" unicode="&#x398;" horiz-adv-x="721" 
d="M328 -11q-129 0 -205 80t-76 204q0 92 32 175t91 139q101 98 254 98q131 0 205.5 -77.5t74.5 -206.5q0 -94 -31.5 -177t-88.5 -138q-102 -97 -256 -97zM353 130q49 0 89.5 44t60.5 104.5t20 118.5q0 66 -28.5 106.5t-90.5 40.5q-75 0 -125.5 -86t-50.5 -181
q0 -68 31.5 -107.5t93.5 -39.5zM301 409h178l-24 -134h-177z" />
    <glyph glyph-name="Iota" unicode="&#x399;" horiz-adv-x="292" 
d="M138 674h170l-128 -674h-170z" />
    <glyph glyph-name="Kappa" unicode="&#x39a;" horiz-adv-x="623" 
d="M14 0l127 674h168l-54 -290h2q8 12 58 78l166 212h212l-268 -292l149 -382h-186l-98 277l-67 -65l-41 -212h-168z" />
    <glyph glyph-name="Lambda" unicode="&#x39b;" horiz-adv-x="640" 
d="M586 0h-185l-23 377q-1 26 -6 155h-3q-25 -74 -58 -157l-154 -375h-188l318 674h225z" />
    <glyph glyph-name="Mu" unicode="&#x39c;" horiz-adv-x="839" 
d="M741 0h-165l38 241q21 138 48 278h-2q-75 -175 -121 -270l-111 -235h-133l-13 234q-8 155 -12 271h-2q-55 -265 -58 -278l-56 -241h-156l167 674h230l8 -200q9 -205 9 -234h4q31 89 97 235l89 199h233z" />
    <glyph glyph-name="Nu" unicode="&#x39d;" horiz-adv-x="681" 
d="M172 0h-158l127 674h203l61 -204q41 -140 62 -248h3q4 98 32 255l37 197h159l-127 -674h-179l-68 220q-49 165 -67 252h-3q-12 -97 -47 -286z" />
    <glyph glyph-name="Xi" unicode="&#x39e;" horiz-adv-x="572" 
d="M126 674h471l-24 -142h-471zM111 415h409l-23 -142h-410zM16 144h503l-24 -144h-503z" />
    <glyph glyph-name="Omicron" unicode="&#x39f;" horiz-adv-x="721" 
d="M328 -11q-129 0 -205 79.5t-76 204.5q0 93 32.5 176t90.5 138q103 98 255 98q131 0 205.5 -77.5t74.5 -205.5q0 -94 -31.5 -177.5t-88.5 -138.5q-102 -97 -257 -97zM354 131q72 0 120.5 87t48.5 179q0 66 -28 106t-90 40q-51 0 -92.5 -43t-62.5 -103t-21 -120
q0 -68 31.5 -107t93.5 -39z" />
    <glyph glyph-name="Pi" unicode="&#x3a0;" horiz-adv-x="667" 
d="M685 674l-126 -674h-171l100 531h-204l-100 -531h-170l126 674h545z" />
    <glyph glyph-name="Rho" unicode="&#x3a1;" horiz-adv-x="581" 
d="M14 0l125 661q74 18 188 18q120 0 185 -41q83 -50 83 -153q0 -125 -96 -196q-83 -62 -220 -62q-6 0 -54 4l-45 -231h-166zM283 541l-33 -172q30 -5 51 -5q54 0 88.5 31t34.5 74q0 75 -89 75q-37 0 -52 -3z" />
    <glyph glyph-name="Sigma" unicode="&#x3a3;" horiz-adv-x="568" 
d="M238 149l1 -4h283l-25 -145h-515l16 102l223 234l-141 219l21 119h482l-24 -143h-267v-4l126 -196z" />
    <glyph glyph-name="Tau" unicode="&#x3a4;" horiz-adv-x="550" 
d="M139 0l98 525h-169l29 149h512l-29 -149h-172l-99 -525h-170z" />
    <glyph glyph-name="Upsilon" unicode="&#x3a5;" horiz-adv-x="563" 
d="M32 537l41 143q52 0 101.5 -21.5t80.5 -64.5q62 -83 50 -207h9q36 123 120 204q46 44 97.5 66.5t89.5 22.5l12 -154q-75 -20 -145 -93t-106 -160q-29 -70 -42 -138l-25 -135h-171l25 135q14 70 15 131q2 68 -10 121.5t-48 96t-94 53.5z" />
    <glyph glyph-name="Phi" unicode="&#x3a6;" horiz-adv-x="798" 
d="M265 -30l11 59q-98 16 -163.5 85t-65.5 178q0 68 22.5 127.5t59 100t82.5 70.5t92.5 44.5t89.5 15.5l11 54h159l-11 -54q95 -14 162 -84t67 -177q0 -84 -31.5 -152.5t-83 -111.5t-110.5 -67.5t-120 -28.5l-12 -59h-159zM299 151l71 378q-52 -4 -101 -72t-49 -163
q0 -56 22 -94t57 -49zM529 529l-71 -379q53 5 101.5 68.5t48.5 169.5q0 57 -21.5 94.5t-57.5 46.5z" />
    <glyph glyph-name="Chi" unicode="&#x3a7;" horiz-adv-x="590" 
d="M539 0h-182l-37 122q-4 16 -33 115h-2q-12 -21 -31.5 -59.5t-32.5 -62.5l-62 -115h-205l248 345l-115 329h180l31 -110q4 -16 14 -53.5t16 -62.5h3q13 24 32.5 62t29.5 57l57 107h203l-240 -331z" />
    <glyph glyph-name="Psi" unicode="&#x3a8;" horiz-adv-x="710" 
d="M759 674l-40 -213q-27 -138 -107.5 -209t-196.5 -77l-33 -175h-158l33 175q-88 10 -147 59.5t-59 140.5q0 35 8 72l42 227h164l-38 -204q-9 -52 -9 -73q0 -45 16 -64.5t47 -26.5l70 368h157l-70 -370q47 6 75 48.5t47 144.5l34 177h165z" />
    <glyph glyph-name="uni03A9" unicode="&#x3a9;" horiz-adv-x="738" 
d="M134 129l1 5q-35 33 -59 85.5t-24 114.5q0 149 110 250t265 101q138 0 216.5 -77.5t78.5 -185.5q0 -96 -47.5 -170.5t-108.5 -117.5v-5h114l-22 -129h-306l17 103q170 114 170 301q0 67 -34 105t-93 38q-74 0 -127.5 -69.5t-53.5 -188.5q0 -59 20.5 -108.5t57.5 -77.5
l-18 -103h-306l23 129h126z" />
    <glyph glyph-name="Iotadieresis" unicode="&#x3aa;" horiz-adv-x="292" 
d="M124 715q-29 0 -50 19t-21 51q0 37 23.5 59.5t58.5 22.5q32 0 51.5 -20t19.5 -51q0 -37 -23.5 -59t-58.5 -22zM342 715q-29 0 -50 19t-21 51q0 37 23.5 59.5t58.5 22.5q32 0 51.5 -20t19.5 -51q0 -37 -23.5 -59t-58.5 -22zM137 674h171l-128 -674h-170z" />
    <glyph glyph-name="Upsilondieresis" unicode="&#x3ab;" horiz-adv-x="563" 
d="M248 697q-29 0 -50 19t-21 51q0 37 23.5 59.5t58.5 22.5q32 0 51.5 -20t19.5 -51q0 -37 -23.5 -59t-58.5 -22zM466 697q-29 0 -50 19t-21 51q0 37 23.5 59.5t58.5 22.5q32 0 51.5 -20t19.5 -51q0 -37 -23.5 -59t-58.5 -22zM32 537l41 143q52 0 101.5 -21.5t80.5 -64.5
q62 -83 50 -207h9q36 123 120 204q46 44 97.5 66.5t89.5 22.5l12 -154q-75 -20 -145 -93t-106 -160q-29 -70 -42 -138l-25 -135h-171l25 135q14 70 15 131q2 68 -10 121.5t-48 96t-94 53.5z" />
    <glyph glyph-name="alphatonos" unicode="&#x3ac;" horiz-adv-x="591" 
d="M381 706h157l-128 -156h-121zM360 72h-3q-66 -83 -166 -83q-71 0 -118 50t-47 137q0 73 25 137t64 104t83.5 63t84.5 23q95 0 127 -64h4q10 29 21 53h144q-15 -56 -26 -107q-32 -140 -45 -203q-12 -67 33 -61l-30 -123q-22 -9 -53 -9q-82 0 -98 83zM202 195
q0 -33 15.5 -52t40.5 -19q28 0 51 24t34 56q9 29 11 46q6 30 6 46q0 78 -56 78q-41 0 -71.5 -56.5t-30.5 -122.5z" />
    <glyph glyph-name="epsilontonos" unicode="&#x3ad;" horiz-adv-x="450" 
d="M303 706h158l-129 -156h-121zM358 199h-40q-119 0 -119 -46q0 -17 22.5 -26t55.5 -9q60 0 128 26l4 -116q-74 -39 -193 -39q-88 0 -147 31.5t-59 95.5q0 57 37 94.5t85 46.5l1 5q-72 23 -72 88q0 63 65 108t174 45q101 0 156 -39l-39 -105q-38 25 -102 25q-37 0 -59 -12
t-22 -29q0 -34 105 -34h38z" />
    <glyph glyph-name="etatonos" unicode="&#x3ae;" horiz-adv-x="576" 
d="M358 706h157l-129 -156h-120zM237 417l2 -1q66 87 168 87q63 0 95 -36.5t32 -97.5q0 -44 -8 -84l-58 -305q-26 -138 -23 -178h-161q-13 32 14 181l53 284q5 33 5 51q0 48 -37 48q-32 0 -60 -41t-43 -115l-40 -210h-170l61 324q22 120 16 168h149q9 -31 5 -75z" />
    <glyph glyph-name="iotatonos" unicode="&#x3af;" horiz-adv-x="281" 
d="M221 706h158l-129 -156h-121zM262 492l-62 -326q-4 -25 4.5 -35.5t30.5 -8.5l-31 -123q-25 -10 -68 -10q-114 0 -114 106q0 25 8 67l62 330h170z" />
    <glyph glyph-name="upsilondieresistonos" unicode="&#x3b0;" horiz-adv-x="552" 
d="M362 492h157q15 -39 15 -92q0 -96 -32 -187.5t-103 -157.5t-167 -66q-94 0 -147.5 45t-53.5 124q0 27 14 93l13 72q25 129 19 169h165q13 -27 -1 -95l-22 -123q-14 -64 -14 -85q0 -26 14 -44t37 -18q49 0 80 93.5t31 194.5q0 54 -5 77zM291 719h129l-96 -174h-92z
M148 550q-26 0 -44.5 17t-18.5 44q0 33 20.5 52.5t51.5 19.5q28 0 45 -17.5t17 -44.5q0 -32 -20.5 -51.5t-50.5 -19.5zM475 550q-26 0 -44.5 17t-18.5 44q0 33 20.5 52.5t51.5 19.5q28 0 45 -17.5t17 -44.5q0 -32 -20.5 -51.5t-50.5 -19.5z" />
    <glyph glyph-name="alpha" unicode="&#x3b1;" horiz-adv-x="591" 
d="M360 72h-3q-66 -83 -166 -83q-71 0 -118 50t-47 137q0 73 25 137t64 104t83.5 63t84.5 23q95 0 127 -64h4q10 29 21 53h144q-15 -56 -26 -107q-32 -140 -45 -203q-12 -67 33 -61l-30 -123q-22 -9 -53 -9q-82 0 -98 83zM202 195q0 -33 15.5 -52t40.5 -19q28 0 51 24t34 56
q9 29 11 46q6 30 6 46q0 78 -56 78q-41 0 -71.5 -56.5t-30.5 -122.5z" />
    <glyph glyph-name="beta" unicode="&#x3b2;" horiz-adv-x="575" 
d="M144 -198h-157q-16 39 11 181l79 418q33 183 121 258q73 62 171 62q87 0 135.5 -48t48.5 -116q0 -120 -107 -171l-1 -6q41 -12 69.5 -55.5t28.5 -101.5q0 -97 -69.5 -165.5t-164.5 -68.5q-90 0 -132 39h-3l-10 -55q-22 -116 -20 -171zM279 308l21 103q4 0 16 2
q33 9 55.5 38t22.5 73q0 27 -13 45.5t-38 18.5q-66 0 -93 -148l-53 -280q29 -43 79 -43q42 0 67.5 31.5t25.5 73.5q0 35 -19.5 57.5t-50.5 27.5q-3 1 -20 1z" />
    <glyph glyph-name="gamma" unicode="&#x3b3;" horiz-adv-x="502" 
d="M230 -198h-166q35 168 36 262q1 98 -27.5 217.5t-65.5 210.5h189q20 -48 34 -136.5t14 -179.5h5q78 140 101 266q4 25 4 50h168q0 -32 -4 -54q-16 -85 -82 -199t-162 -220q-9 -12 -13 -30q-12 -84 -31 -187z" />
    <glyph glyph-name="delta" unicode="&#x3b4;" horiz-adv-x="564" 
d="M535 656l-57 -99q-54 44 -104 44q-35 0 -35 -23q0 -16 47 -60l53 -51q94 -90 94 -193q0 -117 -80 -201t-209 -84q-99 0 -161 60t-62 152q0 97 57 163t135 99v4l-19 23q-35 40 -35 87q0 61 54.5 102.5t134.5 41.5q117 0 187 -65zM320 348l-30 32q-42 -24 -67.5 -70
t-25.5 -106q0 -41 19 -67.5t51 -26.5q38 0 65 37t27 96q0 63 -39 105z" />
    <glyph glyph-name="epsilon" unicode="&#x3b5;" horiz-adv-x="450" 
d="M357 199h-39q-119 0 -119 -46q0 -17 22.5 -26t55.5 -9q60 0 128 26l4 -117q-74 -38 -193 -38q-88 0 -147 31.5t-59 95.5q0 57 37 94.5t84 46.5l1 5q-72 23 -72 88q0 63 65 108t174 45q101 0 156 -39l-39 -104q-42 24 -102 24q-37 0 -59 -12t-22 -29q0 -34 105 -34h38z
" />
    <glyph glyph-name="zeta" unicode="&#x3b6;" horiz-adv-x="442" 
d="M488 705l3 -111q-41 -19 -89.5 -57.5t-93 -87.5t-74 -107.5t-29.5 -110.5q0 -70 53 -104q37 -25 144 -42q7 -3 7 -14q0 -39 -36.5 -113t-77.5 -115l-102 36q28 43 40 94q-58 15 -89 30q-50 23 -85 71t-35 121q0 102 74 210.5t169 172.5v4q-7 0 -22 0.5t-23 0.5
q-64 1 -90 18l32 109q31 -5 135 -5h189z" />
    <glyph glyph-name="eta" unicode="&#x3b7;" horiz-adv-x="576" 
d="M237 417l3 -1q66 87 167 87q63 0 95 -36.5t32 -97.5q0 -44 -8 -84l-58 -305q-26 -139 -22 -178h-161q-15 29 14 181l52 284q5 33 5 51q0 48 -37 48q-32 0 -60 -41t-42 -115l-40 -210h-170l61 324q22 120 15 168h148q10 -26 6 -75z" />
    <glyph glyph-name="theta" unicode="&#x3b8;" horiz-adv-x="573" 
d="M245 -11q-104 0 -158.5 63t-54.5 181q0 83 21 172q35 139 116 227.5t195 88.5q99 0 151.5 -65t52.5 -168q0 -69 -14 -142q-29 -152 -109.5 -254.5t-199.5 -102.5zM228 420h167q9 48 9 84q0 98 -59 98q-42 0 -72 -50t-45 -132zM374 300h-168q-10 -60 -10 -95q0 -97 64 -97
q79 0 114 192z" />
    <glyph glyph-name="iota" unicode="&#x3b9;" horiz-adv-x="281" 
d="M261 492l-61 -327q-5 -26 3.5 -36t31.5 -8l-31 -122q-25 -10 -67 -10q-117 0 -117 109q0 11 9 63l62 331h170z" />
    <glyph glyph-name="kappa" unicode="&#x3ba;" horiz-adv-x="549" 
d="M373 267l-1 -4q24 -10 39.5 -39t32.5 -82l48 -142h-185l-26 93q-14 53 -26.5 76.5t-34.5 23.5h-6l-36 -193h-170l66 350q20 116 13 142h161q18 -22 5 -93l-21 -106h5q31 38 85 110t67 89h193v-6q-67 -73 -209 -219z" />
    <glyph glyph-name="lambda" unicode="&#x3bb;" horiz-adv-x="491" 
d="M281 0l-21 216q0 4 -3.5 34t-4.5 51h-6q-23 -65 -32 -90l-85 -211h-178l235 460q10 20 10 29q0 3 -2 17q-14 75 -77 76q-4 0 -10.5 0.5t-9.5 0.5l34 128q24 6 54 4q82 -4 121 -62t61 -173l88 -480h-174z" />
    <glyph glyph-name="uni03BC" unicode="&#x3bc;" horiz-adv-x="573" 
d="M266 492l-51 -270q-10 -54 1.5 -75t40.5 -21q21 0 40 19.5t30 46.5q7 12 10 27l53 273h170l-61 -323q-5 -27 3 -37.5t28 -10.5l-32 -122q-24 -10 -57 -10q-82 0 -99 87h-4q-44 -82 -113 -82q-40 0 -60 19l-6 -36q-22 -126 -21 -175h-153q-11 41 16 180l95 510h170z" />
    <glyph glyph-name="nu" unicode="&#x3bd;" horiz-adv-x="502" 
d="M25 492h182q8 -98 14 -209q1 -24 3.5 -67t2.5 -51h5q88 157 110 280q2 11 4 47h165q2 -24 -2 -44q-31 -177 -245 -448h-162q-61 400 -77 492z" />
    <glyph glyph-name="xi" unicode="&#x3be;" horiz-adv-x="467" 
d="M397 316h-35q-74 0 -117.5 -29.5t-43.5 -78.5q0 -38 24 -62t78 -38q32 -10 121 -24q8 -1 8 -14q0 -34 -40.5 -113.5t-74.5 -112.5l-102 35q28 53 38 94q-23 4 -64 15q-28 8 -54 20.5t-55 34.5t-46 56.5t-17 77.5q0 81 51.5 139.5t120.5 74.5l1 6q-38 18 -59.5 51
t-21.5 73q0 85 70.5 142.5t189.5 57.5q89 0 140 -33l-41 -109q-36 22 -84 22q-46 0 -74.5 -25.5t-28.5 -62.5q0 -69 110 -81q11 -1 27 -1z" />
    <glyph glyph-name="omicron" unicode="&#x3bf;" horiz-adv-x="575" 
d="M242 -11q-96 0 -156 55t-60 149q0 132 84.5 221t217.5 89q98 0 157 -57t59 -145q0 -141 -85.5 -226.5t-216.5 -85.5zM266 118q47 0 74 59t27 122q0 33 -15 54t-46 21q-34 0 -59 -33t-34.5 -72t-9.5 -73q0 -37 16.5 -57.5t46.5 -20.5z" />
    <glyph glyph-name="pi" unicode="&#x3c0;" horiz-adv-x="592" 
d="M587 360h-58l-38 -198q-21 -111 -19 -162h-164q-12 26 12 152l39 208h-81q-3 -11 -8.5 -39.5t-9.5 -44.5q-49 -206 -102 -276h-163q56 97 100 274q7 27 19 86q-56 0 -88 -7l-2 98q41 41 193 41h399z" />
    <glyph glyph-name="rho" unicode="&#x3c1;" horiz-adv-x="578" 
d="M142 -198h-163q-7 41 17 174l40 217q20 106 54.5 165.5t84.5 94.5q72 50 169 50q92 0 149.5 -57t57.5 -146q0 -130 -80.5 -220.5t-180.5 -90.5q-82 0 -112 37h-2l-11 -54q-23 -121 -23 -170zM216 238l-6 -27q-3 -18 -3 -39q0 -18 18.5 -36t48.5 -18q39 0 70.5 51.5
t31.5 117.5q0 35 -16 57t-46 22q-70 0 -98 -128z" />
    <glyph glyph-name="uni03C2" unicode="&#x3c2;" horiz-adv-x="458" 
d="M301 -157l-101 36q31 55 40 94q-30 5 -78 23q-23 8 -45 22.5t-45.5 38t-38 60.5t-14.5 82q0 121 90.5 212.5t228.5 91.5q74 0 126 -27l-44 -121q-29 16 -79 16q-57 0 -100.5 -42.5t-43.5 -102.5q0 -79 79 -112q40 -16 132 -31q8 -1 8 -13q0 -39 -37 -112.5t-78 -114.5z
" />
    <glyph glyph-name="sigma" unicode="&#x3c3;" horiz-adv-x="606" 
d="M499 391l-2 -6q19 -17 30.5 -50.5t11.5 -61.5q0 -119 -84 -201.5t-209 -82.5q-99 0 -159.5 54.5t-60.5 149.5q0 132 84 221t215 89h131h85h100l-21 -125q-30 0 -121 13zM266 118q47 0 74 59t27 122q0 76 -60 76q-35 0 -60 -33.5t-34.5 -72t-9.5 -73.5q0 -37 16.5 -57.5
t46.5 -20.5z" />
    <glyph glyph-name="tau" unicode="&#x3c4;" horiz-adv-x="448" 
d="M337 123l-27 -122q-24 -12 -69 -12q-136 0 -136 128q0 34 11 91l28 152h-37q-62 0 -91 -7v101q56 38 193 38h262l-30 -132h-127l-31 -166q-4 -20 -4 -37q0 -16 9.5 -25t26.5 -9h22z" />
    <glyph glyph-name="upsilon" unicode="&#x3c5;" horiz-adv-x="552" 
d="M362 492h158q14 -42 14 -96q0 -69 -19 -139t-55 -131t-95.5 -99t-132.5 -38q-94 0 -147.5 45t-53.5 123q0 25 13 92l13 74q26 130 20 169h165q12 -24 -1 -95l-23 -123q-13 -75 -13 -87q0 -25 14 -42.5t37 -17.5q34 0 60 46.5t38.5 111.5t12.5 130q0 54 -5 77z" />
    <glyph glyph-name="phi" unicode="&#x3c6;" horiz-adv-x="717" 
d="M254 105l37 201q18 100 71.5 148.5t125.5 48.5q85 0 141 -58.5t56 -146.5q0 -70 -27 -129.5t-71 -98t-97.5 -60t-107.5 -21.5l-35 -187h-151l36 187q-81 10 -143.5 66t-62.5 150q0 62 21.5 116t55 89.5t69.5 58.5t71 33l57 -81q-42 -26 -76 -79.5t-34 -126.5
q0 -42 17.5 -71t46.5 -39zM451 355l-48 -250q53 5 86 61t33 129q0 39 -13 64.5t-33 25.5t-25 -30z" />
    <glyph glyph-name="chi" unicode="&#x3c7;" horiz-adv-x="492" 
d="M35 492h176l28 -127q10 -43 19 -94h4q32 66 41 84q33 62 74 137h168q-25 -39 -104 -160.5t-123 -187.5l97 -341l-164 -34l-31 132q-15 64 -25 116h-6q-14 -30 -51 -96q-44 -82 -86 -152l-140 49q112 169 227 339z" />
    <glyph glyph-name="psi" unicode="&#x3c8;" horiz-adv-x="720" 
d="M533 492h153q15 -42 15 -103q0 -171 -85.5 -281.5t-233.5 -118.5l-35 -187h-152l35 187q-83 8 -140 56.5t-57 137.5q0 41 9 88l15 84q19 92 18 137h153q15 -22 0 -96l-23 -119q-8 -50 -8 -89q0 -75 56 -80l95 512h152l-96 -513q58 2 96.5 81t38.5 221q0 53 -6 83z" />
    <glyph glyph-name="omega" unicode="&#x3c9;" horiz-adv-x="734" 
d="M505 492h150q19 -23 33 -68.5t14 -102.5q0 -135 -71 -233.5t-180 -98.5q-41 0 -72.5 19.5t-45.5 54.5h-4q-54 -74 -141 -74q-71 0 -116.5 51t-45.5 146q0 92 39.5 178t84.5 128h161v-3q-44 -48 -78.5 -127t-34.5 -158q0 -71 34 -71t48 79l28 162h156l-29 -138
q-10 -60 -10 -64q0 -39 27 -39q37 0 60.5 68t23.5 152q0 85 -31 136v3z" />
    <glyph glyph-name="iotadieresis" unicode="&#x3ca;" horiz-adv-x="281" 
d="M82 542q-30 0 -51 19t-21 51q0 37 24 59.5t59 22.5q31 0 50.5 -20t19.5 -51q0 -36 -23.5 -58.5t-57.5 -22.5zM295 542q-29 0 -50 19t-21 51q0 37 23.5 59.5t58.5 22.5q32 0 51.5 -20t19.5 -51q0 -37 -23.5 -59t-58.5 -22zM261 492l-61 -327q-5 -25 4 -35.5t32 -8.5
l-32 -122q-27 -10 -67 -10q-115 0 -115 104q0 29 7 68l63 331h169z" />
    <glyph glyph-name="upsilondieresis" unicode="&#x3cb;" horiz-adv-x="552" 
d="M199 542q-29 0 -50 19t-21 51q0 37 23.5 59.5t58.5 22.5q32 0 51.5 -20t19.5 -51q0 -37 -23.5 -59t-58.5 -22zM414 542q-29 0 -50 19t-21 51q0 37 23.5 59.5t58.5 22.5q32 0 51.5 -20t19.5 -51q0 -37 -23.5 -59t-58.5 -22zM362 492h157q15 -39 15 -92q0 -96 -32 -187.5
t-103 -157.5t-167 -66q-95 0 -148 44.5t-53 125.5q0 29 14 92l13 72q25 129 19 169h165q13 -27 -1 -95l-22 -123q-14 -68 -14 -85q0 -27 14 -44.5t37 -17.5q49 0 80 93.5t31 194.5q0 54 -5 77z" />
    <glyph glyph-name="omicrontonos" unicode="&#x3cc;" horiz-adv-x="575" 
d="M354 706h157l-129 -156h-120zM242 -11q-96 0 -156 55t-60 149q0 132 84.5 221t217.5 89q98 0 157 -57t59 -145q0 -141 -85.5 -226.5t-216.5 -85.5zM266 118q47 0 74 59t27 122q0 33 -15 54t-46 21q-34 0 -59 -33t-34.5 -72t-9.5 -73q0 -37 16.5 -57.5t46.5 -20.5z" />
    <glyph glyph-name="upsilontonos" unicode="&#x3cd;" horiz-adv-x="552" 
d="M320 706h157l-129 -156h-121zM362 492h157q15 -39 15 -92q0 -96 -32 -187.5t-103 -157.5t-167 -66q-94 0 -147.5 45t-53.5 123q0 30 14 94l13 72q25 129 19 169h165q13 -27 -1 -95l-22 -123q-14 -74 -14 -85q0 -27 14 -44.5t37 -17.5q49 0 80 93.5t31 194.5q0 54 -5 77z
" />
    <glyph glyph-name="omegatonos" unicode="&#x3ce;" horiz-adv-x="733" 
d="M435 706h157l-129 -156h-120zM505 492h150q19 -23 33 -68.5t14 -102.5q0 -135 -71 -233.5t-180 -98.5q-41 0 -72.5 19.5t-45.5 54.5h-4q-54 -74 -141 -74q-71 0 -116.5 51t-45.5 146q0 92 39.5 178t84.5 128h161v-3q-44 -48 -78.5 -127t-34.5 -158q0 -71 34 -71t48 79
l28 162h156l-29 -138q-10 -60 -10 -64q0 -39 27 -39q37 0 60.5 68t23.5 152q0 85 -31 136v3z" />
    <glyph glyph-name="uni0401" unicode="&#x401;" horiz-adv-x="538" 
d="M501 416l-28 -144h-237l-24 -127h266l-27 -145h-438l128 674h423l-28 -145h-251l-22 -113h238zM256 708q-29 0 -50.5 19.5t-21.5 50.5q0 37 24 59.5t59 22.5q31 0 51 -20.5t20 -50.5q0 -36 -24 -58.5t-58 -22.5zM473 708q-29 0 -50.5 19.5t-21.5 50.5q0 37 24 59.5
t59 22.5q31 0 51 -20.5t20 -50.5q0 -36 -24 -58.5t-58 -22.5z" />
    <glyph glyph-name="uni0402" unicode="&#x402;" horiz-adv-x="717" 
d="M99 674h551l-30 -148h-216l-17 -92h2q38 18 92 18q92 0 142.5 -62t50.5 -162q0 -166 -100 -271q-43 -46 -102 -75.5t-116 -35.5l-25 146q64 12 104 54q56 56 56 155q0 110 -81 110q-24 0 -48 -13l-55 -298h-169l97 526h-166z" />
    <glyph glyph-name="uni0403" unicode="&#x403;" horiz-adv-x="485" 
d="M141 674h402l-29 -150h-231l-98 -524h-171zM353 840h183l-130 -130h-143z" />
    <glyph glyph-name="uni0404" unicode="&#x404;" horiz-adv-x="573" 
d="M621 656l-47 -137q-51 24 -126 22q-75 -1 -129 -37.5t-74 -102.5h259l-21 -135h-250v-11q1 -44 42 -83.5t115 -39.5q73 0 134 23l11 -136q-27 -13 -79.5 -21.5t-100.5 -8.5q-147 0 -226.5 81t-79.5 212q0 204 146 317q111 85 266 85q104 0 160 -28z" />
    <glyph glyph-name="uni0405" unicode="&#x405;" horiz-adv-x="529" 
d="M-5 38l56 140q75 -42 166 -42q38 0 64 14.5t26 42.5q0 24 -19.5 40.5t-68.5 42.5q-142 74 -142 180q0 104 80.5 166t201.5 62q101 0 169 -32l-53 -143q-59 29 -129 28q-43 0 -66 -15t-23 -38q0 -29 82 -74q9 -5 14 -8q136 -70 136 -178q0 -116 -83.5 -176t-204.5 -59
q-138 1 -206 49z" />
    <glyph glyph-name="uni0406" unicode="&#x406;" horiz-adv-x="292" 
d="M138 674h170l-128 -674h-170z" />
    <glyph glyph-name="uni0407" unicode="&#x407;" horiz-adv-x="292" 
d="M138 674h169l-126 -674h-171zM122 708q-29 0 -50.5 19.5t-21.5 50.5q0 37 24 59.5t59 22.5q31 0 51 -20.5t20 -50.5q0 -36 -24 -58.5t-58 -22.5zM338 708q-29 0 -50.5 19.5t-21.5 50.5q0 37 24 59.5t59 22.5q31 0 51 -20.5t20 -50.5q0 -36 -24 -58.5t-58 -22.5z" />
    <glyph glyph-name="uni0408" unicode="&#x408;" horiz-adv-x="414" 
d="M188 258l78 416h171l-84 -437q-25 -132 -88.5 -190t-186.5 -58q-78 0 -115 16l32 145q39 -11 79 -11q47 0 74.5 26.5t39.5 92.5z" />
    <glyph glyph-name="uni0409" unicode="&#x409;" horiz-adv-x="942" 
d="M211 674h448l-46 -227q30 6 72 6q101 0 162.5 -51.5t61.5 -148.5q0 -100 -67 -167q-97 -94 -302 -94q-122 0 -177 12l98 525h-116l-28 -142q-11 -54 -20.5 -92t-26.5 -88t-41 -89.5t-55 -66.5q-71 -63 -189 -63l-16 143q66 2 102 43q28 28 52 91t32 111zM587 315
l-35 -188q16 -1 44 -1q51 0 91 28t40 77q0 42 -26.5 65t-66.5 23q-28 0 -47 -4z" />
    <glyph glyph-name="uni040A" unicode="&#x40a;" horiz-adv-x="953" 
d="M142 674h171l-48 -249h187l47 249h170l-47 -236q37 7 74 7q98 0 161 -50.5t63 -147.5q0 -94 -67 -161q-97 -94 -302 -94q-122 0 -177 12l52 281h-188l-53 -285h-170zM597 306l-34 -179q15 -1 44 -1q49 0 90 27.5t41 72.5q0 43 -27.5 64t-67.5 21q-24 0 -46 -5z" />
    <glyph glyph-name="uni040B" unicode="&#x40b;" horiz-adv-x="715" 
d="M98 674h541l-29 -147h-210l-23 -120h2q64 39 134 39q75 0 111 -40.5t35 -113.5q-1 -37 -13 -107l-31 -185h-171l32 177q8 38 8 71q0 24 -15 40.5t-45 16.5q-41 0 -73 -32l-51 -273h-168l99 527h-163z" />
    <glyph glyph-name="uni040C" unicode="&#x40c;" horiz-adv-x="612" 
d="M142 674h168l-54 -275h14l209 275h210l-272 -300q38 -24 58 -76t38 -139q26 -123 42 -159h-175q-15 33 -38 154q-12 62 -30.5 91.5t-60.5 29.5h-17l-52 -275h-169zM393 840h183l-130 -130h-144z" />
    <glyph glyph-name="uni040E" unicode="&#x40e;" horiz-adv-x="583" 
d="M70 674h189l48 -217q9 -35 30 -137h4q7 17 24 62.5t29 76.5l86 215h199l-190 -363q-37 -71 -58 -107.5t-56.5 -83.5t-72.5 -77q-64 -54 -158 -54q-65 0 -102 18l29 139q23 -9 59 -9q51 0 77 43q15 22 5 50zM240 840h117q-8 -60 32 -60q38 0 51 60h118q-30 -130 -180 -130
q-71 0 -105.5 33t-32.5 97z" />
    <glyph glyph-name="uni040F" unicode="&#x40f;" horiz-adv-x="665" 
d="M141 674h171l-100 -529h199l100 529h170l-127 -674h-191l-47 -190h-134l29 190h-197z" />
    <glyph glyph-name="uni0410" unicode="&#x410;" horiz-adv-x="640" 
d="M398 158h-177l-67 -158h-183l320 674h223l72 -674h-180zM269 287h123l-8 124q-5 91 -8 136h-2q-6 -14 -25 -64.5t-29 -72.5z" />
    <glyph glyph-name="uni0411" unicode="&#x411;" horiz-adv-x="596" 
d="M141 674h440l-26 -147h-271l-18 -93q37 7 74 7q95 0 157 -50t62 -145q0 -115 -90 -181q-93 -73 -268 -73q-126 0 -185 11zM241 309l-34 -184q16 -3 45 -3q48 0 87.5 29t39.5 77q0 40 -25 63t-66 23q-24 0 -47 -5z" />
    <glyph glyph-name="uni0412" unicode="&#x412;" horiz-adv-x="615" 
d="M15 8l123 654q79 17 191 17q111 0 172 -30q40 -17 65.5 -52t25.5 -80q0 -61 -36.5 -100t-94.5 -57v-2q49 -16 76.5 -54.5t27.5 -91.5q0 -100 -97 -162q-85 -55 -270 -55q-120 0 -183 13zM285 543l-25 -129h42q54 0 85 19t31 55q0 29 -22.5 44t-59.5 15q-38 0 -51 -4z
M234 290l-30 -160q14 -2 50 -2q56 0 93 22t37 65q0 75 -115 75h-35z" />
    <glyph glyph-name="uni0413" unicode="&#x413;" horiz-adv-x="485" 
d="M141 674h402l-29 -150h-230l-99 -524h-171z" />
    <glyph glyph-name="uni0414" unicode="&#x414;" horiz-adv-x="686" 
d="M233 674h446l-100 -535l66 -6l-71 -307h-136l24 174h-340l-48 -174h-134l53 307l56 6q55 82 93 169q40 97 57 188zM360 528l-15 -76q-18 -93 -53 -179q-29 -71 -67 -131h185l72 386h-122z" />
    <glyph glyph-name="uni0415" unicode="&#x415;" horiz-adv-x="538" 
d="M501 416l-28 -144h-237l-25 -127h267l-28 -145h-437l128 674h423l-28 -145h-252l-22 -113h239z" />
    <glyph glyph-name="uni0416" unicode="&#x416;" horiz-adv-x="877" 
d="M77 674h182l100 -279h13l51 279h162l-52 -280h13l200 280h192l-264 -300q27 -12 46.5 -35t32 -56t18.5 -59.5t13 -65.5q13 -99 37 -158h-172q-19 51 -35 159q-17 120 -86 120h-14l-51 -279h-165l53 280h-13q-70 0 -119 -112q-11 -23 -26 -58.5t-27.5 -62t-26.5 -47.5
h-179q16 23 29.5 50t32.5 71.5t25 58.5q43 92 82.5 133.5t105.5 61.5z" />
    <glyph glyph-name="uni0417" unicode="&#x417;" horiz-adv-x="532" 
d="M138 283l24 127h52q55 0 89 18t33 59q0 28 -21 43t-53 15q-63 0 -139 -37l-33 122q91 54 211 54q89 0 151 -40.5t62 -125.5q0 -63 -42.5 -107.5t-105.5 -58.5l-1 -2q52 -11 85.5 -50t33.5 -95q0 -73 -44 -123t-106.5 -71t-136.5 -21q-125 0 -208 57l52 128
q68 -41 153 -41q46 0 80 19.5t34 57.5q0 37 -34.5 54.5t-75.5 17.5h-60z" />
    <glyph glyph-name="uni0418" unicode="&#x418;" horiz-adv-x="672" 
d="M142 674h161l-32 -164q-26 -131 -69 -307h4q26 46 151 240l145 231h186l-128 -674h-161l32 161q37 189 60 278h-3q-50 -96 -140 -236l-133 -203h-201z" />
    <glyph glyph-name="uni0419" unicode="&#x419;" horiz-adv-x="672" 
d="M142 674h161l-31 -164q-26 -131 -69 -307h3q32 54 151 240l145 231h186l-128 -674h-161l32 161q37 189 60 278h-2q-59 -112 -141 -236l-132 -203h-202zM280 836h117q-8 -60 32 -60q38 0 51 60h118q-30 -130 -180 -130q-71 0 -105.5 33t-32.5 97z" />
    <glyph glyph-name="uni041A" unicode="&#x41a;" horiz-adv-x="612" 
d="M142 674h168l-54 -275h14l209 275h210l-272 -300q38 -24 58 -76t38 -139q26 -123 42 -159h-175q-15 33 -38 154q-12 62 -30.5 91.5t-60.5 29.5h-17l-52 -275h-169z" />
    <glyph glyph-name="uni041B" unicode="&#x41b;" horiz-adv-x="657" 
d="M209 674h465l-128 -674h-171l101 529h-133l-28 -144q-25 -129 -55.5 -205t-81.5 -123q-70 -68 -193 -69l-16 143q67 6 105 47q54 62 79 196z" />
    <glyph glyph-name="uni041C" unicode="&#x41c;" horiz-adv-x="839" 
d="M741 0h-165l38 241q21 138 48 278h-2q-63 -148 -121 -270l-111 -235h-133l-13 234q-8 155 -12 271h-2q-55 -265 -58 -278l-56 -241h-156l167 674h230l8 -200q9 -205 9 -234h4q31 89 97 235l89 199h233z" />
    <glyph glyph-name="uni041D" unicode="&#x41d;" horiz-adv-x="683" 
d="M141 674h171l-48 -254h216l48 254h171l-127 -674h-172l51 268h-216l-51 -268h-170z" />
    <glyph glyph-name="uni041E" unicode="&#x41e;" horiz-adv-x="721" 
d="M328 -11q-129 0 -205 79.5t-76 204.5q0 93 32.5 176t90.5 138q103 98 255 98q131 0 205.5 -77.5t74.5 -205.5q0 -94 -31.5 -177.5t-88.5 -138.5q-102 -97 -257 -97zM354 131q72 0 120.5 87t48.5 179q0 66 -28 106t-90 40q-51 0 -92.5 -43t-62.5 -103t-21 -120
q0 -68 31.5 -107t93.5 -39z" />
    <glyph glyph-name="uni041F" unicode="&#x41f;" horiz-adv-x="670" 
d="M142 674h544l-128 -674h-171l101 529h-202l-101 -529h-171z" />
    <glyph glyph-name="uni0420" unicode="&#x420;" horiz-adv-x="581" 
d="M14 0l125 661q74 18 188 18q120 0 185 -41q83 -50 83 -153q0 -125 -96 -196q-83 -62 -220 -62q-6 0 -54 4l-45 -231h-166zM283 541l-33 -172q30 -5 51 -5q54 0 88.5 31t34.5 74q0 75 -89 75q-37 0 -52 -3z" />
    <glyph glyph-name="uni0421" unicode="&#x421;" horiz-adv-x="594" 
d="M524 155l12 -138q-60 -28 -178 -28q-139 0 -224 78t-85 211q0 118 49 205t133 138q100 63 244 63q96 0 148 -26l-44 -139q-49 19 -118 19q-83 0 -138 -42q-88 -68 -88 -199q0 -76 44.5 -119t123.5 -43q72 0 121 20z" />
    <glyph glyph-name="uni0422" unicode="&#x422;" horiz-adv-x="550" 
d="M139 0l98 525h-169l29 149h512l-29 -149h-172l-99 -525h-170z" />
    <glyph glyph-name="uni0423" unicode="&#x423;" horiz-adv-x="583" 
d="M70 674h189l48 -217q9 -35 30 -137h4q41 110 53 139l86 215h198l-189 -363q-37 -71 -58 -107.5t-56.5 -83.5t-72.5 -77q-64 -54 -158 -54q-65 0 -102 18l29 139q23 -9 59 -9q51 0 77 43q15 22 5 50z" />
    <glyph glyph-name="uni0424" unicode="&#x424;" horiz-adv-x="805" 
d="M269 -30l12 67q-96 20 -163 87.5t-67 179.5q0 70 22.5 128.5t58.5 96.5t82.5 64.5t92 38.5t89.5 13l12 59h159l-11 -62q96 -19 162.5 -87t66.5 -183q0 -86 -32 -153.5t-84 -106t-110.5 -58.5t-118.5 -21l-12 -63h-159zM304 160l69 364q-59 -5 -104 -68.5t-45 -154.5
q0 -57 22.5 -93.5t57.5 -47.5zM532 521l-69 -366q57 5 103 64.5t46 164.5q0 57 -21.5 92.5t-58.5 44.5z" />
    <glyph glyph-name="uni0425" unicode="&#x425;" horiz-adv-x="590" 
d="M539 0h-182l-37 122q-4 16 -33 115h-2q-12 -21 -31.5 -59.5t-32.5 -62.5l-62 -115h-205l248 345l-115 329h180l31 -110q4 -16 14 -53.5t16 -62.5h3q13 24 32.5 62t29.5 57l57 107h203l-240 -331z" />
    <glyph glyph-name="uni0426" unicode="&#x426;" horiz-adv-x="689" 
d="M142 674h170l-100 -529h199l100 529h171l-101 -536l66 -5l-71 -307h-136l24 174h-450z" />
    <glyph glyph-name="uni0427" unicode="&#x427;" horiz-adv-x="623" 
d="M129 674h170l-37 -190q-5 -23 -5 -46q0 -63 81 -63q47 0 78 17l54 282h170l-129 -674h-170l50 258l-3 1q-45 -22 -125 -22q-85 0 -133.5 41t-48.5 115q0 26 9 76z" />
    <glyph glyph-name="uni0428" unicode="&#x428;" horiz-adv-x="904" 
d="M142 674h166l-100 -529h140l100 529h166l-100 -529h139l101 529h166l-128 -674h-778z" />
    <glyph glyph-name="uni0429" unicode="&#x429;" horiz-adv-x="928" 
d="M143 674h166l-100 -529h140l100 529h166l-100 -529h139l101 529h166l-102 -536l67 -5l-72 -307h-136l25 174h-688z" />
    <glyph glyph-name="uni042A" unicode="&#x42a;" horiz-adv-x="714" 
d="M96 674h332l-46 -227q40 6 70 6q103 0 165 -52.5t62 -149.5q0 -95 -65 -162q-96 -97 -306 -97q-117 0 -176 11l99 523h-162zM356 314l-35 -185q16 -3 44 -3q50 0 90.5 28t40.5 76q0 41 -26 65t-68 24q-28 0 -46 -5z" />
    <glyph glyph-name="uni042B" unicode="&#x42b;" horiz-adv-x="857" 
d="M141 674h169l-45 -228q33 7 74 7q91 0 151 -52.5t60 -148.5q0 -98 -66 -166q-94 -94 -293 -94q-117 0 -176 11zM239 314l-35 -186q10 -2 43 -2q45 0 82.5 27.5t37.5 76.5q0 41 -23 65t-59 24q-24 0 -46 -5zM695 674h179l-129 -674h-179z" />
    <glyph glyph-name="uni042C" unicode="&#x42c;" horiz-adv-x="595" 
d="M141 674h169l-45 -228q33 7 74 7q99 0 161 -52t62 -150q0 -94 -65 -161q-98 -98 -306 -98q-117 0 -176 11zM239 314l-35 -185q16 -3 44 -3q50 0 90.5 27.5t40.5 76.5q0 41 -26.5 65t-68.5 24q-23 0 -45 -5z" />
    <glyph glyph-name="uni042D" unicode="&#x42d;" horiz-adv-x="589" 
d="M101 265l26 135h264v9q-2 54 -41 93t-106 39q-63 0 -126 -23l-33 129q86 38 182 38q139 0 220.5 -84.5t81.5 -223.5q0 -180 -111 -288q-103 -100 -286 -100q-55 0 -105.5 12t-75.5 26l41 134q55 -27 138 -27q77 0 129.5 36t69.5 95h-268z" />
    <glyph glyph-name="uni042E" unicode="&#x42e;" horiz-adv-x="973" 
d="M142 674h170l-48 -255h81q31 102 97 168q98 98 244 98q125 0 197.5 -78t72.5 -206q0 -94 -31 -177.5t-86 -138.5q-96 -96 -243 -96q-119 0 -193 76t-74 179q0 17 2 26h-96l-50 -270h-171zM618 129q47 0 85 44.5t56 104.5t18 119q0 148 -111 148q-48 0 -87.5 -43.5
t-59.5 -104t-20 -120.5q0 -69 30.5 -108.5t88.5 -39.5z" />
    <glyph glyph-name="uni042F" unicode="&#x42f;" horiz-adv-x="595" 
d="M612 661l-122 -661h-171l49 258h-16q-25 0 -46 -12.5t-40.5 -40t-27 -41t-24.5 -46.5q-36 -77 -63 -118h-188q28 40 83 150q73 140 150 164v3q-42 11 -76.5 49t-34.5 100q0 103 89 161q81 52 228 52q129 0 210 -18zM392 383l29 161q-22 4 -46 4q-50 0 -82 -23.5
t-32 -67.5q0 -36 27.5 -56.5t66.5 -20.5q19 0 37 3z" />
    <glyph glyph-name="uni0430" unicode="&#x430;" horiz-adv-x="568" 
d="M487 0h-156q1 14 2 42.5t2 42.5h-2q-58 -96 -157 -96q-67 0 -109.5 48t-42.5 127q0 64 21 122.5t62.5 108t112.5 79t162 29.5t174 -27l-50 -258q-22 -117 -19 -218zM346 273l18 99q-16 3 -30 3q-55 0 -93.5 -59.5t-38.5 -119.5q0 -34 13.5 -52t35.5 -18q29 0 55 34
t40 113z" />
    <glyph glyph-name="uni0431" unicode="&#x431;" horiz-adv-x="576" 
d="M587 719l-25 -140q-23 -7 -93 -14q-48 -3 -69.5 -5t-60.5 -15t-67 -36q-23 -19 -42 -49.5t-25 -55.5h5q64 88 160 88q82 0 130 -56t47 -140q-1 -128 -83.5 -217.5t-209.5 -89.5q-97 0 -153 63.5t-56 181.5q0 232 130 359q63 61 133 83t175 28q70 4 104 15zM273 113
q48 0 73 56t25 116q0 33 -14.5 59.5t-44.5 26.5q-31 0 -56 -32q-44 -55 -44 -135q0 -39 15.5 -65t45.5 -26z" />
    <glyph glyph-name="uni0432" unicode="&#x432;" horiz-adv-x="558" 
d="M326 503q92 0 142.5 -31t50.5 -93q0 -44 -34 -73.5t-79 -41.5v-2q42 -4 72 -30t30 -69q0 -48 -26.5 -84t-70 -54.5t-88 -27t-89.5 -8.5q-205 0 -205 156q0 80 33.5 173.5t94.5 136.5q67 48 169 48zM313 389q-63 0 -90 -97q66 12 94 24q39 16 39 42q0 14 -11.5 22.5
t-31.5 8.5zM275 201q-37 0 -71 -14q-5 -17 -5 -35q0 -47 55 -47q38 0 60 15t22 38q0 43 -61 43z" />
    <glyph glyph-name="uni0433" unicode="&#x433;" horiz-adv-x="444" 
d="M101 354l-15 113q72 36 169 36q86 0 131.5 -37.5t45.5 -104.5q0 -60 -44.5 -98t-128.5 -72q-43 -18 -62 -30t-19 -26q0 -22 40 -22q64 0 142 40l17 -120q-84 -43 -184 -43q-90 0 -140.5 35.5t-50.5 103.5q0 22 6 42t14 34t25 28.5t28.5 22.5t35.5 19.5t35.5 16t38.5 15.5
q81 33 81 49q0 23 -47 23q-53 0 -118 -25z" />
    <glyph glyph-name="uni0434" unicode="&#x434;" horiz-adv-x="576" 
d="M139 580l-2 139q29 -8 95.5 -11.5t70.5 -3.5q112 -12 171 -63q83 -65 83 -229q0 -62 -11 -120.5t-35.5 -114t-61 -97t-91.5 -66.5t-122 -25q-97 0 -153 55t-56 153q0 115 75 205t189 90q89 0 126 -72h3q1 9 1 23q2 53 -38 85q-39 34 -141 41q-64 4 -103 11zM262 114
q32 0 56.5 30.5t35 67t11.5 68.5q0 86 -59 86q-48 0 -76.5 -57t-26.5 -116q2 -79 59 -79z" />
    <glyph glyph-name="uni0435" unicode="&#x435;" horiz-adv-x="523" 
d="M432 151l10 -122q-80 -39 -193 -39q-108 0 -165.5 54.5t-57.5 157.5q0 120 80.5 210.5t212.5 90.5q80 0 131.5 -41.5t51.5 -114.5q0 -177 -315 -168q3 -19 18 -32q29 -26 87 -26q77 0 140 30zM343 348q0 13 -12 22.5t-32 9.5q-42 0 -66.5 -24.5t-29.5 -53.5q76 -1 108 10
t32 36z" />
    <glyph glyph-name="uni0436" unicode="&#x436;" horiz-adv-x="765" 
d="M49 492h183l60 -198h12l37 198h161l-40 -198h13l142 198h189l-195 -214q56 -22 74 -149q16 -95 27 -129h-165q-9 26 -21 101q-4 28 -8.5 45.5t-18.5 35t-36 17.5h-17l-36 -199h-162l38 199h-12q-58 0 -95 -84q-6 -13 -17 -38t-20 -43.5t-18 -33.5h-167q11 19 20.5 40
t22 51.5t18.5 43.5q26 57 63.5 96.5t79.5 45.5z" />
    <glyph glyph-name="uni0437" unicode="&#x437;" horiz-adv-x="487" 
d="M99 198l17 108h67q86 0 86 37q0 19 -18.5 29.5t-47.5 10.5q-63 0 -123 -30l-27 103q92 45 192 45q35 0 67 -5.5t65 -18.5t52.5 -40.5t19.5 -66.5q0 -47 -36 -75.5t-88 -38.5l-1 -2q46 -8 78.5 -36t32.5 -76q0 -42 -24 -73t-62.5 -47t-78 -23t-79.5 -7q-130 0 -210 53
l41 112q71 -42 147 -42q35 0 60 11t25 31q0 41 -87 41h-68z" />
    <glyph glyph-name="uni0438" unicode="&#x438;" horiz-adv-x="575" 
d="M98 492h171l-49 -259q-7 -35 -7 -62q0 -44 37 -44q33 0 60.5 39t40.5 108l41 218h171l-61 -324q-15 -82 -28 -168h-150l7 75h-2q-71 -86 -168 -86q-63 0 -94 35.5t-31 100.5q0 36 10 94z" />
    <glyph glyph-name="uni0439" unicode="&#x439;" horiz-adv-x="575" 
d="M98 492h170l-48 -259q-7 -35 -7 -62q0 -44 37 -44q33 0 60.5 39t40.5 108l41 218h171l-61 -324q-15 -82 -28 -168h-150l7 75h-2q-71 -86 -168 -86q-63 0 -94 35.5t-31 100.5q0 36 10 94zM228 696h105q-4 -29 4 -46t25 -16q34 0 48 62h105q-14 -67 -56.5 -102t-107.5 -35
t-96 35.5t-27 101.5z" />
    <glyph glyph-name="uni043A" unicode="&#x43a;" horiz-adv-x="530" 
d="M99 492h167l-37 -197h12l143 197h200l-205 -218q56 -26 72 -148q11 -76 27 -126h-168q-4 11 -7.5 28.5t-8.5 45.5t-7 41q-7 42 -21.5 62.5t-43.5 20.5h-12l-38 -198h-166z" />
    <glyph glyph-name="uni043B" unicode="&#x43b;" horiz-adv-x="560" 
d="M141 492h409l-93 -492h-170l68 362h-83l-16 -80q-33 -160 -98 -225q-62 -65 -174 -65l-11 133q50 4 76 35q36 41 52 126z" />
    <glyph glyph-name="uni043C" unicode="&#x43c;" horiz-adv-x="732" 
d="M123 492h216l10 -168q1 -12 5 -107h2q22 52 55 118l77 157h217l-67 -492h-156l29 180q5 33 27 161h-3q-57 -123 -70 -150l-88 -181h-129l-13 174q-5 77 -9 158h-4q-24 -114 -35 -165l-43 -177h-149z" />
    <glyph glyph-name="uni043D" unicode="&#x43d;" horiz-adv-x="569" 
d="M98 492h171l-33 -174h119l33 174h170l-93 -492h-171l36 187h-118l-36 -187h-170z" />
    <glyph glyph-name="uni043E" unicode="&#x43e;" horiz-adv-x="575" 
d="M242 -11q-96 0 -156 55t-60 149q0 132 84.5 221t217.5 89q98 0 157 -57t59 -145q0 -141 -85.5 -226.5t-216.5 -85.5zM266 118q47 0 74 59t27 122q0 33 -15 54t-46 21q-34 0 -59 -33t-34.5 -72t-9.5 -73q0 -37 16.5 -57.5t46.5 -20.5z" />
    <glyph glyph-name="uni043F" unicode="&#x43f;" horiz-adv-x="576" 
d="M176 0h-170l61 324q15 82 28 168h150l-8 -76h2q66 87 168 87q65 0 96 -36t31 -98q0 -38 -8 -84l-55 -285h-170l50 267q5 27 5 51q0 48 -37 48q-33 0 -61 -41t-42 -115z" />
    <glyph glyph-name="uni0440" unicode="&#x440;" horiz-adv-x="581" 
d="M139 -198h-170l94 493q14 73 29 202h152l-7 -68h2q57 74 150 74q77 0 119 -54t42 -136q0 -133 -78.5 -228.5t-205.5 -95.5q-54 0 -85 20h-2zM220 232l-15 -93q22 -22 54 -22q46 0 79 58t33 124q0 28 -12.5 47t-38.5 19q-37 0 -64 -36.5t-36 -96.5z" />
    <glyph glyph-name="uni0441" unicode="&#x441;" horiz-adv-x="438" 
d="M379 142l-2 -129q-51 -24 -138 -24q-94 0 -154.5 54t-60.5 153q0 134 93 220.5t236 86.5q57 0 99 -15l-41 -129q-24 9 -59 9q-67 0 -108 -44.5t-41 -108.5q0 -45 25 -67.5t60 -22.5q44 0 91 17z" />
    <glyph glyph-name="uni0442" unicode="&#x442;" horiz-adv-x="842" 
d="M171 0h-165l59 324q15 76 27 168h146l-7 -75h1q63 86 166 86q54 0 83.5 -27t33.5 -59q63 86 164 86q61 0 91 -35.5t30 -97.5q0 -42 -9 -85l-52 -285h-165l48 263q6 38 6 57q0 21 -9.5 34t-27.5 13q-32 0 -58.5 -42.5t-39.5 -114.5l-40 -210h-163l49 263q6 38 6 54
q0 50 -35 50q-33 0 -60.5 -43t-40.5 -114z" />
    <glyph glyph-name="uni0443" unicode="&#x443;" horiz-adv-x="522" 
d="M42 492h179l23 -194q2 -18 7 -57t7 -55h2q39 112 39 113l73 193h180q-16 -32 -79 -164t-93 -190q-104 -196 -197 -281q-39 -36 -85.5 -57.5t-78.5 -26.5l-37 147q42 11 81 35q49 31 73 74q6 10 2 24z" />
    <glyph glyph-name="uni0444" unicode="&#x444;" horiz-adv-x="759" 
d="M214 -198l43 226h-2q-34 -39 -100 -39q-56 0 -93 48t-37 139q0 132 69 229.5t172 97.5q51 0 74 -41h2l47 248h153l-50 -250h3q41 43 100 43q67 0 102 -53.5t35 -132.5q0 -135 -68.5 -231.5t-169.5 -96.5q-59 0 -81 38h-2l-39 -225h-158zM289 373q-37 0 -65.5 -58
t-28.5 -119q0 -32 12 -51t31 -19q37 0 48 46l28 137q3 16 5 38q-3 26 -30 26zM520 365q-25 0 -39 -25q-11 -31 -18 -64q-7 -35 -21 -109q-3 -29 7 -36q13 -11 35 -6q29 7 53.5 60.5t24.5 111.5q0 29 -10.5 48.5t-31.5 19.5z" />
    <glyph glyph-name="uni0445" unicode="&#x445;" horiz-adv-x="524" 
d="M43 492h188l21 -60q18 -48 31 -84h3q9 15 26.5 42t25.5 39l39 63h195l-208 -239l114 -253h-187l-24 65q-24 71 -29 89h-3q-6 -10 -22 -37.5t-28 -47.5l-41 -69h-197l212 255z" />
    <glyph glyph-name="uni0446" unicode="&#x446;" horiz-adv-x="592" 
d="M98 492h171l-49 -259q-7 -35 -7 -62q0 -44 37 -44q33 0 60.5 39t40.5 108l41 218h171l-51 -268q-10 -50 -10 -73q0 -59 71 -60l-82 -253h-122l44 163q-27 10 -41 31q-12 16 -19 49h-2q-73 -92 -179 -92q-65 0 -100.5 36t-35.5 100q0 36 10 94z" />
    <glyph glyph-name="uni0447" unicode="&#x447;" horiz-adv-x="555" 
d="M85 492h170l-23 -116q-7 -33 -7 -50q0 -20 14 -33t40 -13q35 0 60 17l36 195h170l-94 -492h-171l38 178h-2q-42 -21 -108 -21q-79 0 -119 35t-40 95q0 25 9 74z" />
    <glyph glyph-name="uni0448" unicode="&#x448;" horiz-adv-x="843" 
d="M97 492h166l-49 -263q-6 -38 -6 -57q0 -21 10 -34t28 -13q32 0 58.5 42.5t39.5 114.5l40 210h163l-49 -263q-6 -38 -6 -54q0 -50 35 -50q32 0 60 43.5t41 113.5l38 210h164l-59 -323q-10 -55 -16 -169h-152q1 13 2.5 38.5t1.5 37.5h-1q-64 -87 -167 -87q-54 0 -83.5 27
t-33.5 59q-63 -86 -165 -86q-61 0 -91 35.5t-30 97.5q0 42 9 85z" />
    <glyph glyph-name="uni0449" unicode="&#x449;" horiz-adv-x="862" 
d="M97 492h166l-49 -263q-6 -38 -6 -57q0 -21 10 -34t28 -13q32 0 57.5 42.5t39.5 114.5l41 210h163l-49 -263q-6 -38 -6 -54q0 -50 35 -50q32 0 60 43.5t41 113.5l38 210h165l-47 -258q-12 -72 -12 -86q0 -56 71 -57l-82 -253h-122l44 163q-22 5 -40 29.5t-23 50.5h-3
q-33 -45 -80 -68.5t-97 -23.5q-54 0 -84 27t-34 59q-63 -86 -165 -86q-61 0 -91 35.5t-30 97.5q0 42 9 85z" />
    <glyph glyph-name="uni044A" unicode="&#x44a;" horiz-adv-x="608" 
d="M57 492h344q-66 -93 -102 -174h1q46 36 124 36q62 0 103 -36.5t41 -101.5q0 -86 -74 -156t-203 -70q-39 0 -69 5.5t-60 20t-46.5 45t-16.5 76.5q0 99 87 224h-153zM314 110q35 0 61 21t26 55q0 24 -14 36t-37 12q-25 0 -44.5 -14t-28.5 -31q-9 -20 -9 -35q0 -19 12 -31.5
t34 -12.5z" />
    <glyph glyph-name="uni044B" unicode="&#x44b;" horiz-adv-x="784" 
d="M108 492h167l-45 -174h1q48 36 125 36q61 0 98.5 -36t37.5 -100q0 -88 -73 -158t-209 -70q-178 0 -178 125q0 32 14 102zM246 110q29 0 54 21.5t25 55.5q0 23 -12.5 35t-33.5 12q-27 0 -47 -17t-26 -36q-5 -13 -5 -32q0 -39 45 -39zM595 492h179l-94 -492h-179z" />
    <glyph glyph-name="uni044C" unicode="&#x44c;" horiz-adv-x="541" 
d="M109 492h166l-45 -174h1q47 36 125 36q62 0 103.5 -36.5t41.5 -100.5q0 -91 -74.5 -159t-213.5 -68q-182 0 -182 130q0 28 16 97zM247 110q33 0 60.5 21t27.5 55q0 23 -14 35.5t-35 12.5q-30 0 -50.5 -16.5t-28.5 -35.5q-6 -14 -6 -32q0 -40 46 -40z" />
    <glyph glyph-name="uni044D" unicode="&#x44d;" horiz-adv-x="485" 
d="M87 191l20 107h174v5q0 31 -26 51.5t-73 20.5q-57 0 -99 -16l-27 117q71 27 150 27q117 0 180 -63t63 -170q0 -129 -82 -204.5t-230 -75.5q-97 4 -151 33l38 118q49 -22 115 -22q46 0 80 18t47 54h-179z" />
    <glyph glyph-name="uni044E" unicode="&#x44e;" horiz-adv-x="791" 
d="M99 492h171l-34 -179h59q31 86 100.5 138t161.5 52q90 0 147 -58t57 -150q0 -137 -81 -221.5t-204 -84.5q-90 0 -144 51t-54 135q0 10 1 17h-66l-36 -192h-171zM497 118q40 0 65.5 60t25.5 121q0 33 -12.5 54t-37.5 21q-43 0 -69 -61t-26 -118q0 -77 54 -77z" />
    <glyph glyph-name="uni044F" unicode="&#x44f;" horiz-adv-x="556" 
d="M546 491l-93 -491h-168l34 176h-21q-56 0 -94 -75q-32 -66 -55 -101h-183q18 25 43.5 73t29.5 55q45 83 115 97v3q-34 5 -66 35t-32 72q0 167 296 167q112 0 194 -11zM339 283l19 102q-16 4 -45 4q-83 0 -83 -55q0 -51 76 -51h33z" />
    <glyph glyph-name="uni0451" unicode="&#x451;" horiz-adv-x="523" 
d="M432 151l10 -122q-80 -39 -193 -39q-108 0 -165.5 54.5t-57.5 157.5q0 120 80.5 210.5t212.5 90.5q80 0 131.5 -41.5t51.5 -114.5q0 -177 -315 -168q3 -19 18 -32q29 -26 87 -26q77 0 140 30zM343 348q0 13 -12 22.5t-32 9.5q-42 0 -66.5 -24.5t-29.5 -53.5q76 -1 108 10
t32 36zM224 547q-31 0 -52.5 20t-21.5 53q0 38 24.5 61.5t61.5 23.5q33 0 53 -20.5t20 -53.5q0 -39 -24.5 -61.5t-60.5 -22.5zM439 547q-31 0 -52.5 20t-21.5 53q0 38 24.5 61.5t61.5 23.5q33 0 53 -20.5t20 -53.5q0 -39 -24.5 -61.5t-60.5 -22.5z" />
    <glyph glyph-name="uni0452" unicode="&#x452;" horiz-adv-x="577" 
d="M141 710h169l-10 -56h214l-21 -110h-214l-19 -102h2q52 52 124 52q78 0 116.5 -58t38.5 -145q0 -193 -105 -321q-38 -46 -97 -76t-114 -35l-24 140q29 4 49.5 16.5t45.5 39.5q28 32 47.5 87.5t19.5 117.5q0 94 -55 94q-62 0 -86 -120l-45 -234h-170l102 544h-52l22 110
h51z" />
    <glyph glyph-name="uni0453" unicode="&#x453;" horiz-adv-x="444" 
d="M101 354l-15 113q72 36 169 36q86 0 131.5 -37.5t45.5 -104.5q0 -60 -44.5 -98t-128.5 -72q-43 -18 -62 -30t-19 -26q0 -22 40 -22q64 0 142 40l17 -120q-84 -43 -184 -43q-90 0 -140.5 35.5t-50.5 103.5q0 22 6 42t14 34t25 28.5t28.5 22.5t35.5 19.5t35.5 16t38.5 15.5
q81 33 81 49q0 23 -47 23q-53 0 -118 -25zM302 706h160l-129 -156h-123z" />
    <glyph glyph-name="uni0454" unicode="&#x454;" horiz-adv-x="452" 
d="M465 480l-38 -120q-34 16 -82 16q-45 0 -79 -20t-48 -58h173l-19 -106h-171l1 -2v-3q14 -66 100 -66q51 0 96 18l6 -123q-58 -27 -148 -27q-100 0 -164 59.5t-64 162.5q0 127 80 205q87 87 234 87q77 0 123 -23z" />
    <glyph glyph-name="uni0455" unicode="&#x455;" horiz-adv-x="436" 
d="M-9 31l40 117q75 -35 138 -35q48 0 48 29q0 14 -13 25.5t-45 25.5q-110 53 -110 133t64.5 128.5t167.5 48.5q87 0 137 -26l-39 -119q-48 21 -104 21q-54 0 -54 -30q0 -20 56 -44q24 -11 41.5 -22t36.5 -27.5t29.5 -39t10.5 -48.5q0 -85 -67 -132.5t-175 -45.5
q-110 2 -162 41z" />
    <glyph glyph-name="uni0456" unicode="&#x456;" horiz-adv-x="284" 
d="M176 0h-170l93 492h170zM201 544q-37 0 -60.5 23t-23.5 61q0 44 29.5 72t71.5 28q39 0 63.5 -23t24.5 -62q0 -46 -30.5 -72.5t-74.5 -26.5z" />
    <glyph glyph-name="uni0457" unicode="&#x457;" horiz-adv-x="281" 
d="M176 0h-170l93 492h171zM98 547q-31 0 -52.5 20t-21.5 53q0 38 24.5 61.5t61.5 23.5q33 0 53 -20.5t20 -53.5q0 -39 -24.5 -61.5t-60.5 -22.5zM313 547q-31 0 -52.5 20t-21.5 53q0 38 24.5 61.5t61.5 23.5q33 0 53 -20.5t20 -53.5q0 -39 -24.5 -61.5t-60.5 -22.5z" />
    <glyph glyph-name="uni0458" unicode="&#x458;" horiz-adv-x="297" 
d="M119 492h169l-87 -469q-23 -123 -71 -177q-48 -55 -143 -55q-42 0 -75 8l19 129q11 -2 29 -2q26 0 43 19t27 76zM215 544q-37 0 -60.5 23t-23.5 61q0 44 29.5 72t71.5 28q39 0 63.5 -23t24.5 -62q0 -46 -30.5 -72.5t-74.5 -26.5z" />
    <glyph glyph-name="uni0459" unicode="&#x459;" horiz-adv-x="806" 
d="M128 492h404l-37 -173h3q45 35 123 35q63 0 104.5 -36.5t41.5 -100.5q0 -40 -17 -79t-51 -73t-92 -54.5t-133 -20.5q-177 0 -177 129q0 24 15 99l30 144h-83l-16 -80q-18 -88 -41 -139.5t-57 -86.5q-62 -64 -162 -64l-10 134q35 4 63 34q36 41 52 127zM513 110
q33 0 60.5 21t27.5 55q0 24 -14.5 36t-36.5 12q-29 0 -50 -17t-28 -38q-5 -15 -5 -27q0 -42 46 -42z" />
    <glyph glyph-name="uni045A" unicode="&#x45a;" horiz-adv-x="813" 
d="M99 492h171l-33 -171h103l35 171h165l-36 -174h1q47 36 123 36q62 0 103.5 -36.5t41.5 -100.5q0 -88 -74.5 -157.5t-217.5 -69.5q-175 0 -175 121q0 9 5 54l5 27h-104l-35 -192h-171zM520 110q36 0 61.5 20.5t25.5 55.5q0 24 -13.5 36t-35.5 12q-30 0 -51 -17t-26 -37
q-6 -17 -6 -31q0 -17 12.5 -28t32.5 -11z" />
    <glyph glyph-name="uni045B" unicode="&#x45b;" horiz-adv-x="577" 
d="M143 710h170l-11 -59h195l-23 -107h-193l-19 -105l2 -1q65 65 147 65q62 0 93.5 -36t31.5 -98q0 -43 -10 -91l-52 -278h-171l50 263q6 28 6 58q0 45 -38 45q-33 0 -60.5 -40t-40.5 -110l-41 -216h-171l103 544h-69l22 107h67z" />
    <glyph glyph-name="uni045C" unicode="&#x45c;" horiz-adv-x="530" 
d="M99 492h167l-37 -197h12l143 197h200l-205 -218q56 -26 72 -148q11 -76 27 -126h-168q-4 11 -7.5 28.5t-8.5 45.5t-7 41q-7 42 -21.5 62.5t-43.5 20.5h-12l-38 -198h-166zM334 706h161l-129 -156h-124z" />
    <glyph glyph-name="uni045E" unicode="&#x45e;" horiz-adv-x="522" 
d="M42 492h179l23 -194q2 -18 7 -57t7 -55h2q39 112 39 113l73 193h180q-16 -32 -79 -164t-93 -190q-104 -196 -197 -281q-39 -36 -85.5 -57.5t-78.5 -26.5l-37 147q42 11 81 35q49 31 73 74q6 10 2 24zM187 696h105q-4 -29 4 -46t25 -16q34 0 48 62h105q-14 -67 -56.5 -102
t-107.5 -35t-96 35.5t-27 101.5z" />
    <glyph glyph-name="uni045F" unicode="&#x45f;" horiz-adv-x="575" 
d="M98 492h171l-49 -259q-7 -35 -7 -62q0 -44 37 -44q33 0 60.5 39t40.5 108l41 218h171l-61 -324q-15 -82 -28 -168h-150l7 75h-2q-71 -86 -168 -86q-63 0 -94 35.5t-31 100.5q0 36 10 94zM264 -194l-136 -18l38 164l149 10z" />
    <glyph glyph-name="uni0490" unicode="&#x490;" horiz-adv-x="467" 
d="M142 674h249l47 135h129l-70 -285h-213l-99 -524h-171z" />
    <glyph glyph-name="uni0491" unicode="&#x491;" horiz-adv-x="418" 
d="M99 492h202l41 116h125l-57 -249h-165l-68 -359h-171z" />
    <glyph glyph-name="uni04D9" unicode="&#x4d9;" horiz-adv-x="520" 
d="M87 340l-16 120q83 43 195 43q109 0 166.5 -55t57.5 -159q0 -121 -79 -210t-212 -89q-82 0 -134 41.5t-52 114.5q0 177 316 168q-5 17 -17 31q-28 27 -88 27q-70 0 -137 -32zM218 113q41 0 65.5 24.5t29.5 53.5q-76 1 -108.5 -10t-32.5 -35q0 -14 12 -23.5t34 -9.5z" />
    <glyph glyph-name="Wgrave" unicode="&#x1e80;" horiz-adv-x="879" 
d="M303 0h-190l-23 674h172l-5 -254q-5 -181 -7 -238h2q15 40 43 120t41 116l92 256h189l-9 -263q-5 -130 -10 -225h2q37 115 78 234l88 254h180l-290 -674h-188l1 230q0 115 8 237h-2q-67 -195 -88 -250zM337 840h181l78 -128h-142z" />
    <glyph glyph-name="wgrave" unicode="&#x1e81;" horiz-adv-x="745" 
d="M47 492h173l-6 -180q-2 -84 -7 -167h2q11 36 62 163l75 184h138l4 -177q2 -111 -1 -170h2q14 50 57 175l63 172h172l-238 -492h-160l-7 130q-2 54 -2 168h-2q-10 -27 -29 -80.5t-30 -79.5l-59 -138h-161zM266 706h159l78 -156h-122z" />
    <glyph glyph-name="Wacute" unicode="&#x1e82;" horiz-adv-x="879" 
d="M303 0h-190l-23 674h172l-5 -254q-5 -181 -7 -238h2q15 40 43 120t41 116l92 256h189l-9 -263q-5 -130 -10 -225h2q37 115 78 234l88 254h180l-290 -674h-188l1 230q0 115 8 237h-2q-67 -195 -88 -250zM534 840h183l-131 -130h-143z" />
    <glyph glyph-name="wacute" unicode="&#x1e83;" horiz-adv-x="745" 
d="M47 492h173l-6 -180q-2 -84 -7 -167h2q11 36 62 163l75 184h138l4 -177q2 -111 -1 -170h2q14 50 57 175l63 172h172l-238 -492h-160l-7 130q-2 54 -2 168h-2q-10 -27 -29 -80.5t-30 -79.5l-59 -138h-161zM433 706h161l-129 -156h-124z" />
    <glyph glyph-name="Wdieresis" unicode="&#x1e84;" horiz-adv-x="879" 
d="M303 0h-190l-23 674h172l-5 -254q-5 -181 -7 -238h2q15 40 43 120t41 116l92 256h189l-9 -263q-5 -130 -10 -225h2q37 115 78 234l88 254h180l-290 -674h-188l1 230q0 115 8 237h-2q-67 -195 -88 -250zM427 708q-29 0 -50.5 19.5t-21.5 50.5q0 37 24 59.5t59 22.5
q31 0 51 -20.5t20 -50.5q0 -36 -24 -58.5t-58 -22.5zM643 708q-29 0 -50.5 19.5t-21.5 50.5q0 37 24 59.5t59 22.5q31 0 51 -20.5t20 -50.5q0 -36 -24 -58.5t-58 -22.5z" />
    <glyph glyph-name="wdieresis" unicode="&#x1e85;" horiz-adv-x="745" 
d="M47 492h173l-6 -180q-2 -84 -7 -167h2q11 36 62 163l76 184h137l4 -177q2 -111 -1 -170h2q14 50 57 175l63 172h171l-237 -492h-160l-6 130q-3 54 -3 168h-2q-11 -30 -22.5 -63.5t-19.5 -55t-17 -41.5l-59 -138h-161zM325 547q-31 0 -53 20t-22 53q0 38 25 61.5t61 23.5
q33 0 53 -20.5t20 -53.5q0 -39 -24 -61.5t-60 -22.5zM539 547q-31 0 -52.5 20t-21.5 53q0 38 24.5 61.5t61.5 23.5q33 0 53 -20.5t20 -53.5q0 -39 -24.5 -61.5t-60.5 -22.5z" />
    <glyph glyph-name="uni1EA0" unicode="&#x1ea0;" horiz-adv-x="640" 
d="M398 158h-177l-67 -158h-183l320 674h223l72 -674h-180zM269 287h123l-8 124q-5 91 -8 136h-2q-4 -10 -23.5 -62.5t-30.5 -74.5zM251 -233q-33 0 -55.5 22.5t-22.5 53.5q0 33 23 55t56 22q32 0 53.5 -22t21.5 -55q0 -31 -22 -53.5t-54 -22.5z" />
    <glyph glyph-name="uni1EA1" unicode="&#x1ea1;" horiz-adv-x="568" 
d="M483 0h-156q1 14 2 42.5t2 42.5h-2q-55 -96 -155 -96q-67 0 -109.5 48t-42.5 127q0 64 21 122.5t62 108t112 79t162 29.5t176 -27l-53 -258q-22 -117 -19 -218zM343 273l20 99q-17 3 -31 3q-55 0 -93.5 -59.5t-38.5 -119.5q0 -34 13.5 -52t35.5 -18q28 0 53.5 34
t40.5 113zM222 -238q-34 0 -57 23t-23 56q0 34 23 56.5t58 22.5q32 0 54 -22.5t22 -56.5q0 -33 -22 -56t-55 -23z" />
    <glyph glyph-name="uni1EA2" unicode="&#x1ea2;" horiz-adv-x="640" 
d="M398 158h-177l-67 -158h-183l320 674h223l72 -674h-180zM269 287h123l-8 124q-5 91 -8 136h-2q-4 -10 -23.5 -62.5t-30.5 -74.5zM442 701l-75 27q8 14 33 39t25 43q0 11 -7 18.5t-19 7.5q-19 0 -44 -27l-47 36q55 76 130 76q45 0 72.5 -24.5t27.5 -60.5q0 -28 -16 -49.5
t-42 -44.5t-38 -41z" />
    <glyph glyph-name="uni1EA3" unicode="&#x1ea3;" horiz-adv-x="568" 
d="M483 0h-156q1 14 2 42.5t2 42.5h-2q-55 -96 -155 -96q-67 0 -109.5 48t-42.5 127q0 64 21 122.5t62 108t112 79t162 29.5t176 -27l-53 -258q-22 -117 -19 -218zM343 273l20 99q-17 3 -31 3q-55 0 -93.5 -59.5t-38.5 -119.5q0 -34 13.5 -52t35.5 -18q28 0 53.5 34
t40.5 113zM379 528l-83 22q8 21 37.5 50t29.5 50q0 28 -25 28q-24 0 -47 -35l-52 37q53 82 135 82q45 0 72 -25t27 -62q0 -34 -17 -59t-42.5 -48t-34.5 -40z" />
    <glyph glyph-name="uni1EA4" unicode="&#x1ea4;" horiz-adv-x="640" 
d="M398 158h-177l-67 -158h-183l320 674h223l72 -674h-180zM269 287h123l-8 124q-5 91 -8 136h-2q-4 -10 -23.5 -62.5t-30.5 -74.5zM376 836h121l65 -126h-110l-24 60h-2l-55 -60h-123zM623 920h133l-140 -117h-81z" />
    <glyph glyph-name="uni1EA5" unicode="&#x1ea5;" horiz-adv-x="568" 
d="M483 0h-156q1 14 2 42.5t2 42.5h-2q-55 -96 -155 -96q-67 0 -109.5 48t-42.5 127q0 64 21 122.5t62 108t112 79t162 29.5t176 -27l-53 -258q-22 -117 -19 -218zM343 273l20 99q-17 3 -31 3q-55 0 -93.5 -59.5t-38.5 -119.5q0 -34 13.5 -52t35.5 -18q28 0 53.5 34
t40.5 113zM319 706h123l63 -156h-106l-27 84h-2l-56 -84h-114zM575 806h130l-137 -156h-84z" />
    <glyph glyph-name="uni1EA6" unicode="&#x1ea6;" horiz-adv-x="640" 
d="M398 158h-177l-67 -158h-183l320 674h223l72 -674h-180zM269 287h123l-8 124q-5 91 -8 136h-2q-4 -10 -23.5 -62.5t-30.5 -74.5zM476 910h134l54 -117h-82zM376 836h121l65 -126h-111l-24 60h-2l-55 -60h-122z" />
    <glyph glyph-name="uni1EA7" unicode="&#x1ea7;" horiz-adv-x="568" 
d="M483 0h-156q1 14 2 42.5t2 42.5h-3q-54 -96 -155 -96q-67 0 -109.5 48t-41.5 127q0 64 21 122.5t62 108t112 79t162 29.5t176 -27l-53 -258q-22 -117 -19 -218zM343 273l20 99q-17 3 -31 3q-55 0 -93.5 -59.5t-38.5 -119.5q0 -34 13 -52t35 -18q28 0 54 34t41 113z
M412 808h118l73 -156h-77zM309 706h124l63 -156h-107l-27 84h-2l-56 -84h-113z" />
    <glyph glyph-name="uni1EA8" unicode="&#x1ea8;" horiz-adv-x="640" 
d="M398 158h-177l-67 -158h-183l320 674h223l72 -674h-180zM269 287h123l-8 124q-5 91 -8 136h-2q-4 -10 -23.5 -62.5t-30.5 -74.5zM623 756l-68 25q8 18 32 38t24 35q0 11 -8 18.5t-19 7.5q-20 0 -43 -25l-42 40q51 61 120 61q41 0 66 -22t25 -56q0 -27 -14.5 -46t-38 -39
t-34.5 -37zM376 836h121l65 -126h-111l-24 60h-2l-54 -60h-123z" />
    <glyph glyph-name="uni1EA9" unicode="&#x1ea9;" horiz-adv-x="568" 
d="M483 0h-156q1 14 2 42.5t2 42.5h-2q-55 -96 -155 -96q-67 0 -109.5 48t-42.5 127q0 64 21 122.5t62 108t112 79t162 29.5t176 -27l-53 -258q-22 -117 -19 -218zM343 273l20 99q-17 3 -31 3q-55 0 -93.5 -59.5t-38.5 -119.5q0 -34 13.5 -52t35.5 -18q28 0 54 34t40 113z
M309 706h124l63 -156h-107l-27 84h-2l-56 -84h-113zM554 631l-68 25q8 18 32 38t24 35q0 11 -8 18.5t-19 7.5q-20 0 -43 -25l-42 40q51 61 120 61q41 0 66 -22t25 -56q0 -27 -14.5 -46t-38 -39t-34.5 -37z" />
    <glyph glyph-name="uni1EAA" unicode="&#x1eaa;" horiz-adv-x="640" 
d="M398 158h-177l-67 -158h-183l320 674h223l72 -674h-180zM269 287h123l-8 124q-5 91 -8 136h-2q-4 -10 -23.5 -62.5t-30.5 -74.5zM371 854h-80q5 56 32 87t69 31q29 0 63 -18q28 -17 41 -17t19.5 8t10.5 31h79q-10 -121 -102 -121q-26 0 -68 23q-26 13 -35 13
q-21 0 -29 -37zM375 836h121l65 -126h-110l-24 60h-2l-55 -60h-123z" />
    <glyph glyph-name="uni1EAB" unicode="&#x1eab;" horiz-adv-x="568" 
d="M483 0h-156q1 14 2 42.5t2 42.5h-2q-55 -96 -155 -96q-67 0 -109.5 48t-42.5 127q0 64 21 122.5t62 108t112 79t162 29.5t176 -27l-53 -258q-22 -117 -19 -218zM343 273l20 99q-17 3 -31 3q-55 0 -93.5 -59.5t-38.5 -119.5q0 -34 13.5 -52t35.5 -18q28 0 53.5 34
t40.5 113zM303 716h-79q5 56 32 87t68 31q31 0 63 -19q30 -17 42 -17q13 0 19 8t11 31h79q-9 -120 -102 -120q-9 0 -16.5 1t-15.5 4l-12 4.5t-13 6.5t-11 6q-23 13 -36 13q-21 0 -29 -36zM310 687h115l73 -137h-104l-31 66h-2l-45 -66h-115z" />
    <glyph glyph-name="uni1EAC" unicode="&#x1eac;" horiz-adv-x="640" 
d="M398 158h-177l-67 -158h-183l320 674h223l72 -674h-180zM269 287h123l-8 124q-5 91 -8 136h-2q-4 -10 -23.5 -62.5t-30.5 -74.5zM363 840h129l80 -130h-116l-36 57h-2l-53 -57h-127zM254 -233q-33 0 -55.5 22.5t-22.5 53.5q0 33 23 55t56 22q32 0 53.5 -22t21.5 -55
q0 -31 -22 -53.5t-54 -22.5z" />
    <glyph glyph-name="uni1EAD" unicode="&#x1ead;" horiz-adv-x="568" 
d="M483 0h-156q1 14 2 42.5t2 42.5h-2q-55 -96 -155 -96q-67 0 -109.5 48t-42.5 127q0 64 21 122.5t62 108t112 79t162 29.5t176 -27l-53 -258q-22 -117 -19 -218zM343 273l20 99q-17 3 -31 3q-55 0 -93.5 -59.5t-38.5 -119.5q0 -34 13.5 -52t35.5 -18q28 0 53.5 34
t40.5 113zM314 706h115l78 -156h-107l-38 73h-2l-54 -73h-116zM232 -238q-34 0 -57 23t-23 56q0 34 23 56.5t58 22.5q32 0 54 -22.5t22 -56.5q0 -33 -22 -56t-55 -23z" />
    <glyph glyph-name="uni1EAE" unicode="&#x1eae;" horiz-adv-x="640" 
d="M398 158h-177l-67 -158h-183l320 674h223l72 -674h-180zM269 287h123l-8 124q-5 91 -8 136h-2q-4 -10 -23.5 -62.5t-30.5 -74.5zM444 936h143l-140 -117h-74zM276 828h86q0 -20 14.5 -33.5t40.5 -13.5q58 0 67 47h86q-21 -129 -163 -129q-73 0 -105 35.5t-26 93.5z" />
    <glyph glyph-name="uni1EAF" unicode="&#x1eaf;" horiz-adv-x="568" 
d="M483 0h-156q1 14 2 42.5t2 42.5h-2q-55 -96 -155 -96q-67 0 -109.5 48t-42.5 127q0 64 21 122.5t62 108t112 79t162 29.5t176 -27l-53 -258q-22 -117 -19 -218zM343 273l21 99q-16 3 -32 3q-55 0 -93.5 -59.5t-38.5 -119.5q0 -34 13.5 -52t35.5 -18q28 0 54 34t40 113z
M401 827h132l-130 -156h-91zM218 666h81q2 -24 16.5 -38t41.5 -14q29 0 47.5 15t23.5 37h84q-9 -62 -52 -98.5t-111 -36.5q-69 0 -102.5 37.5t-28.5 97.5z" />
    <glyph glyph-name="uni1EB0" unicode="&#x1eb0;" horiz-adv-x="640" 
d="M398 158h-177l-67 -158h-183l320 674h223l72 -674h-180zM269 287h123l-8 124q-5 91 -8 136h-2q-4 -10 -23.5 -62.5t-30.5 -74.5zM277 936h142l54 -117h-74zM281 828h85q0 -20 14.5 -33.5t40.5 -13.5q56 0 67 47h86q-21 -129 -163 -129q-73 0 -104.5 35.5t-25.5 93.5z" />
    <glyph glyph-name="uni1EB1" unicode="&#x1eb1;" horiz-adv-x="568" 
d="M483 0h-156q1 14 2 42.5t2 42.5h-3q-54 -96 -154 -96q-67 0 -109.5 48t-42.5 127q0 64 21 122.5t62 108t112 79t162 29.5t176 -27l-53 -258q-22 -117 -19 -218zM343 273l20 99q-17 3 -32 3q-55 0 -93 -59.5t-38 -119.5q0 -34 13 -52t35 -18q28 0 54 34t41 113zM206 826
h129l76 -156h-87zM218 665h80q5 -52 59 -52q28 0 46.5 15t23.5 37h84q-9 -62 -52 -98.5t-111 -36.5q-69 0 -102 37.5t-28 97.5z" />
    <glyph glyph-name="uni1EB2" unicode="&#x1eb2;" horiz-adv-x="640" 
d="M398 158h-177l-68 -158h-182l320 674h223l72 -674h-180zM269 287h123l-8 124q-5 91 -8 136h-2q-4 -10 -23.5 -62.5t-30.5 -74.5zM443 801l-68 26q8 18 32 38t24 35q0 11 -8 18t-19 7q-22 0 -44 -24l-41 40q49 61 120 61q41 0 66 -22t25 -56q0 -21 -10 -38.5t-22.5 -28
t-29 -26t-25.5 -30.5zM279 827l85 1q0 -20 14.5 -33.5t40.5 -13.5q58 0 67 47h86q-10 -58 -49.5 -93t-113.5 -35q-73 0 -104.5 35t-25.5 92z" />
    <glyph glyph-name="uni1EB3" unicode="&#x1eb3;" horiz-adv-x="568" 
d="M483 0h-156q1 14 2 42.5t2 42.5h-2q-55 -96 -155 -96q-67 0 -109.5 48t-42.5 127q0 64 21 122.5t62 108t112 79t162 29.5t176 -27l-53 -258q-22 -117 -19 -218zM343 273l21 99q-16 3 -32 3q-55 0 -93.5 -59.5t-38.5 -119.5q0 -34 13.5 -52t35.5 -18q28 0 54 34t40 113z
M218 670h81q2 -24 16.5 -38t41.5 -14q29 0 47.5 15t22.5 37h85q-10 -61 -52.5 -97.5t-110.5 -36.5q-69 0 -102.5 37.5t-28.5 96.5zM383 656l-68 25q8 18 32 38t24 35q0 11 -8 18.5t-19 7.5q-21 0 -44 -25l-42 40q51 61 121 61q41 0 65.5 -22t24.5 -56q0 -27 -14.5 -46
t-37.5 -39t-34 -37z" />
    <glyph glyph-name="uni1EB4" unicode="&#x1eb4;" horiz-adv-x="640" 
d="M398 158h-177l-67 -158h-183l320 674h223l72 -674h-180zM269 287h123l-8 124q-5 91 -8 136h-2q-4 -10 -23.5 -62.5t-30.5 -74.5zM280 828h91q0 -20 12 -33.5t37 -13.5q50 0 61 47h92q-21 -129 -163 -129q-73 0 -104.5 35.5t-25.5 93.5zM363 856h-82q10 61 37.5 93
t66.5 32q34 0 64 -19q27 -20 39 -20q13 0 19.5 9t14.5 35h80q-21 -134 -109 -134q-36 0 -64 18q-29 18 -39 18q-18 0 -27 -32z" />
    <glyph glyph-name="uni1EB5" unicode="&#x1eb5;" horiz-adv-x="568" 
d="M483 0h-157q4 55 5 85h-2q-57 -96 -155 -96q-67 0 -109.5 48t-42.5 127q0 64 21 122.5t62 108t112 79t162 29.5t176 -27l-53 -258q-22 -117 -19 -218zM343 273l20 99q-17 3 -32 3q-55 0 -93 -59.5t-38 -119.5q0 -34 13 -52t35 -18q28 0 54 34t41 113zM230 669h83
q3 -25 12 -38.5t32 -13.5q48 0 58 52h85q-22 -135 -152 -135q-68 0 -96.5 36t-21.5 99zM306 705h-81q10 61 37.5 93t66.5 32q32 0 64 -19q27 -20 39 -20q13 0 19.5 9t14.5 35h80q-21 -134 -109 -134q-36 0 -64 18q-29 18 -39 18q-19 0 -28 -32z" />
    <glyph glyph-name="uni1EB6" unicode="&#x1eb6;" horiz-adv-x="640" 
d="M398 158h-177l-67 -158h-183l320 674h223l72 -674h-180zM269 287h123l-8 124q-5 91 -8 136h-2q-4 -10 -23.5 -62.5t-30.5 -74.5zM280 850h92q0 -48 50 -48q52 0 61 48h94q-21 -130 -165 -130q-74 0 -106 35.5t-26 94.5zM251 -233q-33 0 -55.5 22.5t-22.5 53.5q0 33 23 55
t56 22q32 0 53.5 -22t21.5 -55q0 -31 -22 -53.5t-54 -22.5z" />
    <glyph glyph-name="uni1EB7" unicode="&#x1eb7;" horiz-adv-x="568" 
d="M483 0h-156q1 14 2 42.5t2 42.5h-2q-55 -96 -155 -96q-67 0 -109.5 48t-42.5 127q0 64 21 122.5t62 108t112 79t162 29.5t176 -27l-53 -258q-22 -117 -19 -218zM343 273l20 99q-17 3 -31 3q-56 0 -94 -59t-38 -120q0 -70 49 -70q28 0 53.5 34t40.5 113zM239 694h83
q3 -25 12 -38.5t32 -13.5q46 0 58 52h85q-22 -135 -152 -135q-68 0 -96.5 36.5t-21.5 98.5zM222 -238q-34 0 -57 23t-23 56q0 34 23 56.5t58 22.5q32 0 54 -22.5t22 -56.5q0 -33 -22 -56t-55 -23z" />
    <glyph glyph-name="uni1EB8" unicode="&#x1eb8;" horiz-adv-x="538" 
d="M501 416l-28 -144h-237l-25 -127h267l-28 -145h-437l128 674h423l-28 -145h-252l-22 -113h239zM219 -233q-33 0 -55.5 22.5t-22.5 53.5q0 33 23 55t56 22q32 0 53.5 -22t21.5 -55q0 -31 -22 -53.5t-54 -22.5z" />
    <glyph glyph-name="uni1EB9" unicode="&#x1eb9;" horiz-adv-x="523" 
d="M432 151l10 -122q-80 -39 -193 -39q-108 0 -165.5 54.5t-57.5 157.5q0 120 80.5 210.5t212.5 90.5q80 0 131.5 -41.5t51.5 -114.5q0 -177 -315 -168q3 -19 18 -32q29 -26 87 -26q77 0 140 30zM343 348q0 13 -12 22.5t-32 9.5q-42 0 -66.5 -24.5t-29.5 -53.5q76 -1 108 10
t32 36zM217 -238q-34 0 -57 23t-23 56q0 34 23 56.5t58 22.5q32 0 54 -22.5t22 -56.5q0 -33 -22 -56t-55 -23z" />
    <glyph glyph-name="uni1EBA" unicode="&#x1eba;" horiz-adv-x="538" 
d="M501 416l-28 -144h-237l-25 -127h267l-28 -145h-437l128 674h423l-28 -145h-252l-22 -113h239zM390 701l-75 27q8 15 33.5 39.5t25.5 42.5q0 26 -27 26q-19 0 -44 -27l-47 36q55 76 131 76q44 0 71.5 -24.5t27.5 -60.5q0 -22 -10.5 -41t-24.5 -31t-32.5 -29.5
t-28.5 -33.5z" />
    <glyph glyph-name="uni1EBB" unicode="&#x1ebb;" horiz-adv-x="523" 
d="M432 151l10 -122q-80 -39 -193 -39q-108 0 -165.5 54.5t-57.5 157.5q0 120 80.5 210.5t212.5 90.5q80 0 131.5 -41.5t51.5 -114.5q0 -177 -315 -168q3 -19 18 -32q29 -26 87 -26q77 0 140 30zM343 348q0 13 -12 22.5t-32 9.5q-42 0 -66.5 -24.5t-29.5 -53.5q76 -1 108 10
t32 36zM357 528l-84 22q8 21 38 50t30 50q0 13 -7 20.5t-18 7.5q-23 0 -48 -35l-52 37q53 82 135 82q45 0 71.5 -25t26.5 -62q0 -33 -17 -58.5t-41.5 -48.5t-33.5 -40z" />
    <glyph glyph-name="uni1EBC" unicode="&#x1ebc;" horiz-adv-x="538" 
d="M501 416l-28 -144h-237l-25 -127h267l-28 -145h-437l128 674h423l-28 -145h-252l-22 -113h239zM296 715h-81q11 69 39 103t67 34q32 0 64 -20q27 -20 40 -20q12 0 19.5 9.5t14.5 35.5h80q-20 -135 -109 -135q-33 0 -65 19q-29 18 -39 18q-21 0 -30 -44z" />
    <glyph glyph-name="uni1EBD" unicode="&#x1ebd;" horiz-adv-x="523" 
d="M432 151l10 -122q-80 -39 -193 -39q-108 0 -165.5 54.5t-57.5 157.5q0 120 80.5 210.5t212.5 90.5q80 0 131.5 -41.5t51.5 -114.5q0 -177 -315 -168q3 -19 18 -32q29 -26 87 -26q77 0 140 30zM343 348q0 13 -12 22.5t-32 9.5q-42 0 -66.5 -24.5t-29.5 -53.5q76 -1 108 10
t32 36zM259 554h-80q10 67 37 102.5t67 35.5q33 0 63 -20t39 -20q12 0 18.5 9.5t14.5 35.5h78q-19 -135 -106 -135q-40 0 -67 20q-22 17 -36 17q-19 0 -28 -45z" />
    <glyph glyph-name="uni1EBE" unicode="&#x1ebe;" horiz-adv-x="538" 
d="M501 416l-28 -144h-237l-25 -127h267l-28 -145h-437l128 674h423l-28 -145h-251l-22 -113h238zM329 836h121l65 -126h-110l-24 60h-2l-55 -60h-123zM576 920h134l-140 -117h-82z" />
    <glyph glyph-name="uni1EBF" unicode="&#x1ebf;" horiz-adv-x="523" 
d="M432 151l10 -122q-80 -39 -193 -39q-108 0 -165.5 54.5t-57.5 157.5q0 120 80.5 210.5t212.5 90.5q80 0 131.5 -41.5t51.5 -114.5q0 -177 -315 -168q3 -19 18 -32q29 -26 87 -26q77 0 140 30zM343 348q0 13 -12 22.5t-32 9.5q-42 0 -66.5 -24.5t-29.5 -53.5q76 -1 108 10
t32 36zM279 706h123l63 -156h-106l-27 84h-2l-56 -84h-114zM535 806h130l-137 -156h-84z" />
    <glyph glyph-name="uni1EC0" unicode="&#x1ec0;" horiz-adv-x="538" 
d="M501 416l-28 -144h-237l-25 -127h267l-28 -145h-437l128 674h423l-28 -145h-251l-22 -113h238zM426 910h134l55 -117h-83zM326 836h121l65 -126h-110l-24 60h-2l-55 -60h-123z" />
    <glyph glyph-name="uni1EC1" unicode="&#x1ec1;" horiz-adv-x="523" 
d="M433 151l9 -122q-80 -39 -193 -39q-108 0 -165.5 54.5t-57.5 157.5q0 120 80.5 210.5t212.5 90.5q80 0 131.5 -41.5t51.5 -114.5q0 -177 -315 -168q3 -19 18 -32q29 -26 87 -26q76 0 141 30zM343 348q0 13 -12 22.5t-32 9.5q-42 0 -66.5 -24.5t-29.5 -53.5q76 -1 108 10
t32 36zM381 808h118l73 -156h-77zM279 706h124l62 -156h-106l-27 84h-2l-56 -84h-114z" />
    <glyph glyph-name="uni1EC2" unicode="&#x1ec2;" horiz-adv-x="538" 
d="M501 416l-28 -144h-237l-24 -127h266l-28 -145h-436l127 674h423l-29 -145h-250l-22 -113h238zM580 756l-68 25q8 18 32.5 38t24.5 35q0 11 -8 18.5t-20 7.5q-20 0 -43 -25l-42 40q51 61 120 61q41 0 66 -22t25 -56q0 -27 -14.5 -46t-38 -39t-34.5 -37zM333 836h121
l65 -126h-111l-23 60h-2l-55 -60h-124z" />
    <glyph glyph-name="uni1EC3" unicode="&#x1ec3;" horiz-adv-x="523" 
d="M433 151l9 -122q-80 -39 -193 -39q-108 0 -165.5 54.5t-57.5 157.5q0 120 80.5 210.5t212.5 90.5q80 0 131.5 -41.5t51.5 -114.5q0 -177 -315 -168q3 -19 18 -32q29 -26 88 -26q77 0 140 30zM343 348q0 13 -12 22.5t-32 9.5q-42 0 -66.5 -24.5t-29.5 -53.5q76 -1 108 10
t32 36zM279 706h124l62 -156h-106l-27 84h-2l-56 -84h-114zM523 631l-68 25q8 18 32.5 38t24.5 35q0 11 -8 18.5t-20 7.5q-20 0 -43 -25l-42 40q51 61 120 61q41 0 66 -22t25 -56q0 -27 -14.5 -46t-38 -39t-34.5 -37z" />
    <glyph glyph-name="uni1EC4" unicode="&#x1ec4;" horiz-adv-x="538" 
d="M500 416l-27 -144h-237l-25 -127h266l-27 -145h-437l128 674h422l-28 -145h-251l-22 -113h238zM323 854h-80q5 56 32 87t69 31q29 0 63 -18q30 -17 42 -17t18.5 8t11.5 31h79q-10 -121 -102 -121q-26 0 -68 23q-26 13 -36 13q-21 0 -29 -37zM328 836h121l65 -126h-111
l-24 60h-2l-55 -60h-123z" />
    <glyph glyph-name="uni1EC5" unicode="&#x1ec5;" horiz-adv-x="523" 
d="M433 151l9 -122q-80 -39 -193 -39q-108 0 -165.5 54.5t-57.5 157.5q0 120 80.5 210.5t212.5 90.5q80 0 131.5 -41.5t51.5 -114.5q0 -177 -315 -168q3 -19 18 -32q29 -26 88 -26q75 0 140 30zM343 348q0 13 -12 22.5t-32 9.5q-42 0 -66.5 -24.5t-29.5 -53.5q76 -1 108 10
t32 36zM273 716h-80q5 56 32 87t69 31q31 0 63 -19q30 -17 42 -17t18.5 8t10.5 31h79q-9 -120 -102 -120q-9 0 -16.5 1t-15 4t-12 5t-12.5 6l-12 6q-23 13 -35 13q-21 0 -29 -36zM279 687h115l74 -137h-104l-31 66h-2l-45 -66h-115z" />
    <glyph glyph-name="uni1EC6" unicode="&#x1ec6;" horiz-adv-x="538" 
d="M501 416l-28 -144h-237l-25 -127h267l-28 -145h-437l128 674h423l-28 -145h-252l-22 -113h239zM313 840h129l80 -130h-116l-36 57h-2l-53 -57h-127zM217 -233q-33 0 -55.5 22.5t-22.5 53.5q0 33 23 55t56 22q32 0 53.5 -22t21.5 -55q0 -31 -22 -53.5t-54 -22.5z" />
    <glyph glyph-name="uni1EC7" unicode="&#x1ec7;" horiz-adv-x="523" 
d="M432 151l10 -122q-80 -39 -193 -39q-108 0 -165.5 54.5t-57.5 157.5q0 120 80.5 210.5t212.5 90.5q80 0 131.5 -41.5t51.5 -114.5q0 -177 -315 -168q3 -19 18 -32q29 -26 87 -26q77 0 140 30zM343 348q0 13 -12 22.5t-32 9.5q-42 0 -66.5 -24.5t-29.5 -53.5q76 -1 108 10
t32 36zM284 706h115l78 -156h-107l-38 73h-2l-54 -73h-116zM217 -238q-34 0 -57 23t-23 56q0 34 23 56.5t58 22.5q32 0 54 -22.5t22 -56.5q0 -33 -22 -56t-55 -23z" />
    <glyph glyph-name="uni1EC8" unicode="&#x1ec8;" horiz-adv-x="292" 
d="M138 674h170l-128 -674h-170zM263 701l-75 27q8 15 33.5 39.5t25.5 42.5q0 26 -27 26q-19 0 -44 -27l-46 36q54 76 130 76q44 0 71.5 -24.5t27.5 -60.5q0 -22 -10.5 -41t-24.5 -31t-32.5 -29.5t-28.5 -33.5z" />
    <glyph glyph-name="uni1EC9" unicode="&#x1ec9;" horiz-adv-x="281" 
d="M177 0h-171l93 492h171zM233 528l-83 22q8 21 37.5 50t29.5 50q0 28 -25 28q-24 0 -47 -35l-53 37q55 82 136 82q45 0 71.5 -25t26.5 -62q0 -34 -17 -59t-42 -48t-34 -40z" />
    <glyph glyph-name="uni1ECA" unicode="&#x1eca;" horiz-adv-x="292" 
d="M138 674h170l-128 -674h-170zM73 -233q-33 0 -55.5 22.5t-22.5 53.5q0 33 23 55t56 22q32 0 53.5 -22t21.5 -55q0 -31 -22 -53.5t-54 -22.5z" />
    <glyph glyph-name="uni1ECB" unicode="&#x1ecb;" horiz-adv-x="281" 
d="M176 0h-170l93 492h170zM201 542q-34 0 -56.5 21.5t-22.5 57.5q0 40 28 66t67 26q36 0 59 -21.5t23 -57.5q0 -43 -28.5 -67.5t-69.5 -24.5zM83 -238q-34 0 -57 23t-23 56q0 34 23 56.5t58 22.5q32 0 54 -22.5t22 -56.5q0 -33 -22 -56t-55 -23z" />
    <glyph glyph-name="uni1ECC" unicode="&#x1ecc;" horiz-adv-x="721" 
d="M425 685q131 0 205.5 -77.5t74.5 -205.5q0 -94 -31 -177t-88 -138q-103 -98 -258 -98q-129 0 -205 79.5t-76 204.5q0 93 32.5 176t90.5 138q103 98 255 98zM405 543q-57 0 -100 -43q-35 -35 -55.5 -99t-20.5 -124q0 -68 31.5 -107t93.5 -39q53 0 94 41q35 35 55 101
t20 124q0 66 -28 106t-90 40zM276 -233q-33 0 -55.5 22.5t-22.5 53.5q0 33 23 55t56 22q32 0 53.5 -22t21.5 -55q0 -31 -22 -53.5t-54 -22.5z" />
    <glyph glyph-name="uni1ECD" unicode="&#x1ecd;" horiz-adv-x="575" 
d="M330 503q98 0 157 -57t59 -145q0 -141 -85.5 -226.5t-217.5 -85.5q-96 0 -156 55t-60 149q0 132 84.5 221t218.5 89zM308 374q-34 0 -59 -33t-35 -72t-10 -73q0 -37 16.5 -57.5t46.5 -20.5q33 0 57 31.5t34.5 71.5t10.5 78q0 33 -15 54t-46 21zM223 -238q-34 0 -57 23
t-23 56q0 34 23 56.5t58 22.5q32 0 54 -22.5t22 -56.5q0 -33 -22 -56t-55 -23z" />
    <glyph glyph-name="uni1ECE" unicode="&#x1ece;" horiz-adv-x="721" 
d="M425 685q131 0 205.5 -77.5t74.5 -205.5q0 -94 -31 -177t-88 -138q-103 -98 -258 -98q-129 0 -205 79.5t-76 204.5q0 93 32.5 176t90.5 138q103 98 255 98zM405 543q-57 0 -100 -43q-35 -35 -55.5 -99t-20.5 -124q0 -68 31.5 -107t93.5 -39q53 0 94 41q35 35 55 101
t20 124q0 66 -28 106t-90 40zM473 701l-75 27q8 14 33 39t25 44q0 11 -7 18.5t-19 7.5q-18 0 -44 -28l-47 36q52 76 130 76q45 0 72.5 -24t27.5 -61q0 -22 -10.5 -41t-24.5 -31t-32.5 -29.5t-28.5 -33.5z" />
    <glyph glyph-name="uni1ECF" unicode="&#x1ecf;" horiz-adv-x="575" 
d="M330 503q98 0 157 -57t59 -145q0 -141 -85.5 -226.5t-217.5 -85.5q-96 0 -156 55t-60 149q0 132 84.5 221t218.5 89zM308 374q-34 0 -59 -33t-35 -72t-10 -73q0 -37 16.5 -57.5t46.5 -20.5q33 0 57 31.5t34.5 71.5t10.5 78q0 33 -15 54t-46 21zM383 528l-83 22
q8 21 37.5 50t29.5 50q0 28 -25 28q-23 0 -48 -35l-52 37q53 82 136 82q45 0 71.5 -25t26.5 -62q0 -34 -17 -59t-42 -48t-34 -40z" />
    <glyph glyph-name="uni1ED0" unicode="&#x1ed0;" horiz-adv-x="721" 
d="M424 685q131 0 205.5 -77.5t75.5 -205.5q0 -94 -31.5 -177t-88.5 -138q-101 -98 -257 -98q-129 0 -205 79.5t-76 204.5q0 93 32.5 176t90.5 138q103 98 254 98zM404 543q-56 0 -99 -43q-35 -35 -55.5 -99t-20.5 -124q0 -68 31.5 -107t93.5 -39q53 0 94 41q35 35 55 101
t20 124q0 146 -119 146zM399 836h121l65 -126h-111l-24 60h-2l-55 -60h-123zM646 921h133l-140 -118h-82z" />
    <glyph glyph-name="uni1ED1" unicode="&#x1ed1;" horiz-adv-x="575" 
d="M330 503q98 0 157 -57t59 -145q0 -141 -85.5 -226.5t-217.5 -85.5q-96 0 -156 55t-60 149q0 132 84.5 221t218.5 89zM308 374q-34 0 -59 -33t-35 -72t-10 -73q0 -37 16.5 -57.5t46.5 -20.5q33 0 57 31.5t34.5 71.5t10.5 78q0 33 -15 54t-46 21zM305 706h123l63 -156h-106
l-27 84h-2l-56 -84h-114zM561 806h130l-137 -156h-84z" />
    <glyph glyph-name="uni1ED2" unicode="&#x1ed2;" horiz-adv-x="721" 
d="M424 685q131 0 205.5 -77.5t75.5 -205.5q0 -94 -31 -177t-88 -138q-103 -98 -258 -98q-129 0 -205 79.5t-76 204.5q0 93 32.5 176t90.5 138q103 98 254 98zM405 543q-57 0 -100 -43q-35 -35 -55.5 -99t-20.5 -124q0 -68 31.5 -107t93.5 -39q53 0 94 41q35 35 55 101
t20 124q0 66 -28 106t-90 40zM497 910h134l54 -117h-82zM397 836h121l65 -126h-111l-24 60h-2l-55 -60h-123z" />
    <glyph glyph-name="uni1ED3" unicode="&#x1ed3;" horiz-adv-x="575" 
d="M330 503q98 0 157 -57t59 -145q0 -141 -85.5 -226.5t-217.5 -85.5q-96 0 -156 55t-60 149q0 132 84.5 221t218.5 89zM308 374q-34 0 -59 -33t-35 -72t-10 -73q0 -37 16.5 -57.5t46.5 -20.5q33 0 57 31.5t34.5 71.5t10.5 78q0 33 -15 54t-46 21zM408 808h118l73 -156h-77z
M305 706h124l63 -156h-106l-28 84h-2l-55 -84h-115z" />
    <glyph glyph-name="uni1ED4" unicode="&#x1ed4;" horiz-adv-x="721" 
d="M425 685q131 0 205.5 -77.5t74.5 -205.5q0 -94 -31 -177t-88 -138q-103 -98 -258 -98q-129 0 -205 79.5t-76 204.5q0 93 32.5 176t90.5 138q103 98 255 98zM405 543q-57 0 -100 -43q-35 -35 -55.5 -99t-20.5 -124q0 -68 31.5 -107t93.5 -39q53 0 94 41q35 35 55 101
t20 124q0 66 -28 106t-90 40zM647 756l-68 25q8 18 32 38t24 35q0 11 -8 18t-19 7q-21 0 -43 -24l-42 40q51 61 120 61q41 0 66 -22t25 -56q0 -27 -14.5 -46t-38 -39t-34.5 -37zM399 836h122l65 -126h-111l-24 60h-2l-55 -60h-123z" />
    <glyph glyph-name="uni1ED5" unicode="&#x1ed5;" horiz-adv-x="575" 
d="M330 503q98 0 157 -57t59 -145q0 -141 -85.5 -226.5t-217.5 -85.5q-96 0 -156 55t-60 149q0 132 84.5 221t218.5 89zM308 374q-34 0 -59 -33t-35 -72t-10 -73q0 -37 16.5 -57.5t46.5 -20.5q33 0 57 31.5t34.5 71.5t10.5 78q0 33 -15 54t-46 21zM305 706h124l63 -156h-106
l-28 84h-2l-55 -84h-115zM550 631l-68 25q8 18 32.5 38t24.5 35q0 11 -8 18.5t-20 7.5q-20 0 -43 -25l-42 40q51 61 120 61q41 0 66 -22t25 -56q0 -27 -14.5 -46t-38 -39t-34.5 -37z" />
    <glyph glyph-name="uni1ED6" unicode="&#x1ed6;" horiz-adv-x="721" 
d="M425 685q131 0 205.5 -77.5t74.5 -205.5q0 -94 -31 -177t-88 -138q-103 -98 -258 -98q-129 0 -205 79.5t-76 204.5q0 93 32.5 176t90.5 138q103 98 255 98zM405 543q-57 0 -100 -43q-35 -35 -55.5 -99t-20.5 -124q0 -68 31.5 -107t93.5 -39q53 0 94 41q35 35 55 101
t20 124q0 66 -28 106t-90 40zM394 854h-80q5 56 32 87t69 31q31 0 63 -18t42 -18q13 0 19.5 8t10.5 32h79q-9 -121 -102 -121q-9 0 -16.5 1t-15.5 4l-12 4.5t-13 6.5t-11 6q-23 13 -36 13q-21 0 -29 -36zM399 836h121l65 -126h-111l-23 60h-2l-56 -60h-123z" />
    <glyph glyph-name="uni1ED7" unicode="&#x1ed7;" horiz-adv-x="575" 
d="M330 503q98 0 157 -57t59 -145q0 -141 -85.5 -226.5t-217.5 -85.5q-96 0 -156 55t-60 149q0 132 84.5 221t218.5 89zM308 374q-34 0 -59 -33t-35 -72t-10 -73q0 -37 16.5 -57.5t46.5 -20.5q33 0 57 31.5t34.5 71.5t10.5 78q0 33 -15 54t-46 21zM300 716h-81q5 56 32.5 87
t69.5 31q32 0 62 -19q30 -17 42 -17q13 0 19 8t11 31h79q-9 -120 -102 -120q-9 0 -16.5 1t-15.5 4l-12 4.5t-13 6.5t-11 6q-23 13 -36 13q-22 0 -28 -36zM306 687h115l74 -137h-105l-31 66h-2l-45 -66h-115z" />
    <glyph glyph-name="uni1ED8" unicode="&#x1ed8;" horiz-adv-x="721" 
d="M425 685q131 0 205.5 -77.5t74.5 -205.5q0 -94 -31 -177t-88 -138q-103 -98 -258 -98q-129 0 -205 79.5t-76 204.5q0 93 32.5 176t90.5 138q103 98 255 98zM405 543q-57 0 -100 -43q-35 -35 -55.5 -99t-20.5 -124q0 -68 31.5 -107t93.5 -39q53 0 94 41q35 35 55 101
t20 124q0 66 -28 106t-90 40zM391 840h129l80 -130h-116l-36 57h-2l-53 -57h-127zM273 -233q-33 0 -55.5 22.5t-22.5 53.5q0 33 23 55t56 22q32 0 53.5 -22t21.5 -55q0 -31 -22 -53.5t-54 -22.5z" />
    <glyph glyph-name="uni1ED9" unicode="&#x1ed9;" horiz-adv-x="575" 
d="M330 503q98 0 157 -57t59 -145q0 -141 -85.5 -226.5t-217.5 -85.5q-96 0 -156 55t-60 149q0 132 84.5 221t218.5 89zM308 374q-34 0 -59 -33t-35 -72t-10 -73q0 -37 16.5 -57.5t46.5 -20.5q33 0 57 31.5t34.5 71.5t10.5 78q0 33 -15 54t-46 21zM310 706h115l78 -156h-107
l-38 73h-2l-54 -73h-116zM223 -238q-34 0 -57 23t-23 56q0 34 23 56.5t58 22.5q32 0 54 -22.5t22 -56.5q0 -33 -22 -56t-55 -23z" />
    <glyph glyph-name="uni1EDA" unicode="&#x1eda;" horiz-adv-x="721" 
d="M654 745l127 21q18 -38 18 -90q0 -59 -32.5 -97t-89.5 -43q27 -54 27 -134q0 -94 -31 -177t-88 -138q-101 -98 -256 -98q-130 0 -206 79.5t-76 204.5q0 93 32.5 176t90.5 138q103 98 255 98q70 0 128 -24q5 -3 18.5 -10t21.5 -10.5t19 -7t20 -3.5q38 0 38 49q0 34 -16 66
zM405 544q-55 0 -99 -44q-35 -35 -56 -99t-21 -124q0 -68 32 -107t93 -39q53 0 94 41q34 35 54.5 101t20.5 124q0 66 -28 106.5t-90 40.5zM420 848h182l-130 -130h-143z" />
    <glyph glyph-name="uni1EDB" unicode="&#x1edb;" horiz-adv-x="575" 
d="M307 375q-34 0 -58.5 -33t-34.5 -72t-10 -74q0 -37 16.5 -57.5t46.5 -20.5q33 0 57 31.5t34.5 71.5t10.5 79q0 75 -62 75zM514 571l123 20q13 -37 13 -77q0 -60 -31 -96t-86 -44q12 -33 12 -73q0 -141 -85 -226.5t-217 -85.5q-96 0 -155.5 54.5t-59.5 149.5
q0 133 84 221.5t218 88.5q48 0 90 -15q8 -3 22.5 -10.5t25.5 -11.5t20 -4q40 0 40 47q0 27 -14 62zM328 706h161l-129 -156h-124z" />
    <glyph glyph-name="uni1EDC" unicode="&#x1edc;" horiz-adv-x="721" 
d="M654 745l127 20q18 -38 18 -89q0 -59 -32.5 -97t-89.5 -43q27 -54 27 -134q0 -94 -31 -177t-88 -138q-101 -98 -256 -98q-130 0 -206 79.5t-76 204.5q0 93 32.5 176t90.5 138q103 98 255 98q71 0 128 -25q6 -3 19 -9t21 -10t19 -7.5t20 -3.5q38 0 38 49q0 34 -16 66z
M405 543q-56 0 -99 -43q-35 -35 -56 -99t-21 -124q0 -68 32 -107t93 -39q53 0 94 41q34 35 54.5 101t20.5 124q0 66 -28 106t-90 40zM263 848h182l78 -128h-142z" />
    <glyph glyph-name="uni1EDD" unicode="&#x1edd;" horiz-adv-x="575" 
d="M307 375q-34 0 -58.5 -33t-34.5 -72t-10 -74q0 -37 16.5 -57.5t46.5 -20.5q33 0 57 31.5t34.5 71.5t10.5 79q0 75 -62 75zM514 571l123 20q13 -37 13 -77q0 -60 -31 -96t-86 -44q12 -33 12 -73q0 -141 -85 -226.5t-217 -85.5q-96 0 -155.5 54.5t-59.5 149.5
q0 133 84 221.5t218 88.5q48 0 90 -15q8 -3 22.5 -10.5t25.5 -11.5t20 -4q40 0 40 47q0 27 -14 62zM186 706h159l79 -156h-122z" />
    <glyph glyph-name="uni1EDE" unicode="&#x1ede;" horiz-adv-x="721" 
d="M654 744l127 21q18 -38 18 -89q0 -59 -32.5 -97t-89.5 -43q27 -54 27 -135q0 -93 -31 -176t-88 -138q-101 -98 -256 -98q-130 0 -206 79.5t-76 204.5q0 92 32.5 175t90.5 139q103 98 255 98q71 0 128 -25l24 -12t31 -14t24 -5q38 0 38 49q0 34 -16 66zM405 543
q-56 0 -99 -43q-35 -35 -56 -99t-21 -124q0 -68 32 -107t93 -39q53 0 94 41q34 35 54.5 101t20.5 124q0 65 -28 105.5t-90 40.5zM472 709l-74 26q8 15 33 40t25 43q0 11 -7 18.5t-19 7.5q-20 0 -44 -28l-47 37q53 75 130 75q45 0 72.5 -24t27.5 -60q0 -28 -16 -49.5
t-42.5 -44.5t-38.5 -41z" />
    <glyph glyph-name="uni1EDF" unicode="&#x1edf;" horiz-adv-x="575" 
d="M307 375q-34 0 -58.5 -33t-34.5 -72t-10 -74q0 -37 16.5 -57.5t46.5 -20.5q33 0 57 31.5t34.5 71.5t10.5 79q0 75 -62 75zM514 571l123 20q13 -37 13 -77q0 -60 -31 -96t-86 -44q12 -33 12 -73q0 -141 -85 -226.5t-217 -85.5q-96 0 -155.5 54.5t-59.5 149.5
q0 133 84 221.5t218 88.5q48 0 90 -15q8 -3 22.5 -10.5t25.5 -11.5t20 -4q40 0 40 47q0 27 -14 62zM358 528l-84 22q8 21 38 50t30 50q0 13 -7 20.5t-18 7.5q-23 0 -48 -35l-52 37q53 82 135 82q45 0 72 -25t27 -62q0 -34 -17 -59t-42 -48t-34 -40z" />
    <glyph glyph-name="uni1EE0" unicode="&#x1ee0;" horiz-adv-x="721" 
d="M654 744l127 21q18 -38 18 -90q0 -59 -32.5 -96.5t-89.5 -43.5q27 -54 27 -134q0 -93 -31 -176t-88 -138q-101 -98 -256 -98q-130 0 -206 79.5t-76 204.5q0 92 32.5 175t90.5 139q103 98 255 98q71 0 128 -25q5 -3 18.5 -10t21.5 -10.5t19 -7t20 -3.5q38 0 38 49
q0 34 -16 66zM405 543q-54 0 -99 -43q-35 -35 -56 -99t-21 -124q0 -68 32 -107t93 -39q53 0 94 41q34 35 54.5 101t20.5 124q0 65 -28 105.5t-90 40.5zM378 723h-81q11 69 39 102.5t67 33.5q30 0 64 -20q27 -20 39 -20t19.5 9.5t14.5 35.5h80q-20 -135 -109 -135
q-34 0 -64 19q-29 18 -39 18q-21 0 -30 -43z" />
    <glyph glyph-name="uni1EE1" unicode="&#x1ee1;" horiz-adv-x="575" 
d="M307 374q-34 0 -58.5 -33t-34.5 -72t-10 -73q0 -37 16.5 -57.5t46.5 -20.5q33 0 57 31.5t34.5 71.5t10.5 79q0 33 -15 54t-47 20zM513 571l123 21q13 -37 13 -78q0 -60 -31 -96t-85 -44q12 -33 12 -73q0 -141 -85.5 -226.5t-216.5 -85.5q-96 0 -155.5 54.5t-59.5 149.5
q0 133 84 221.5t218 88.5q47 0 89 -15q8 -3 22.5 -10.5t25.5 -11.5t20 -4q40 0 40 47q0 27 -14 62zM262 554h-80q20 138 105 138q32 0 62 -20t39 -20q12 0 18.5 9.5t14.5 35.5h78q-19 -135 -107 -135q-40 0 -65 20q-23 17 -37 17q-18 0 -28 -45z" />
    <glyph glyph-name="uni1EE2" unicode="&#x1ee2;" horiz-adv-x="721" 
d="M654 744l127 21q18 -38 18 -89q0 -59 -32.5 -97t-89.5 -43q27 -54 27 -135q0 -93 -31 -176t-88 -138q-101 -98 -256 -98q-130 0 -206 79.5t-76 204.5q0 92 32.5 175t90.5 139q103 98 255 98q71 0 128 -25l24 -12t31 -14t24 -5q38 0 38 49q0 34 -16 66zM405 543
q-56 0 -99 -43q-35 -35 -56 -99t-21 -124q0 -68 32 -107t93 -39q53 0 94 41q34 35 54.5 101t20.5 124q0 65 -28 105.5t-90 40.5zM275 -233q-33 0 -55.5 22.5t-22.5 53.5q0 33 23 55t56 22q32 0 53.5 -22t21.5 -55q0 -31 -22 -53.5t-54 -22.5z" />
    <glyph glyph-name="uni1EE3" unicode="&#x1ee3;" horiz-adv-x="575" 
d="M307 375q-34 0 -58.5 -33t-34.5 -72t-10 -74q0 -37 16.5 -57.5t46.5 -20.5q33 0 57 31.5t34.5 71.5t10.5 79q0 75 -62 75zM514 571l123 20q13 -37 13 -77q0 -60 -31 -96t-86 -44q12 -33 12 -73q0 -141 -85 -226.5t-217 -85.5q-96 0 -155.5 54.5t-59.5 149.5
q0 133 84 221.5t218 88.5q48 0 90 -15q8 -3 22.5 -10.5t25.5 -11.5t20 -4q40 0 40 47q0 27 -14 62zM223 -238q-34 0 -57 23t-23 56q0 34 23 56.5t58 22.5q32 0 54 -22.5t22 -56.5q0 -33 -22 -56t-55 -23z" />
    <glyph glyph-name="uni1EE4" unicode="&#x1ee4;" horiz-adv-x="670" 
d="M138 674h170l-73 -383q-7 -37 -7 -78q1 -34 23 -58t63 -24q53 0 84.5 37.5t47.5 121.5l73 384h171l-71 -375q-30 -160 -104.5 -235t-220.5 -75q-114 -1 -175 56t-61 165q0 41 10 96zM255 -233q-33 0 -55.5 22.5t-22.5 53.5q0 33 23 55t56 22q32 0 53.5 -22t21.5 -55
q0 -31 -22 -53.5t-54 -22.5z" />
    <glyph glyph-name="uni1EE5" unicode="&#x1ee5;" horiz-adv-x="575" 
d="M392 492h171l-61 -324q-11 -54 -28 -168h-150l7 75h-2q-71 -86 -168 -86q-63 0 -94 35.5t-31 100.5q0 36 10 94l52 273h171l-49 -259q-7 -35 -7 -62q0 -44 37 -44q33 0 60.5 39t40.5 108zM223 -238q-34 0 -57 23t-23 56q0 34 23 56.5t58 22.5q32 0 54 -22.5t22 -56.5
q0 -33 -22 -56t-55 -23z" />
    <glyph glyph-name="uni1EE6" unicode="&#x1ee6;" horiz-adv-x="670" 
d="M138 674h170l-73 -383q-7 -37 -7 -78q1 -34 23 -58t63 -24q53 0 84.5 37.5t47.5 121.5l73 384h171l-71 -375q-30 -160 -104.5 -235t-220.5 -75q-114 -1 -175 56t-61 165q0 41 10 96zM437 701l-75 27q8 15 33.5 39.5t25.5 42.5q0 26 -27 26q-19 0 -44 -27l-47 36
q55 76 131 76q44 0 71.5 -24.5t27.5 -60.5q0 -22 -10.5 -41t-24.5 -31t-32.5 -29.5t-28.5 -33.5z" />
    <glyph glyph-name="uni1EE7" unicode="&#x1ee7;" horiz-adv-x="575" 
d="M392 492h171l-61 -324q-11 -54 -28 -168h-150l7 75h-2q-71 -86 -168 -86q-63 0 -94 35.5t-31 100.5q0 36 10 94l52 273h171l-49 -259q-7 -35 -7 -62q0 -44 37 -44q33 0 60.5 39t40.5 108zM380 528l-84 22q8 21 38 50t30 50q0 28 -25 28q-23 0 -48 -35l-52 37
q53 82 136 82q45 0 71.5 -25t26.5 -62q0 -34 -17 -59t-42 -48t-34 -40z" />
    <glyph glyph-name="uni1EE8" unicode="&#x1ee8;" horiz-adv-x="692" 
d="M674 587l-55 -288q-30 -160 -104.5 -235t-220.5 -75q-114 -1 -175 56t-61 165q0 41 10 96l70 368h170l-72 -383q-8 -34 -8 -78q1 -34 23 -58t64 -24q52 0 84 37.5t48 121.5l72 384h123q65 0 65 57q0 30 -11 56l122 21q9 -32 9 -63q0 -71 -40.5 -112.5t-112.5 -45.5z
M416 840h183l-130 -130h-143z" />
    <glyph glyph-name="uni1EE9" unicode="&#x1ee9;" horiz-adv-x="604" 
d="M566 605l124 21q9 -31 9 -65q0 -66 -39 -109t-113 -46l-45 -238q-15 -82 -28 -168h-150l7 75h-2q-71 -86 -168 -86q-63 0 -94 35.5t-31 100.5q0 36 10 94l52 273h171l-49 -259q-7 -35 -7 -62q0 -44 37 -44q33 0 60.5 39t40.5 108l41 218h121q65 0 65 57q0 26 -12 56z
M358 706h160l-129 -156h-124z" />
    <glyph glyph-name="uni1EEA" unicode="&#x1eea;" horiz-adv-x="692" 
d="M674 587l-55 -288q-30 -160 -104.5 -235t-220.5 -75q-114 -1 -175 56t-61 165q0 41 10 96l70 368h170l-72 -383q-8 -34 -8 -78q1 -34 23 -58t64 -24q52 0 84 37.5t48 121.5l72 384h123q65 0 65 57q0 27 -11 56l122 21q9 -32 9 -63q0 -71 -40.5 -112.5t-112.5 -45.5z
M265 840h182l78 -128h-142z" />
    <glyph glyph-name="uni1EEB" unicode="&#x1eeb;" horiz-adv-x="604" 
d="M566 605l124 21q9 -31 9 -65q0 -66 -39 -109t-113 -46l-45 -238q-15 -82 -28 -168h-150l7 75h-2q-71 -86 -168 -86q-63 0 -94 35.5t-31 100.5q0 36 10 94l52 273h171l-49 -259q-7 -35 -7 -62q0 -44 37 -44q33 0 60.5 39t40.5 108l41 218h121q65 0 65 57q0 26 -12 56z
M207 706h159l79 -156h-122z" />
    <glyph glyph-name="uni1EEC" unicode="&#x1eec;" horiz-adv-x="692" 
d="M674 587l-55 -288q-30 -160 -104.5 -235t-220.5 -75q-114 -1 -175 56t-61 165q0 41 10 96l70 368h170l-72 -383q-8 -34 -8 -78q1 -34 23 -58t64 -24q52 0 84 37.5t48 121.5l72 384h123q65 0 65 57q0 27 -11 56l122 21q9 -32 9 -63q0 -71 -40.5 -112.5t-112.5 -45.5z
M448 701l-74 27q8 15 33 39.5t25 42.5q0 11 -7 18.5t-19 7.5q-19 0 -44 -27l-47 36q54 76 130 76q44 0 72 -24.5t28 -60.5q0 -28 -16 -49.5t-42.5 -44.5t-38.5 -41z" />
    <glyph glyph-name="uni1EED" unicode="&#x1eed;" horiz-adv-x="604" 
d="M566 605l124 21q9 -33 9 -66q0 -65 -39 -108t-113 -46l-45 -238q-15 -82 -28 -168h-150l7 75h-2q-71 -86 -168 -86q-63 0 -94 35.5t-31 100.5q0 36 10 94l52 273h171l-49 -259q-7 -35 -7 -62q0 -44 37 -44q33 0 60.5 39t40.5 108l41 218h121q65 0 65 57q0 26 -12 56z
M381 528l-84 22q8 21 38 50t30 50q0 28 -25 28q-23 0 -48 -35l-52 37q53 82 136 82q45 0 71.5 -25t26.5 -62q0 -34 -17 -59t-42 -48t-34 -40z" />
    <glyph glyph-name="uni1EEE" unicode="&#x1eee;" horiz-adv-x="692" 
d="M674 587l-55 -288q-30 -160 -104.5 -235t-220.5 -75q-114 -1 -175 56t-61 165q0 41 10 96l70 368h170l-72 -383q-8 -34 -8 -78q1 -34 23 -58t63 -24q53 0 85 37.5t48 121.5l72 384h123q65 0 65 57q0 30 -11 56l122 21q9 -32 9 -63q0 -71 -40.5 -112.5t-112.5 -45.5z
M357 715h-81q11 69 39 103t67 34q32 0 64 -20q27 -20 40 -20q12 0 19.5 9.5t14.5 35.5h80q-20 -135 -109 -135q-33 0 -65 19q-29 18 -39 18q-21 0 -30 -44z" />
    <glyph glyph-name="uni1EEF" unicode="&#x1eef;" horiz-adv-x="604" 
d="M566 606l124 20q9 -31 9 -65q0 -66 -39 -109t-113 -46l-45 -238q-15 -82 -28 -168h-150l7 75h-2q-71 -86 -168 -86q-63 0 -94 35.5t-31 100.5q0 36 10 94l52 273h171l-49 -259q-7 -35 -7 -62q0 -44 37 -44q33 0 60.5 39t40.5 108l41 218h121q65 0 65 58q0 24 -12 56z
M270 554h-80q10 67 37 102.5t67 35.5q32 0 62 -20t39 -20q12 0 18.5 9.5t14.5 35.5h78q-19 -135 -107 -135q-40 0 -65 20q-22 17 -36 17q-19 0 -28 -45z" />
    <glyph glyph-name="uni1EF0" unicode="&#x1ef0;" horiz-adv-x="692" 
d="M674 587l-55 -288q-30 -160 -104.5 -235t-220.5 -75q-114 -1 -175 56t-61 165q0 41 10 96l70 368h170l-72 -383q-8 -34 -8 -78q1 -34 23 -58t64 -24q52 0 84 37.5t48 121.5l72 384h123q65 0 65 57q0 27 -11 56l122 21q9 -32 9 -63q0 -71 -40.5 -112.5t-112.5 -45.5z
M261 -233q-33 0 -55.5 22.5t-22.5 53.5q0 33 23 55t56 22q32 0 53.5 -22t21.5 -55q0 -31 -22 -53.5t-54 -22.5z" />
    <glyph glyph-name="uni1EF1" unicode="&#x1ef1;" horiz-adv-x="604" 
d="M566 605l124 21q9 -33 9 -66q0 -65 -39 -108t-113 -46l-45 -238q-15 -82 -28 -168h-150l7 75h-2q-71 -86 -168 -86q-63 0 -94 35.5t-31 100.5q0 36 10 94l52 273h171l-49 -259q-7 -35 -7 -62q0 -44 37 -44q33 0 60.5 39t40.5 108l41 218h121q65 0 65 57q0 26 -12 56z
M228 -238q-34 0 -57 23t-23 56q0 34 23 56.5t58 22.5q32 0 54 -22.5t22 -56.5q0 -33 -22 -56t-55 -23z" />
    <glyph glyph-name="Ygrave" unicode="&#x1ef2;" horiz-adv-x="593" 
d="M317 0h-171l52 272l-133 402h183l33 -151q23 -113 25 -126h2q4 7 67 126l83 151h204l-293 -397zM193 840h181l78 -128h-142z" />
    <glyph glyph-name="ygrave" unicode="&#x1ef3;" horiz-adv-x="522" 
d="M41 492h180l22 -193q2 -18 7 -57t7 -55h2q39 112 39 113l74 192h179l-171 -345q-102 -203 -198 -290q-39 -36 -85.5 -57.5t-78.5 -26.5l-37 147q42 11 81 35q50 32 73 73q6 10 2 24zM147 706h159l79 -156h-122z" />
    <glyph glyph-name="uni1EF4" unicode="&#x1ef4;" horiz-adv-x="593" 
d="M317 0h-171l52 272l-133 402h183l33 -151q23 -113 25 -126h2q4 7 67 126l83 151h204l-293 -397zM214 -233q-33 0 -55.5 22.5t-22.5 53.5q0 33 23 55t56 22q32 0 53.5 -22t21.5 -55q0 -31 -22 -53.5t-54 -22.5z" />
    <glyph glyph-name="uni1EF5" unicode="&#x1ef5;" horiz-adv-x="522" 
d="M41 492h180l22 -193q2 -18 7 -57t7 -55h2q39 112 39 113l74 192h179l-171 -345q-102 -203 -198 -290q-39 -36 -85.5 -57.5t-78.5 -26.5l-37 147q42 11 81 35q50 32 73 73q6 10 2 24zM361 -238q-34 0 -57 23t-23 56q0 34 23 56.5t58 22.5q32 0 54 -22.5t22 -56.5
q0 -33 -22 -56t-55 -23z" />
    <glyph glyph-name="uni1EF6" unicode="&#x1ef6;" horiz-adv-x="593" 
d="M317 0h-171l52 272l-133 402h183l33 -151q23 -113 25 -126h2q4 7 67 126l83 151h204l-293 -397zM399 701l-74 27q8 15 33 39.5t25 42.5q0 26 -27 26q-20 0 -43 -27l-47 36q54 76 130 76q44 0 71.5 -24.5t27.5 -60.5q0 -22 -10.5 -41t-24.5 -31t-32.5 -29.5t-28.5 -33.5z
" />
    <glyph glyph-name="uni1EF7" unicode="&#x1ef7;" horiz-adv-x="522" 
d="M41 492h180l22 -193q2 -18 7 -57t7 -55h2q39 112 39 113l74 192h179l-171 -345q-102 -203 -198 -290q-39 -36 -85.5 -57.5t-78.5 -26.5l-37 147q42 11 81 35q50 32 73 73q6 10 2 24zM354 528l-84 22q8 21 38 50t30 50q0 13 -7 20.5t-18 7.5q-23 0 -48 -35l-52 37
q53 82 135 82q45 0 72 -25t27 -62q0 -26 -11.5 -48.5t-25.5 -35.5t-31 -30.5t-25 -32.5z" />
    <glyph glyph-name="uni1EF8" unicode="&#x1ef8;" horiz-adv-x="593" 
d="M317 0h-171l52 272l-133 402h183l33 -151q23 -113 25 -126h2q4 7 67 126l83 151h204l-293 -397zM300 715h-81q11 69 39 103t67 34q32 0 64 -20q27 -20 40 -20q12 0 19.5 9.5t14.5 35.5h80q-20 -135 -109 -135q-33 0 -65 19q-29 18 -39 18q-21 0 -30 -44z" />
    <glyph glyph-name="uni1EF9" unicode="&#x1ef9;" horiz-adv-x="522" 
d="M41 492h180l22 -193q2 -18 7 -57t7 -55h2q39 112 39 113l74 192h179l-171 -345q-100 -201 -198 -290q-39 -36 -85.5 -57.5t-78.5 -26.5l-37 147q42 11 81 35q50 32 73 73q6 10 2 24zM251 554h-80q10 67 37 102.5t67 35.5q33 0 63 -20t39 -20q12 0 18.5 9.5t14.5 35.5h78
q-19 -135 -107 -135q-39 0 -66 20q-22 17 -36 17q-19 0 -28 -45z" />
    <glyph glyph-name="uni2010" unicode="&#x2010;" horiz-adv-x="328" 
d="M43 318h268l-23 -117h-268z" />
    <glyph glyph-name="endash" unicode="&#x2013;" horiz-adv-x="500" 
d="M41 309h440l-21 -109h-440z" />
    <glyph glyph-name="emdash" unicode="&#x2014;" horiz-adv-x="1000" 
d="M41 309h940l-21 -109h-940z" />
    <glyph glyph-name="quoteleft" unicode="&#x2018;" horiz-adv-x="281" 
d="M224 407l-165 -9q75 161 168 285l111 9q-73 -148 -114 -285z" />
    <glyph glyph-name="quoteright" unicode="&#x2019;" horiz-adv-x="281" 
d="M172 683l165 9q-77 -164 -168 -285l-111 -9q74 150 114 285z" />
    <glyph glyph-name="quotesinglbase" unicode="&#x201a;" horiz-adv-x="281" 
d="M63 -103l-117 -10q81 166 119 299l174 10q-76 -166 -176 -299z" />
    <glyph glyph-name="quotedblleft" unicode="&#x201c;" horiz-adv-x="495" 
d="M224 407l-166 -9q75 161 168 285l111 9q-76 -158 -113 -285zM440 407l-166 -9q75 161 168 285l111 9q-76 -158 -113 -285z" />
    <glyph glyph-name="quotedblright" unicode="&#x201d;" horiz-adv-x="495" 
d="M171 683l165 9q-77 -164 -168 -285l-111 -9q74 150 114 285zM386 683l166 9q-77 -164 -168 -285l-111 -9q72 145 113 285z" />
    <glyph glyph-name="quotedblbase" unicode="&#x201e;" horiz-adv-x="495" 
d="M53 -103l-117 -10q81 166 119 299l175 10q-78 -167 -177 -299zM290 -103l-118 -10q79 159 119 299l175 10q-76 -166 -176 -299z" />
    <glyph glyph-name="dagger" unicode="&#x2020;" horiz-adv-x="535" 
d="M268 674h159l-54 -197l174 14l-26 -135l-168 14l-65 -421h-159l96 421l-174 -14l26 135l168 -14z" />
    <glyph glyph-name="daggerdbl" unicode="&#x2021;" horiz-adv-x="535" 
d="M269 674h156l-48 -179l172 14l-26 -135l-166 14l-27 -143l171 14l-25 -135l-167 14l-23 -188h-156l49 188l-171 -14l26 135l166 -14l27 143l-171 -14l25 135l166 -14z" />
    <glyph glyph-name="bullet" unicode="&#x2022;" horiz-adv-x="362" 
d="M180 121q-58 0 -99 41t-41 101q-1 60 40.5 101t100.5 41t100 -41t41 -101t-41 -101t-101 -41z" />
    <glyph glyph-name="ellipsis" unicode="&#x2026;" horiz-adv-x="1000" 
d="M124 -9q-41 0 -66.5 26.5t-25.5 67.5q0 48 32 82t81 34q41 0 67.5 -26.5t26.5 -69.5q0 -51 -32 -82.5t-83 -31.5zM458 -9q-41 0 -66.5 26.5t-25.5 67.5q0 48 32 82t81 34q41 0 67.5 -26.5t26.5 -69.5q0 -51 -32 -82.5t-83 -31.5zM792 -9q-41 0 -66.5 26.5t-25.5 67.5
q0 48 32 82t81 34q41 0 67.5 -26.5t26.5 -69.5q0 -51 -32 -82.5t-83 -31.5z" />
    <glyph glyph-name="perthousand" unicode="&#x2030;" horiz-adv-x="1320" 
d="M284 661q70 0 112 -42t42 -113q0 -106 -63.5 -176.5t-157.5 -70.5q-70 0 -114 42t-44 116q0 102 63 173t162 71zM267 565q-36 0 -58 -52t-22 -99q0 -27 11.5 -43t31.5 -16q26 0 45.5 30.5t27 64.5t7.5 61q0 54 -43 54zM275 -11h-98l479 670h96zM722 391q70 0 111.5 -42
t41.5 -112q0 -106 -63.5 -176.5t-156.5 -70.5q-70 0 -114 42t-44 116q0 101 63 172t162 71zM704 295q-24 0 -43.5 -28t-27.5 -61.5t-8 -60.5t11.5 -43t30.5 -16q26 0 45.5 30.5t27 64t7.5 60.5q0 54 -43 54zM1131 391q70 0 111.5 -42t41.5 -112q0 -106 -63.5 -176.5
t-156.5 -70.5q-70 0 -114 42t-44 116q0 101 63 172t162 71zM1113 295q-24 0 -43.5 -28t-27.5 -61.5t-8 -60.5t11.5 -43t30.5 -16q26 0 45.5 30.5t27 64t7.5 60.5q0 54 -43 54z" />
    <glyph glyph-name="guilsinglleft" unicode="&#x2039;" horiz-adv-x="278" 
d="M273 446l-140 -196l93 -191h-115l-94 194l129 193h127z" />
    <glyph glyph-name="guilsinglright" unicode="&#x203a;" horiz-adv-x="277" 
d="M144 256l-93 190h115l94 -193l-129 -194h-127z" />
    <glyph glyph-name="fraction" unicode="&#x2044;" horiz-adv-x="144" 
d="M-110 -11h-97l491 672h97z" />
    <glyph glyph-name="zero.superior" unicode="&#x2070;" horiz-adv-x="384" 
d="M227 401q-67 0 -106.5 41.5t-39.5 109.5q0 102 58.5 175.5t155.5 73.5q67 0 106 -40.5t39 -102.5q0 -111 -59 -184t-154 -73zM241 498q31 0 49.5 52t18.5 98q0 56 -29 56q-31 0 -49.5 -57.5t-18.5 -94.5q0 -54 29 -54z" />
    <glyph glyph-name="four.superior" unicode="&#x2074;" horiz-adv-x="385" 
d="M356 406h-125l16 85h-190l15 74l199 235h160l-42 -223h49l-17 -86h-49zM264 577l9 51q4 19 21 81h-3q-16 -26 -51 -73l-44 -57v-2h68z" />
    <glyph glyph-name="five.superior" unicode="&#x2075;" horiz-adv-x="355" 
d="M411 796l-20 -101h-156l-8 -29q11 1 28 1q41 0 73 -16q68 -25 68 -92q0 -75 -62.5 -116.5t-160.5 -41.5q-77 0 -119 21l28 93q41 -17 91 -17q80 0 80 45q0 41 -97 41q-34 0 -58 -3l60 215h253z" />
    <glyph glyph-name="six.superior" unicode="&#x2076;" horiz-adv-x="374" 
d="M416 798l-17 -95q-27 4 -44 3q-46 -2 -76.5 -17.5t-41.5 -35.5l1 -2q31 21 71 21q54 0 84.5 -32t30.5 -82q0 -68 -52 -112.5t-129 -44.5q-72 0 -117.5 42t-45.5 104q0 64 31.5 118t83.5 86q71 45 170 48q24 1 51 -1zM249 490q20 0 33 16.5t13 44.5q0 16 -11 27t-30 11
t-33 -16l-9 -12q-5 -14 -5 -30q0 -17 11.5 -29t30.5 -12z" />
    <glyph glyph-name="seven.superior" unicode="&#x2077;" horiz-adv-x="331" 
d="M115 796h307l-15 -77q-19 -28 -104 -151.5t-110 -161.5h-140q34 47 115.5 158t95.5 130v1h-168z" />
    <glyph glyph-name="eight.superior" unicode="&#x2078;" horiz-adv-x="381" 
d="M293 801q57 0 98.5 -25t41.5 -74q0 -54 -78 -85v-1q66 -29 66 -83q0 -65 -57.5 -98.5t-132.5 -33.5q-70 0 -112.5 28.5t-42.5 73.5q0 35 26.5 62.5t65.5 41.5v1q-51 27 -51 70q0 57 51.5 90t124.5 33zM246 487h2q16 0 27 10.5t11 27.5q0 29 -39 43q-38 -13 -38 -47
q0 -15 11 -24.5t26 -9.5zM276 718h-2q-13 0 -22 -8.5t-9 -20.5q0 -23 40 -40q30 9 30 37q0 15 -10 23.5t-27 8.5z" />
    <glyph glyph-name="nine.superior" unicode="&#x2079;" horiz-adv-x="375" 
d="M87 402l14 97q22 -4 57 -4q36 2 64 11q44 16 61 45l-1 2q-25 -17 -70 -17q-51 0 -87 29t-36 85q0 65 55 109t131 44q72 0 114.5 -41.5t42.5 -108.5q0 -122 -103 -199q-71 -55 -185 -55q-20 -1 -57 3zM263 711q-18 0 -31 -16.5t-13 -38.5q0 -18 11.5 -28.5t28.5 -10.5
q21 0 36 11q7 9 9 21q2 10 2 20q0 17 -12 29.5t-31 12.5z" />
    <glyph glyph-name="parenleft.superior" unicode="&#x207d;" horiz-adv-x="214" 
d="M217 834h84q-49 -68 -77.5 -151.5t-28.5 -166.5q0 -96 19 -163h-82q-31 77 -31 154q0 199 116 327z" />
    <glyph glyph-name="parenright.superior" unicode="&#x207e;" horiz-adv-x="214" 
d="M128 353h-84q106 148 106 318q0 95 -19 163h82q31 -71 31 -154q0 -201 -116 -327z" />
    <glyph glyph-name="zero.inferior" unicode="&#x2080;" horiz-adv-x="384" 
d="M121 -149q-67 0 -106.5 41.5t-39.5 109.5q0 102 58.5 175.5t155.5 73.5q67 0 106 -40.5t39 -102.5q0 -111 -59 -184t-154 -73zM135 -52q31 0 49.5 52t18.5 98q0 56 -29 56q-31 0 -49.5 -57.5t-18.5 -94.5q0 -54 29 -54z" />
    <glyph glyph-name="one.inferior" unicode="&#x2081;" horiz-adv-x="294" 
d="M168 -144h-137l53 280h-1l-81 -31l-10 92l132 49h118z" />
    <glyph glyph-name="two.inferior" unicode="&#x2082;" horiz-adv-x="359" 
d="M258 -144h-321l13 65l76 57q68 48 101 79t33 57q0 34 -46 34q-44 0 -90 -28l-19 84q65 47 157 47q60 0 101.5 -27t41.5 -82q0 -28 -10.5 -52.5t-34.5 -47t-40 -34.5t-49 -35l-23 -15v-2h130z" />
    <glyph glyph-name="three.inferior" unicode="&#x2083;" horiz-adv-x="354" 
d="M22 131l-10 82q58 38 150 38q56 0 99 -25.5t43 -67.5q0 -69 -100 -94v-2q33 -5 58 -26.5t25 -55.5q0 -62 -57 -95.5t-139 -33.5q-96 0 -150 35l41 88q41 -31 98 -31q27 0 46 10.5t19 28.5t-22 29t-59 11h-17l15 77h15q84 0 84 35q0 25 -42 25q-53 0 -97 -28z" />
    <glyph glyph-name="four.inferior" unicode="&#x2084;" horiz-adv-x="385" 
d="M250 -144h-125l16 85h-190l15 74l199 235h160l-42 -223h49l-17 -86h-49zM158 27l9 51q4 19 21 81h-3q-16 -26 -51 -73l-44 -57v-2h68z" />
    <glyph glyph-name="five.inferior" unicode="&#x2085;" horiz-adv-x="355" 
d="M305 246l-20 -101h-156l-8 -29q11 1 28 1q41 0 73 -16q68 -25 68 -92q0 -75 -62.5 -116.5t-160.5 -41.5q-77 0 -119 21l28 93q41 -17 91 -17q80 0 80 45q0 41 -97 41q-34 0 -58 -3l60 215h253z" />
    <glyph glyph-name="six.inferior" unicode="&#x2086;" horiz-adv-x="374" 
d="M310 248l-17 -95q-20 5 -44 3q-46 -2 -76.5 -17.5t-41.5 -35.5l1 -2q31 21 71 21q54 0 84.5 -32t30.5 -82q0 -68 -52 -112.5t-129 -44.5q-72 0 -117.5 42t-45.5 104q0 65 32 119t83 86q72 44 170 47q34 2 51 -1zM143 -60q20 0 33 16.5t13 44.5q0 16 -11 27t-30 11
t-33 -16l-9 -12q-5 -14 -5 -30q0 -17 11.5 -29t30.5 -12z" />
    <glyph glyph-name="seven.inferior" unicode="&#x2087;" horiz-adv-x="331" 
d="M9 246h307l-15 -76q-19 -28 -104 -152.5t-110 -161.5h-140q34 47 115.5 158t95.5 130v1h-168z" />
    </font>
</defs>
</svg>
